<svg width="18" height="18" viewBox="0 0 18 18" fill="none" xmlns="http://www.w3.org/2000/svg">
<path fill-rule="evenodd" clip-rule="evenodd" d="M17.0559 8.4175V16.7041C17.0559 17.4198 16.5368 18.0001 15.8964 18.0001H11.3728V11.5867C11.3728 11.2946 11.1609 11.0577 10.8996 11.0577H7.10945C6.84808 11.0577 6.63621 11.2946 6.63621 11.5867V18.0001H2.11256C1.47222 18.0001 0.953125 17.4198 0.953125 16.7041V8.4175C1.10599 8.4526 1.26513 8.47133 1.42637 8.47133C2.20115 8.47133 2.88797 8.05469 3.32142 7.41101C3.75278 8.05469 4.43962 8.47133 5.21439 8.47133C5.99125 8.47133 6.67809 8.05469 7.10945 7.41101C7.54291 8.05469 8.22973 8.47133 9.0045 8.47133C9.77928 8.47133 10.4661 8.05469 10.8996 7.41101C10.9666 7.51167 11.0399 7.60529 11.1194 7.69658C11.5633 8.19279 12.1664 8.47133 12.7946 8.47133C13.5694 8.47133 14.2562 8.05469 14.6876 7.41101C15.121 8.05469 15.8079 8.47133 16.5826 8.47133C16.7439 8.47133 16.903 8.4526 17.0559 8.4175Z" fill="black"/>
<path fill-rule="evenodd" clip-rule="evenodd" d="M0 4.23535V5.82364C0 6.70091 0.636092 7.41193 1.42092 7.41193C2.20575 7.41193 2.84184 6.70091 2.84184 5.82364V4.23535H0Z" fill="black"/>
<path fill-rule="evenodd" clip-rule="evenodd" d="M3.78906 4.23535V5.82364C3.78906 6.70091 4.42515 7.41193 5.20998 7.41193C5.99481 7.41193 6.6309 6.70091 6.6309 5.82364V4.23535H3.78906Z" fill="black"/>
<path fill-rule="evenodd" clip-rule="evenodd" d="M7.57812 4.23535V5.82364C7.57812 6.70091 8.21422 7.41193 8.99904 7.41193C9.78387 7.41193 10.42 6.70091 10.42 5.82364V4.23535H7.57812Z" fill="black"/>
<path fill-rule="evenodd" clip-rule="evenodd" d="M15.1562 4.23535V5.82364C15.1562 6.70091 15.7923 7.41193 16.5772 7.41193C17.362 7.41193 17.9981 6.70091 17.9981 5.82364V4.23535H15.1562Z" fill="black"/>
<path fill-rule="evenodd" clip-rule="evenodd" d="M11.3672 4.23535V5.82364C11.3672 6.24506 11.5169 6.64902 11.7835 6.94656C12.0497 7.24463 12.4111 7.41193 12.7881 7.41193C13.5729 7.41193 14.209 6.70091 14.209 5.82364V4.23535H11.3672Z" fill="black"/>
<path fill-rule="evenodd" clip-rule="evenodd" d="M16.6093 0.716413L17.7097 3.17658H0.296875L1.39733 0.716413C1.59373 0.277348 1.9952 0 2.43436 0H15.5723C16.0114 0 16.4129 0.277348 16.6093 0.716413Z" fill="black"/>
</svg>
