<svg width="18" height="18" viewBox="0 0 18 18" fill="none" xmlns="http://www.w3.org/2000/svg">
<g clip-path="url(#clip0_336_9)">
<path d="M10.683 13.1483L10.611 13.1096C10.4415 13.0102 10.3037 12.8649 10.2135 12.6904C10.1233 12.5159 10.0844 12.3194 10.1014 12.1237C10.1014 12.0185 10.1014 11.9132 10.1014 11.808C10.0949 11.6129 10.1433 11.4198 10.2413 11.2509C10.3392 11.0819 10.4827 10.9439 10.6553 10.8526L10.7273 10.8166C10.7895 10.786 10.8379 10.7332 10.863 10.6686C10.8881 10.604 10.8881 10.5323 10.863 10.4677L10.4144 9.28802C10.3899 9.22294 10.3419 9.16945 10.2798 9.13815C10.2177 9.10686 10.1461 9.10005 10.0793 9.1191L10.0267 9.13848C9.83535 9.1882 9.63385 9.18258 9.44561 9.12228C9.25736 9.06199 9.0901 8.94949 8.96328 8.79786C8.89405 8.71756 8.82205 8.64002 8.74728 8.56802C8.60368 8.43383 8.50135 8.26145 8.4523 8.07113C8.40324 7.88081 8.40951 7.68044 8.47035 7.49356L8.49528 7.41602C8.51806 7.35079 8.51564 7.2794 8.48848 7.21586C8.46133 7.15233 8.4114 7.10124 8.34851 7.07263L7.20205 6.55756C7.13877 6.52952 7.06729 6.5262 7.00168 6.54824C6.93608 6.57027 6.8811 6.61608 6.84759 6.67663L6.81159 6.7431C6.71166 6.91393 6.56499 7.05266 6.38886 7.14293C6.21273 7.23321 6.01447 7.27127 5.81743 7.25263C5.70943 7.25263 5.60697 7.25263 5.49897 7.25263C5.30138 7.25759 5.10644 7.20634 4.93682 7.10487C4.76721 7.00339 4.62988 6.85585 4.54082 6.6794L4.50482 6.61017C4.47516 6.54699 4.42274 6.49734 4.35804 6.47116C4.29334 6.44497 4.22115 6.44418 4.15589 6.46894L2.9762 6.9231C2.91112 6.94755 2.85763 6.99558 2.82633 7.05766C2.79504 7.11974 2.78824 7.19131 2.80728 7.25817L2.82943 7.33017C2.879 7.52015 2.87384 7.72028 2.81455 7.90745C2.75526 8.09462 2.64426 8.26122 2.49435 8.38802C2.41405 8.45725 2.33651 8.53202 2.26451 8.60679C2.12882 8.75081 1.955 8.85331 1.7633 8.90234C1.5716 8.95137 1.36991 8.94491 1.18174 8.88371L1.10974 8.86156C1.04456 8.84071 0.973969 8.84474 0.911584 8.87287C0.849198 8.90099 0.799436 8.95122 0.771893 9.01386L0.245739 10.1576C0.214187 10.2217 0.208674 10.2956 0.230352 10.3637C0.252031 10.4319 0.299221 10.489 0.362047 10.5231L0.434047 10.5646C0.601726 10.6624 0.738463 10.8055 0.828584 10.9774C0.918704 11.1493 0.958561 11.3431 0.943585 11.5366V11.8551C0.950668 12.0507 0.902463 12.2444 0.804501 12.4138C0.706539 12.5833 0.562788 12.7217 0.389739 12.8132L0.317739 12.8492C0.256207 12.8798 0.208241 12.9322 0.183164 12.9962C0.158086 13.0601 0.157688 13.1312 0.182047 13.1954L0.630662 14.3779C0.655638 14.4424 0.703891 14.4953 0.765913 14.5261C0.827935 14.5568 0.899227 14.5632 0.965739 14.544L1.04051 14.5246C1.23182 14.4749 1.43332 14.4805 1.62156 14.5408C1.80981 14.6011 1.97707 14.7136 2.10389 14.8652C2.17312 14.9428 2.24512 15.0203 2.31989 15.0951C2.46326 15.2289 2.56547 15.4008 2.61452 15.5906C2.66357 15.7804 2.65743 15.9803 2.59682 16.1668L2.57189 16.2443C2.54911 16.3096 2.55153 16.3809 2.57869 16.4445C2.60584 16.508 2.65577 16.5591 2.71866 16.5877L3.8762 17.1056C3.9398 17.1334 4.01153 17.1363 4.07718 17.1137C4.14283 17.0912 4.1976 17.0448 4.23066 16.9837L4.26666 16.92C4.36631 16.75 4.51203 16.6117 4.68697 16.5211C4.86191 16.4304 5.05894 16.3911 5.25528 16.4077H5.57097C5.76821 16.4028 5.96281 16.4538 6.13233 16.5547C6.30186 16.6557 6.43941 16.8025 6.52912 16.9782L6.56512 17.0502C6.58852 17.0953 6.62389 17.1332 6.66736 17.1595C6.71084 17.1859 6.76073 17.1998 6.81159 17.1997C6.84463 17.2 6.87745 17.1944 6.90851 17.1831L8.09097 16.7317C8.15605 16.7073 8.20954 16.6592 8.24084 16.5971C8.27213 16.5351 8.27894 16.4635 8.25989 16.3966L8.21559 16.3385C8.16611 16.1478 8.17158 15.9471 8.23137 15.7594C8.29115 15.5717 8.4028 15.4048 8.55343 15.2779C8.63374 15.2086 8.71128 15.1366 8.78328 15.0619C8.91896 14.9178 9.09278 14.8153 9.28449 14.7663C9.47619 14.7173 9.67788 14.7237 9.86605 14.7849L9.94082 14.8099C10.0057 14.8309 10.076 14.8273 10.1383 14.7997C10.2007 14.7721 10.2506 14.7225 10.2787 14.6603L10.802 13.5028C10.8301 13.4395 10.8334 13.368 10.8114 13.3024C10.7893 13.2368 10.7435 13.1818 10.683 13.1483ZM7.66174 12.7911C7.504 13.1432 7.26184 13.4509 6.95673 13.6871C6.65161 13.9232 6.29297 14.0804 5.91256 14.1448C5.53216 14.2091 5.14175 14.1787 4.77593 14.0561C4.41012 13.9335 4.08019 13.7226 3.81538 13.442C3.55058 13.1614 3.35907 12.8198 3.25784 12.4475C3.15661 12.0753 3.14878 11.6837 3.23504 11.3077C3.3213 10.9317 3.49899 10.5827 3.75236 10.2917C4.00573 10.0008 4.32696 9.77683 4.68759 9.63971C5.12104 9.4749 5.59363 9.44227 6.04562 9.54595C6.49761 9.64964 6.90873 9.88497 7.22702 10.2222C7.54531 10.5595 7.75648 10.9835 7.83386 11.4408C7.91123 11.898 7.85134 12.3679 7.66174 12.7911Z" fill="black"/>
<path d="M7.54407 4.91259L7.49976 4.93474C7.43773 4.96485 7.38916 5.01701 7.36356 5.08103C7.33795 5.14505 7.33715 5.21632 7.3613 5.2809L7.65484 6.04521C7.67927 6.10968 7.72686 6.16272 7.78831 6.19396C7.84977 6.2252 7.92067 6.23239 7.98715 6.21413L8.03423 6.20028C8.14011 6.17279 8.25166 6.17617 8.35569 6.21003C8.45971 6.24389 8.55188 6.30681 8.6213 6.39136C8.66838 6.44398 8.71823 6.49382 8.76807 6.54367C8.84887 6.61656 8.9064 6.71164 8.93349 6.81703C8.96058 6.92243 8.95602 7.03347 8.92038 7.13628L8.90376 7.18613C8.88116 7.25169 8.88399 7.32335 8.91168 7.38694C8.93937 7.45052 8.98991 7.5014 9.0533 7.52951L9.80099 7.86182C9.86298 7.89079 9.9335 7.89578 9.99895 7.87584C10.0644 7.8559 10.1202 7.81243 10.1555 7.75382L10.1776 7.71228C10.2342 7.61841 10.3163 7.54255 10.4144 7.49352C10.5124 7.4445 10.6224 7.42433 10.7315 7.43536H10.9447C11.0534 7.43396 11.1603 7.46305 11.2533 7.51934C11.3463 7.57563 11.4217 7.65687 11.4708 7.75382L11.493 7.8009C11.5164 7.84605 11.5518 7.88389 11.5952 7.91027C11.6387 7.93664 11.6886 7.95054 11.7395 7.95044C11.7734 7.95034 11.807 7.94473 11.8391 7.93382L12.6007 7.64028C12.6652 7.61586 12.7182 7.56826 12.7494 7.50681C12.7807 7.44535 12.7879 7.37445 12.7696 7.30798L12.7558 7.25813C12.7282 7.15292 12.7313 7.04201 12.7646 6.93848C12.798 6.83496 12.8602 6.74313 12.9441 6.67382C12.9985 6.62782 13.0502 6.57882 13.0991 6.52705C13.1735 6.44657 13.2693 6.38897 13.3752 6.36101C13.4812 6.33305 13.5929 6.3359 13.6973 6.36921L13.7471 6.38305C13.812 6.40408 13.8823 6.40045 13.9447 6.37286C14.007 6.34527 14.057 6.29565 14.085 6.23351L14.4201 5.48859C14.4483 5.42564 14.4521 5.3544 14.4306 5.28884C14.409 5.22327 14.3638 5.1681 14.3038 5.13413L14.2595 5.10921C14.1656 5.05259 14.0897 4.97048 14.0407 4.87243C13.9917 4.77438 13.9715 4.66443 13.9825 4.55536C13.9825 4.48336 13.9825 4.41413 13.9825 4.3449C13.9787 4.23601 14.0057 4.12826 14.0606 4.03415C14.1155 3.94004 14.196 3.86342 14.2927 3.81321L14.3398 3.79105C14.4013 3.76047 14.4493 3.70811 14.4743 3.64413C14.4994 3.58016 14.4998 3.50915 14.4755 3.4449L14.1875 2.68336C14.163 2.61767 14.1145 2.56371 14.0518 2.53236C13.9891 2.50101 13.9168 2.4946 13.8496 2.51444L13.7998 2.52828C13.6939 2.55578 13.5823 2.55239 13.4783 2.51853C13.3743 2.48468 13.2821 2.42176 13.2127 2.33721C13.1656 2.28459 13.1185 2.23475 13.0687 2.1849C12.9889 2.11129 12.9318 2.01634 12.9044 1.9113C12.8769 1.80627 12.8801 1.69555 12.9136 1.59228L12.9302 1.54521C12.9538 1.47963 12.9518 1.40757 12.9246 1.3434C12.8974 1.27924 12.847 1.2277 12.7835 1.19905L12.0358 0.866745C11.9722 0.8379 11.9 0.834141 11.8338 0.856222C11.7676 0.878303 11.7121 0.924593 11.6785 0.985822L11.6591 1.02736C11.603 1.1217 11.521 1.19795 11.4228 1.24704C11.3247 1.29613 11.2144 1.316 11.1053 1.30428C11.0343 1.2988 10.963 1.2988 10.8921 1.30428C10.7827 1.30732 10.6746 1.27927 10.5805 1.22339C10.4864 1.16752 10.4101 1.0861 10.3604 0.988591L10.3382 0.941514C10.3072 0.880479 10.2546 0.833115 10.1907 0.808566C10.1267 0.784017 10.056 0.784026 9.99207 0.808591L9.23884 1.10767C9.17488 1.13261 9.12247 1.18042 9.09177 1.24182C9.06106 1.30323 9.05427 1.37384 9.07269 1.43998V1.48982C9.09892 1.59509 9.09519 1.70559 9.06192 1.80885C9.02864 1.9121 8.96714 2.00399 8.88438 2.07413C8.8294 2.11946 8.77759 2.1685 8.7293 2.2209C8.65402 2.29994 8.55782 2.35596 8.45192 2.38244C8.34602 2.40891 8.23477 2.40475 8.13115 2.37044H8.0813C8.02149 2.35092 7.95681 2.35235 7.89792 2.3745C7.83903 2.39665 7.78943 2.43819 7.7573 2.49228L7.42223 3.23721C7.39129 3.30074 7.38581 3.37371 7.40692 3.44115C7.42803 3.50859 7.47412 3.56541 7.53576 3.59998L7.58284 3.6249C7.67742 3.68076 7.75387 3.76273 7.80299 3.86098C7.85211 3.95923 7.87183 4.06957 7.85976 4.17874V4.39198C7.86103 4.49958 7.83212 4.60539 7.77633 4.6974C7.72053 4.78942 7.64007 4.86397 7.54407 4.91259ZM9.4493 3.70244C9.56836 3.43755 9.75666 3.20968 9.99437 3.04283C10.2321 2.87599 10.5104 2.77636 10.8 2.75443C11.0896 2.7325 11.3797 2.7891 11.6398 2.91824C11.8999 3.04739 12.1204 3.24431 12.278 3.48825C12.4356 3.7322 12.5244 4.01413 12.5352 4.30434C12.546 4.59456 12.4783 4.88231 12.3392 5.13727C12.2002 5.39224 11.995 5.60497 11.7451 5.75307C11.4953 5.90116 11.2102 5.97912 10.9198 5.97874C10.6889 5.97963 10.4605 5.93149 10.2496 5.83751C9.85928 5.66153 9.55467 5.33794 9.40256 4.9377C9.25046 4.53746 9.26329 4.09324 9.43823 3.70244H9.4493Z" fill="black"/>
<path d="M17.67 14.4L17.6257 14.3751C17.5318 14.3185 17.4559 14.2364 17.4069 14.1383C17.3579 14.0403 17.3377 13.9303 17.3487 13.8212C17.3487 13.752 17.3487 13.68 17.3487 13.6108C17.3452 13.502 17.3724 13.3943 17.4273 13.3003C17.4821 13.2062 17.5624 13.1296 17.6589 13.0791L17.706 13.0569C17.7675 13.0263 17.8155 12.974 17.8405 12.91C17.8656 12.846 17.866 12.775 17.8417 12.7108L17.5509 11.9465C17.5265 11.882 17.4789 11.829 17.4174 11.7977C17.356 11.7665 17.2851 11.7593 17.2186 11.7775H17.1687C17.0628 11.8047 16.9514 11.8011 16.8474 11.7673C16.7435 11.7335 16.6513 11.6707 16.5817 11.5865C16.5346 11.5339 16.4875 11.484 16.4377 11.4342C16.3578 11.3606 16.3008 11.2656 16.2733 11.1606C16.2458 11.0555 16.249 10.9448 16.2826 10.8415L16.302 10.7917C16.3246 10.7261 16.3217 10.6545 16.294 10.5909C16.2664 10.5273 16.2158 10.4764 16.1524 10.4483L15.4047 10.116C15.3411 10.0872 15.269 10.0834 15.2028 10.1055C15.1365 10.1276 15.0811 10.1739 15.0475 10.2351L15.0281 10.2766C14.972 10.371 14.89 10.4472 14.7918 10.4963C14.6936 10.5454 14.5834 10.5653 14.4743 10.5535C14.4023 10.5535 14.3413 10.5535 14.261 10.5535C14.1539 10.5558 14.0482 10.5282 13.9558 10.474C13.8634 10.4197 13.7879 10.3408 13.7377 10.2462L13.7155 10.1991C13.6844 10.138 13.6319 10.0907 13.568 10.0661C13.504 10.0416 13.4333 10.0416 13.3693 10.0662L12.605 10.3597C12.5411 10.3846 12.4887 10.4325 12.458 10.4939C12.4273 10.5553 12.4205 10.6259 12.4389 10.692L12.4527 10.7419C12.4796 10.8471 12.4762 10.9578 12.4429 11.0612C12.4096 11.1646 12.3477 11.2564 12.2644 11.3262C12.2101 11.3722 12.1583 11.4212 12.1093 11.4729C12.0341 11.552 11.9379 11.608 11.832 11.6345C11.7261 11.6609 11.6148 11.6568 11.5112 11.6225H11.4613C11.3965 11.6014 11.3262 11.6051 11.2638 11.6327C11.2015 11.6603 11.1515 11.7099 11.1235 11.772L10.8023 12.5142C10.7738 12.5768 10.7696 12.6478 10.7906 12.7133C10.8116 12.7788 10.8562 12.8342 10.9158 12.8686L10.9629 12.8935C11.0575 12.9494 11.1339 13.0314 11.183 13.1296C11.2322 13.2279 11.2519 13.3382 11.2398 13.4474V13.6606C11.2434 13.7698 11.2159 13.8778 11.1605 13.9719C11.1051 14.066 11.0241 14.1425 10.9269 14.1923L10.8826 14.2145C10.8205 14.2446 10.772 14.2967 10.7464 14.3608C10.7208 14.4248 10.72 14.496 10.7441 14.5606L11.0377 15.3249C11.0621 15.3894 11.1097 15.4424 11.1711 15.4737C11.2326 15.5049 11.3035 15.5121 11.37 15.4939L11.4198 15.48C11.5257 15.4529 11.6371 15.4564 11.7411 15.4902C11.8451 15.5241 11.9372 15.5868 12.0069 15.6711C12.0512 15.7237 12.101 15.7735 12.1509 15.8234C12.2317 15.8963 12.2892 15.9914 12.3163 16.0968C12.3434 16.2022 12.3388 16.3132 12.3032 16.416L12.2866 16.4631C12.2632 16.529 12.2656 16.6013 12.2933 16.6655C12.3211 16.7298 12.3721 16.7811 12.4361 16.8092L13.1838 17.1415C13.2471 17.1696 13.3186 17.1729 13.3842 17.1509C13.4498 17.1288 13.5048 17.083 13.5383 17.0225L13.5604 16.9809C13.6173 16.8873 13.6994 16.8116 13.7974 16.7626C13.8954 16.7136 14.0052 16.6933 14.1143 16.704H14.3275C14.4368 16.7013 14.5447 16.7295 14.6388 16.7853C14.7328 16.8412 14.8092 16.9224 14.8592 17.0197L14.8813 17.0668C14.9047 17.1119 14.9401 17.1498 14.9836 17.1761C15.0271 17.2025 15.077 17.2164 15.1278 17.2163C15.1617 17.2162 15.1954 17.2106 15.2275 17.1997L15.9669 16.8923C16.0314 16.8679 16.0844 16.8203 16.1156 16.7588C16.1469 16.6974 16.1541 16.6265 16.1358 16.56V16.5102C16.1082 16.4049 16.1113 16.294 16.1447 16.1905C16.178 16.087 16.2403 15.9952 16.3241 15.9259L16.4792 15.7791C16.5543 15.6998 16.6505 15.6435 16.7565 15.617C16.8624 15.5906 16.9738 15.5949 17.0773 15.6295L17.1272 15.6434C17.1882 15.661 17.2534 15.6572 17.3118 15.6325C17.3703 15.6078 17.4185 15.5637 17.4484 15.5077L17.7835 14.7628C17.8144 14.6992 17.8199 14.6263 17.7988 14.5588C17.7777 14.4914 17.7316 14.4346 17.67 14.4ZM15.7592 14.2948C15.6316 14.5787 15.4246 14.8196 15.1633 14.9887C14.9019 15.1577 14.5972 15.2475 14.286 15.2474C14.0588 15.2467 13.8343 15.1986 13.6269 15.1062C13.3354 14.9756 13.0891 14.7615 12.9193 14.491C12.7495 14.2204 12.6638 13.9056 12.6729 13.5863C12.6821 13.2671 12.7858 12.9577 12.9708 12.6973C13.1559 12.437 13.414 12.2374 13.7126 12.1238C14.0111 12.0102 14.3366 11.9877 14.6479 12.0592C14.9592 12.1306 15.2424 12.2928 15.4615 12.5252C15.6806 12.7577 15.8258 13.0499 15.8788 13.3648C15.9318 13.6798 15.8902 14.0035 15.7592 14.2948Z" fill="black"/>
</g>
<defs>
<clipPath id="clip0_336_9">
<rect width="18" height="18" fill="white"/>
</clipPath>
</defs>
</svg>
