<svg width="18" height="18" viewBox="0 0 18 18" fill="none" xmlns="http://www.w3.org/2000/svg">
<path d="M15 18C16.2427 18 17.25 16.9929 17.25 15.75H12.75C12.75 16.9929 13.7578 18 15 18Z" fill="black"/>
<path d="M3.375 18C4.6179 18 5.625 16.9929 5.625 15.75H1.125C1.125 16.9929 2.13255 18 3.375 18Z" fill="black"/>
<path d="M3.375 4.5H1.125C0.506025 4.5 0 5.00625 0 5.625V8.62515C0 9.2439 0.506025 9.74993 1.125 9.74993H3.375V4.5Z" fill="black"/>
<path d="M7.87507 1.87515C7.87507 2.9106 7.03425 3.74985 6.00015 3.74985C4.96425 3.74985 4.125 2.9106 4.125 1.87515C4.125 0.83925 4.96425 0 6.00015 0C7.03425 0 7.87507 0.83925 7.87507 1.87515Z" fill="black"/>
<path d="M14.3519 10.5608L13.8319 9H15.0001V7.875L13.3461 7.54402L12.8313 5.99985V3.375H10.5813L10.2062 4.87485H11.7063V5.99985H10.5001L6.00007 4.5H4.5V9.74992H7.5609L8.93565 13.8751L10.3585 13.4005L8.87918 8.96198C8.748 8.57025 8.30407 8.24985 7.89187 8.24985H6.00007V6.08108L10.2568 7.50015H11.7504L12.9823 11.1973L10.4474 15.0001H8.12542L6.75 10.8749H1.50007C0.5724 11.6417 0 12.7024 0 13.8751V14.625H6.41835L7.04362 16.4999H11.25L12.5003 14.625H18V12.7501L14.3519 10.5608Z" fill="black"/>
</svg>
