<svg width="18" height="18" viewBox="0 0 18 18" fill="none" xmlns="http://www.w3.org/2000/svg">
<g clip-path="url(#clip0_336_14)">
<path d="M14.7969 3.72656C14.7969 1.69133 13.1407 0 11.1055 0C10.3124 0 9.57132 0.339363 8.99609 0.950133C8.42083 0.339363 7.67977 0 6.88672 0C4.85149 0 3.19531 1.69133 3.19531 3.72656C3.19531 5.77364 4.6975 6.83037 6.43714 8.05447C7.1545 8.55914 7.89662 9.08135 8.65054 9.7354L8.99557 10.0351L9.34112 9.73589C10.1934 8.99842 11.004 8.42115 11.7188 7.91181C13.4383 6.68774 14.7969 5.72059 14.7969 3.72656ZM10.5781 5.30859H9.52344V6.36328H8.46875V5.30859H7.41406V4.25391H8.46875V3.19922H9.52344V4.25391H10.5781V5.30859Z" fill="black"/>
<path d="M17.3633 4.82336C16.2875 4.82336 16.0098 9.82258 15.9887 9.92809C15.8816 10.6606 15.3655 11.745 14.4941 12.3979L12.2099 14.0563L11.5775 13.2118L13.8617 11.5538C14.7665 10.8754 15.1789 9.71711 14.048 9.71711C13.0353 9.71711 11.1421 10.8897 10.5809 11.3548C9.91072 11.9103 9.52344 12.7356 9.52344 13.6061V18H12.6875C12.6875 17.4937 12.9617 16.9417 13.3836 16.4144C13.8266 15.8343 14.4594 15.2437 15.1132 14.6425C16.3578 13.4718 17.648 12.2695 17.8168 11.0461C17.917 10.2242 18.0002 8.81476 17.9961 7.55856C17.9915 6.15178 17.8723 4.86882 17.3633 4.82336Z" fill="black"/>
<path d="M7.28748 11.257C5.80034 10.2339 4.67189 9.71711 3.94416 9.71711C2.81332 9.71711 3.22571 10.8754 4.13052 11.5538L6.41466 13.2118L5.78227 14.0563L3.49813 12.3979C2.62661 11.745 2.11059 10.6606 2.00346 9.92809C1.98234 9.82258 1.70464 4.82336 0.62882 4.82336C0.0381953 4.8761 -0.025086 6.59524 0.00658979 8.24055C0.0277187 9.4429 0.122605 10.6136 0.175305 11.0461C0.34409 12.2695 1.63432 13.4718 2.87886 14.6425C3.53276 15.2437 4.16554 15.8343 4.60854 16.4144C5.03038 16.9417 5.3046 17.4937 5.3046 18H8.46866V13.6272C8.46873 12.6955 8.03136 11.8179 7.28748 11.257Z" fill="black"/>
</g>
<defs>
<clipPath id="clip0_336_14">
<rect width="18" height="18" fill="white"/>
</clipPath>
</defs>
</svg>
