<svg width="18" height="18" viewBox="0 0 18 18" fill="none" xmlns="http://www.w3.org/2000/svg">
<g clip-path="url(#clip0_337_36)">
<path d="M0.502714 10.3009L1.67733 10.4934C1.86291 11.3928 2.21806 12.2487 2.7238 13.0153L2.0282 13.9861C1.88387 14.1826 1.88636 14.4507 2.03432 14.6445C2.20971 14.8589 2.39608 15.0641 2.59264 15.2593C2.79095 15.4579 2.99536 15.641 3.20589 15.8179C3.3998 15.9662 3.66829 15.9686 3.86491 15.824L4.83511 15.1281C5.60096 15.6341 6.45624 15.9895 7.35519 16.1752L7.54741 17.3507C7.58403 17.5912 7.77589 17.7781 8.01725 17.8084C8.18443 17.8273 8.35285 17.8389 8.52494 17.8474C8.6085 17.8515 8.69011 17.8213 8.75091 17.7639C8.81171 17.7064 8.84646 17.6266 8.84711 17.5429V15.0979C8.84622 14.9331 8.7153 14.7984 8.55057 14.7928C5.46743 14.633 3.04955 12.0865 3.04955 8.99924C3.04955 5.91197 5.46743 3.36549 8.55057 3.20566C8.7153 3.20008 8.84622 3.06541 8.84711 2.90056V0.45766C8.84669 0.374039 8.81218 0.294198 8.75153 0.23659C8.69088 0.178983 8.60936 0.148658 8.52582 0.152556C8.35436 0.159672 8.18484 0.171689 8.01722 0.188549C7.7758 0.221443 7.58471 0.409088 7.54738 0.649852L7.35516 1.82539C6.45624 2.01132 5.60099 2.36677 4.83508 2.87277L3.86488 2.17655C3.66826 2.0319 3.39977 2.03438 3.20586 2.18266C2.99206 2.35829 2.78738 2.54476 2.59261 2.74129C2.39458 2.93504 2.20814 3.14032 2.03429 3.35604C1.88571 3.55007 1.88323 3.81891 2.02817 4.01565L2.72377 4.98647C2.21815 5.75279 1.863 6.60834 1.6773 7.50747L0.502684 7.69969C0.262157 7.73642 0.0752794 7.92841 0.0450436 8.16985C-0.0150145 8.71737 -0.0150145 9.26982 0.0450436 9.81735C0.072179 10.0628 0.259115 10.2603 0.502714 10.3009Z" fill="black"/>
<path d="M8.55273 4.43304C6.1424 4.58573 4.26562 6.58516 4.26562 9.0003C4.26562 11.4154 6.14243 13.4149 8.55273 13.5676C8.62941 13.5707 8.70405 13.5423 8.75918 13.4889C8.81431 13.4355 8.8451 13.3618 8.8444 13.285V4.71556C8.84513 4.63879 8.81434 4.56512 8.75918 4.5117C8.70405 4.45829 8.62941 4.42985 8.55273 4.43304Z" fill="black"/>
<path d="M10.9864 4.72898H9.46094V5.33916H10.9864C11.4913 5.33765 11.9002 4.92876 11.9017 4.42388V2.53718C12.322 2.3886 12.5741 1.95884 12.4987 1.51947C12.4233 1.08011 12.0424 0.758972 11.5966 0.758972C11.1508 0.758972 10.7698 1.08011 10.6945 1.51947C10.6191 1.95884 10.8712 2.3886 11.2915 2.53718V4.42388C11.2915 4.59239 11.1549 4.72898 10.9864 4.72898Z" fill="black"/>
<path d="M9.46094 6.55955H12.5119C12.6804 6.55955 12.817 6.42296 12.817 6.25444C12.817 6.08593 12.6804 5.94934 12.5119 5.94934H9.46094V6.55955Z" fill="black"/>
<path d="M9.46094 13.2716H10.9864C11.1549 13.2716 11.2915 13.4081 11.2915 13.5767V15.4634C10.8712 15.6119 10.6191 16.0417 10.6945 16.4811C10.7699 16.9204 11.1508 17.2416 11.5966 17.2416C12.0424 17.2416 12.4233 16.9204 12.4987 16.4811C12.5741 16.0417 12.322 15.6119 11.9017 15.4634V13.5767C11.9002 13.0718 11.4913 12.6629 10.9864 12.6614H9.46097V13.2716H9.46094Z" fill="black"/>
<path d="M14.0373 10.2206H9.46094V10.8308H14.0373C14.2059 10.8308 14.3424 10.9674 14.3424 11.1359V12.7175C13.9222 12.8661 13.6701 13.2959 13.7454 13.7353C13.8208 14.1746 14.2018 14.4958 14.6476 14.4958C15.0933 14.4958 15.4743 14.1746 15.5497 13.7353C15.625 13.2959 15.3729 12.8661 14.9527 12.7175V11.1359C14.9511 10.631 14.5422 10.2221 14.0373 10.2206Z" fill="black"/>
<path d="M17.0883 8.08496C16.7018 8.08656 16.358 8.33075 16.2291 8.69514H9.46094V9.30532H16.2291C16.385 9.743 16.8446 9.99401 17.2971 9.88866C17.7496 9.7833 18.0511 9.35516 17.9976 8.89362C17.9442 8.43211 17.5529 8.08414 17.0883 8.08496Z" fill="black"/>
<path d="M12.817 11.7461C12.817 11.5776 12.6804 11.441 12.5119 11.441H9.46094V12.0512H12.5119C12.6804 12.0512 12.817 11.9147 12.817 11.7461Z" fill="black"/>
<path d="M14.9527 6.86465V5.28303C15.3729 5.13445 15.625 4.70469 15.5497 4.26532C15.4743 3.82596 15.0934 3.50482 14.6476 3.50482C14.2018 3.50482 13.8208 3.82596 13.7454 4.26532C13.6701 4.70469 13.9222 5.13445 14.3424 5.28303V6.86465C14.3424 7.03317 14.2059 7.16976 14.0373 7.16976H9.46094V7.77994H14.0373C14.5423 7.7784 14.9512 7.36951 14.9527 6.86465Z" fill="black"/>
</g>
<defs>
<clipPath id="clip0_337_36">
<rect width="18" height="18" fill="white"/>
</clipPath>
</defs>
</svg>
