<svg width="35" height="38" viewBox="0 0 35 38" fill="none" xmlns="http://www.w3.org/2000/svg">
<path d="M30.0813 20.8555C30.1706 20.245 30.2159 19.6208 30.2159 19C30.2159 11.9903 24.5131 6.2876 17.5035 6.2876C14.8566 6.2876 12.3195 7.09324 10.1664 8.61747C8.06106 10.1079 6.47574 12.1685 5.58185 14.5768C5.47475 14.8653 5.62186 15.1859 5.91034 15.293C6.19868 15.4 6.51938 15.253 6.62648 14.9646C7.442 12.7675 8.88867 10.8872 10.8102 9.52695C12.774 8.13676 15.0885 7.40192 17.5034 7.40192C23.8986 7.40192 29.1015 12.6048 29.1015 19C29.1015 19.567 29.0601 20.137 28.9786 20.6943C28.9341 20.9987 29.1448 21.2817 29.4493 21.3262C29.4766 21.3302 29.5038 21.3321 29.5307 21.3321C29.8028 21.3321 30.0408 21.1327 30.0813 20.8555Z" fill="#212121"/>
<path d="M29.0727 22.775C28.7851 22.6663 28.4633 22.8114 28.3546 23.0992C27.5304 25.28 26.0825 27.1449 24.1674 28.4923C22.2095 29.8699 19.9045 30.598 17.5015 30.598C11.1063 30.598 5.90346 25.3951 5.90346 18.9999C5.90346 18.4594 5.94094 17.916 6.01493 17.3848C6.05746 17.0801 5.84482 16.7986 5.54001 16.7561C5.23489 16.7137 4.95375 16.9263 4.91123 17.2311C4.83018 17.813 4.78906 18.4082 4.78906 18.9999C4.78906 26.0096 10.4918 31.7123 17.5015 31.7123C20.1352 31.7123 22.6619 30.914 24.8085 29.4037C26.9069 27.9273 28.4935 25.8835 29.3968 23.4932C29.5057 23.2053 29.3605 22.8838 29.0727 22.775Z" fill="#212121"/>
<path d="M17.5025 4.92902C17.8102 4.92902 18.0596 4.67957 18.0596 4.37186V0.55716C18.0596 0.249449 17.8102 0 17.5025 0C17.1948 0 16.9453 0.249449 16.9453 0.55716V4.37186C16.9453 4.67957 17.1948 4.92902 17.5025 4.92902Z" fill="#212121"/>
<path d="M17.5025 33.071C17.1948 33.071 16.9453 33.3205 16.9453 33.6282V37.4429C16.9453 37.7506 17.1947 38.0001 17.5025 38.0001C17.8103 38.0001 18.0596 37.7506 18.0596 37.4429V33.6282C18.0596 33.3205 17.8102 33.071 17.5025 33.071Z" fill="#212121"/>
<path d="M9.70474 6.6102C9.80791 6.78892 9.99524 6.88889 10.1878 6.88889C10.2823 6.88889 10.3781 6.86484 10.4659 6.81415C10.7323 6.6603 10.8237 6.31956 10.6698 6.05304L9.85229 4.63709C9.69851 4.37057 9.35762 4.27928 9.09118 4.43314C8.82473 4.58699 8.73337 4.92773 8.88722 5.19425L9.70474 6.6102Z" fill="#212121"/>
<path d="M25.2976 31.3898C25.1438 31.1233 24.8029 31.032 24.5365 31.1858C24.27 31.3397 24.1787 31.6804 24.3325 31.9469L25.1501 33.3629C25.2532 33.5416 25.4405 33.6416 25.6331 33.6416C25.7276 33.6416 25.8234 33.6175 25.9112 33.5668C26.1776 33.413 26.269 33.0722 26.1151 32.8057L25.2976 31.3898Z" fill="#212121"/>
<path d="M2.87189 19.5572C3.1796 19.5572 3.42905 19.3077 3.42905 19C3.42905 18.6923 3.17967 18.4429 2.87189 18.4429H1.23685C0.929137 18.4429 0.679688 18.6923 0.679688 19C0.679688 19.3077 0.929137 19.5572 1.23685 19.5572H2.87189Z" fill="#212121"/>
<path d="M33.7625 18.4429H32.1275C31.8198 18.4429 31.5703 18.6923 31.5703 19C31.5703 19.3077 31.8197 19.5572 32.1275 19.5572H33.7625C34.0702 19.5572 34.3197 19.3077 34.3197 19C34.3197 18.6923 34.0702 18.4429 33.7625 18.4429Z" fill="#212121"/>
<path d="M10.4659 31.1859C10.1992 31.0319 9.85862 31.1233 9.70476 31.3898L8.88724 32.8058C8.73339 33.0724 8.82467 33.4131 9.09119 33.5669C9.179 33.6176 9.27474 33.6417 9.36929 33.6417C9.56181 33.6417 9.74914 33.5417 9.85231 33.363L10.6698 31.947C10.8237 31.6805 10.7323 31.3397 10.4659 31.1859Z" fill="#212121"/>
<path d="M24.5365 6.81423C24.6243 6.86492 24.72 6.88896 24.8146 6.88896C25.0071 6.88896 25.1944 6.78899 25.2976 6.61027L26.1151 5.19425C26.269 4.92773 26.1777 4.58699 25.9112 4.43314C25.6446 4.27928 25.3039 4.37057 25.1501 4.63709L24.3325 6.05304C24.1787 6.31963 24.27 6.66037 24.5365 6.81423Z" fill="#212121"/>
<path d="M1.24743 10.261L4.55113 12.1684C4.63893 12.2191 4.73467 12.2431 4.82922 12.2431C5.02175 12.2431 5.20908 12.1431 5.31224 11.9644C5.4661 11.6979 5.37481 11.3572 5.10829 11.2033L1.80459 9.29597C1.53799 9.14204 1.19733 9.2334 1.04347 9.49992C0.889619 9.76644 0.980983 10.1072 1.24743 10.261Z" fill="#212121"/>
<path d="M33.7489 27.739L30.4452 25.8316C30.1786 25.6777 29.838 25.769 29.6841 26.0356C29.5303 26.3021 29.6215 26.6428 29.8881 26.7967L33.1918 28.704C33.2796 28.7547 33.3753 28.7788 33.4699 28.7788C33.6624 28.7788 33.8497 28.6788 33.9529 28.5001C34.1067 28.2336 34.0154 27.8928 33.7489 27.739Z" fill="#212121"/>
<path d="M4.55113 25.8316L1.24743 27.7389C0.980983 27.8928 0.889619 28.2335 1.04347 28.5C1.14664 28.6788 1.33397 28.7787 1.52649 28.7787C1.62105 28.7787 1.71686 28.7547 1.80459 28.704L5.10829 26.7966C5.37473 26.6428 5.4661 26.3021 5.31224 26.0355C5.15839 25.769 4.8175 25.6777 4.55113 25.8316Z" fill="#212121"/>
<path d="M30.1671 12.2431C30.2617 12.2431 30.3575 12.219 30.4452 12.1683L33.7489 10.261C34.0154 10.1071 34.1067 9.76641 33.9529 9.49989C33.7991 9.23337 33.4582 9.14208 33.1918 9.29593L29.8881 11.2033C29.6216 11.3571 29.5302 11.6979 29.6841 11.9644C29.7873 12.1432 29.9746 12.2431 30.1671 12.2431Z" fill="#212121"/>
</svg>
