<svg width="25" height="18" viewBox="0 0 25 18" fill="none" xmlns="http://www.w3.org/2000/svg">
<path d="M24.3102 2.9073C24.0294 1.86306 23.206 1.03989 22.162 0.758713C20.2545 0.236816 12.6247 0.236816 12.6247 0.236816C12.6247 0.236816 4.99517 0.236816 3.08775 0.738926C2.06374 1.01981 1.22034 1.8632 0.939461 2.9073C0.4375 4.81457 0.4375 8.77 0.4375 8.77C0.4375 8.77 0.4375 12.7454 0.939461 14.6327C1.22064 15.6768 2.04366 16.5 3.08789 16.7811C5.01525 17.3032 12.625 17.3032 12.625 17.3032C12.625 17.3032 20.2545 17.3032 22.162 16.8011C23.2062 16.52 24.0294 15.6969 24.3105 14.6528C24.8124 12.7454 24.8124 8.79008 24.8124 8.79008C24.8124 8.79008 24.8324 4.81457 24.3102 2.9073ZM10.1955 12.4242V5.11583L16.5401 8.77L10.1955 12.4242Z" fill="#212121"/>
</svg>
