<svg width="12" height="22" viewBox="0 0 12 22" fill="none" xmlns="http://www.w3.org/2000/svg">
<path d="M3.51063 12.3515C3.43263 12.3515 1.71663 12.3515 0.936625 12.3515C0.520625 12.3515 0.390625 12.1955 0.390625 11.8055C0.390625 10.7655 0.390625 9.69949 0.390625 8.65949C0.390625 8.24349 0.546625 8.11349 0.936625 8.11349H3.51063C3.51063 8.03549 3.51063 6.52749 3.51063 5.82549C3.51063 4.78549 3.69262 3.79749 4.21262 2.88749C4.75862 1.95149 5.53862 1.32749 6.52662 0.963488C7.17662 0.729488 7.82662 0.625488 8.52862 0.625488H11.0766C11.4406 0.625488 11.5966 0.781488 11.5966 1.14549V4.10949C11.5966 4.47349 11.4406 4.62949 11.0766 4.62949C10.3746 4.62949 9.67262 4.62949 8.97062 4.65549C8.26862 4.65549 7.90462 4.99349 7.90462 5.72149C7.87862 6.50149 7.90462 7.25549 7.90462 8.06149H10.9206C11.3366 8.06149 11.4926 8.21749 11.4926 8.63349V11.7795C11.4926 12.1955 11.3626 12.3255 10.9206 12.3255C9.98462 12.3255 7.98262 12.3255 7.90462 12.3255V20.8015C7.90462 21.2435 7.77462 21.3995 7.30662 21.3995C6.21462 21.3995 5.14862 21.3995 4.05662 21.3995C3.66663 21.3995 3.51063 21.2435 3.51063 20.8535C3.51063 18.1235 3.51063 12.4295 3.51063 12.3515Z" fill="#212121"/>
</svg>
