<svg width="33" height="32" viewBox="0 0 33 32" fill="none" xmlns="http://www.w3.org/2000/svg">
<g clip-path="url(#clip0_402_2)">
<path d="M30.6242 13.2347C30.1431 12.4238 29.2583 11.9202 28.3153 11.9202H27.3778L27.3762 11.9199H26.9911C26.9933 11.8906 27.0028 11.863 27.0028 11.8333V10.0801C27.0028 9.51107 26.576 9.01237 26.008 8.9196L24.7928 8.72591C24.5799 7.88965 24.2482 7.09212 23.8046 6.34733L24.5272 5.34701C24.8641 4.88249 24.8169 4.24544 24.4097 3.8265L23.1646 2.58171C22.7512 2.18001 22.1141 2.13216 21.6486 2.46875L20.6535 3.19173C19.9003 2.74544 19.1011 2.41569 18.2697 2.20801L18.0764 0.994792C17.9846 0.418294 17.4966 0 16.9159 0H15.1626C14.5825 0 14.0946 0.417969 14.0021 0.994466L13.8088 2.20801C12.9755 2.41602 12.1782 2.74544 11.4312 3.19108L10.4315 2.46517C9.96243 2.13346 9.32441 2.18294 8.90904 2.58659L7.66425 3.83138C7.26191 4.24512 7.21438 4.88249 7.55065 5.34635L8.27428 6.34733C7.82831 7.0957 7.49856 7.8929 7.29055 8.72591L6.06855 8.91992C5.50637 9.01172 5.08255 9.51074 5.08255 10.0801V11.8333C5.08255 11.863 5.09199 11.8906 5.0941 11.9199C4.99997 11.9199 3.57222 11.9203 3.65904 11.9202C2.78079 11.9202 1.9569 12.3893 1.5093 13.1442L0.25963 15.25C-0.46542 16.4721 0.413819 18.0189 1.83613 18.0189H2.02265V29.5C2.02265 30.8786 3.14407 32 4.52265 32H27.5627C28.9413 32 30.0627 30.8786 30.0627 29.5V18.0189H30.2437C31.6643 18.0189 32.5463 16.4738 31.8202 15.25L30.6242 13.2347ZM11.3361 11.6266C11.3361 9.03516 13.4475 6.92676 16.0428 6.92676C18.6343 6.92676 20.7427 9.03516 20.7427 11.6266C20.7427 11.726 20.7267 11.8216 20.7206 11.9199C16.3959 11.9199 13.5837 11.9199 11.3583 11.9199C11.3522 11.8216 11.3361 11.726 11.3361 11.6266ZM6.08255 10.0801C6.08255 9.99642 6.14733 9.92025 6.22773 9.90723L7.78111 9.66048C7.98619 9.62793 8.14993 9.47168 8.19225 9.26823C8.38854 8.32357 8.75963 7.42513 9.29576 6.59863C9.40807 6.42546 9.40221 6.20085 9.28144 6.03353L8.36054 4.75977C8.30911 4.6888 8.31757 4.59375 8.37617 4.53353L9.61087 3.29883C9.67858 3.2334 9.77721 3.22721 9.84882 3.27799L11.1154 4.19792C11.2831 4.31966 11.5077 4.3252 11.6815 4.21289C12.507 3.67741 13.4051 3.30599 14.3508 3.1097C14.5542 3.06738 14.7102 2.90397 14.743 2.69889L14.9898 1.15234C15.0034 1.06543 15.078 1 15.1626 1H16.9159C17.0005 1 17.0751 1.06543 17.0887 1.15202L17.3355 2.69889C17.3684 2.90397 17.5243 3.06738 17.7277 3.1097C18.6701 3.30534 19.5712 3.67676 20.4055 4.21387C20.5783 4.3252 20.8026 4.31901 20.9699 4.19792L22.2359 3.27832C22.3068 3.22689 22.4016 3.23503 22.4624 3.29362L23.6975 4.52832C23.7609 4.59375 23.7694 4.6888 23.7173 4.76042L22.7974 6.03353C22.6766 6.20085 22.6708 6.42546 22.7831 6.59863C23.3163 7.42057 23.69 8.31999 23.8937 9.27148C23.937 9.47331 24.1001 9.62793 24.3039 9.66048L25.8485 9.9069C25.9338 9.9209 26.0028 9.99837 26.0028 10.0801V11.8333C26.0028 11.8678 25.9916 11.896 25.9771 11.9199H21.7206C21.7255 11.8214 21.7427 11.7257 21.7427 11.6266C21.7427 8.48372 19.1857 5.92676 16.0428 5.92676C12.896 5.92676 10.3361 8.48372 10.3361 11.6266C10.3361 11.7257 10.3533 11.8214 10.3583 11.9199H6.10346C6.06486 11.8472 6.09013 11.8988 6.08255 10.0801ZM1.11966 15.7604L2.36933 13.6543C2.63789 13.2015 3.13203 12.9202 3.65904 12.9202H10.8654L8.67532 16.6107C8.52591 16.8626 8.25149 17.0189 7.95885 17.0189H1.83613C1.19075 17.0189 0.789365 16.3162 1.11966 15.7604ZM3.02265 29.5V18.0189H7.95885C8.60273 18.0189 9.2069 17.6748 9.53535 17.1211L11.2427 14.2442V31H4.52265C3.6955 31 3.02265 30.3271 3.02265 29.5ZM29.0627 29.5C29.0627 30.3271 28.3898 31 27.5627 31H12.2427V14.2409L13.952 17.1211C14.2805 17.6748 14.8846 18.0189 15.5288 18.0189H29.0627V29.5ZM30.2437 17.0189H15.5288C15.2362 17.0189 14.9615 16.8626 14.812 16.6107L12.6219 12.9202H28.3153C28.9071 12.9202 29.4621 13.2363 29.7642 13.7451L30.9602 15.7604C31.29 16.3155 30.8903 17.0189 30.2437 17.0189Z" fill="#7EEA57"/>
<path d="M21.1276 28.6191H25.4687C26.112 28.6191 26.6354 28.0957 26.6354 27.4525V25.6051C26.6354 24.9619 26.112 24.4385 25.4687 24.4385H21.1276C20.4844 24.4385 19.9609 24.9619 19.9609 25.6051V27.4525C19.9609 28.0957 20.4844 28.6191 21.1276 28.6191ZM20.9609 25.6051C20.9609 25.5133 21.0358 25.4385 21.1276 25.4385H25.4687C25.5605 25.4385 25.6354 25.5133 25.6354 25.6051V27.4525C25.6354 27.5443 25.5605 27.6191 25.4687 27.6191H21.1276C21.0358 27.6191 20.9609 27.5443 20.9609 27.4525V25.6051Z" fill="#7EEA57"/>
</g>
<defs>
<clipPath id="clip0_402_2">
<rect width="33" height="32" fill="white"/>
</clipPath>
</defs>
</svg>
