<svg width="36" height="32" viewBox="0 0 36 32" fill="none" xmlns="http://www.w3.org/2000/svg">
<path d="M20.9617 17.4222V16.7861C22.799 16.5011 24.2099 14.9087 24.2099 12.9928V8.83731C25.2102 8.69354 25.9816 7.83119 25.9816 6.7917C25.9816 5.65195 25.0544 4.72467 23.9146 4.72467H22.1428V0.5906C22.1428 0.264416 21.8784 1.52588e-05 21.5522 1.52588e-05C21.226 1.52588e-05 20.9616 0.264404 20.9616 0.5906V4.72467H14.4653V0.5906C14.4653 0.264416 14.2009 1.52588e-05 13.8747 1.52588e-05C13.5485 1.52588e-05 13.2841 0.264404 13.2841 0.5906V4.72467H11.5123C10.3725 4.72467 9.44531 5.65195 9.44531 6.7917C9.44531 7.83119 10.2167 8.69354 11.2171 8.83731V12.9928C11.2171 14.9087 12.6279 16.5011 14.4653 16.7861V17.4222C14.4653 18.7248 15.525 19.7845 16.8276 19.7845H17.1229V27.1668C17.1229 27.4929 17.3873 27.7573 17.7135 27.7573C18.0397 27.7573 18.304 27.4929 18.304 27.1668V19.7845H18.5993C19.9019 19.7845 20.9617 18.7248 20.9617 17.4222ZM10.6265 6.7917C10.6265 6.30325 11.0239 5.90583 11.5124 5.90583H23.9146C24.4031 5.90583 24.8004 6.30325 24.8004 6.7917C24.8004 7.28016 24.4031 7.67757 23.9146 7.67757H11.5124C11.0239 7.67757 10.6265 7.28016 10.6265 6.7917ZM12.3982 12.9928V8.85873H23.0287V12.9928C23.0287 14.4582 21.8365 15.6504 20.3711 15.6504H15.0558C13.5904 15.6504 12.3982 14.4582 12.3982 12.9928ZM15.6464 17.4222V16.8316H19.7805V17.4222C19.7805 18.0735 19.2506 18.6033 18.5993 18.6033H16.8276C16.1763 18.6033 15.6464 18.0735 15.6464 17.4222Z" fill="#7EEA57"/>
<path d="M34.8475 15.6503H32.4852C25.321 15.6503 19.4924 21.4789 19.4924 28.6431C19.4924 29.1931 19.496 29.745 19.4681 30.2943C19.447 30.7076 19.3351 31.3172 19.6291 31.665C19.914 32.002 20.4587 31.9639 20.8533 31.9385C21.3862 31.9042 21.9103 31.8913 22.4453 31.8913C29.6096 31.8913 35.4381 26.0628 35.4381 18.8985V16.2409C35.4381 15.9147 35.1737 15.6503 34.8475 15.6503ZM34.257 18.8985C34.257 25.4115 28.9583 30.7101 22.4454 30.7101H21.5089L26.9971 25.2219C27.2277 24.9913 27.2277 24.6174 26.9971 24.3867C26.7664 24.1561 26.3925 24.1561 26.1618 24.3867L20.6736 29.8749V28.6431C20.6736 22.1302 25.9723 16.8315 32.4852 16.8315H34.257V18.8985Z" fill="#7EEA57"/>
<path d="M15.7645 31.6005C16.0671 31.2134 16.0186 30.6478 15.9865 30.1889C15.9504 29.6719 15.9457 29.1617 15.9457 28.6431C15.9457 21.4789 10.1172 15.6503 2.9529 15.6503H0.590586C0.264402 15.6503 0 15.9147 0 16.2409V18.8985C0 26.0627 5.82844 31.8912 12.9926 31.8913C13.7126 31.8913 14.4589 32.1002 15.1737 31.9386C15.4566 31.8746 15.6431 31.7559 15.7645 31.6005ZM1.18116 18.8985V16.8315H2.9529C9.46585 16.8315 14.7645 22.1302 14.7645 28.6431V29.8749L9.27635 24.3867C9.04566 24.1561 8.67177 24.1561 8.44107 24.3867C8.21045 24.6173 8.21045 24.9913 8.44107 25.2219L13.9293 30.7101H12.9928C6.47983 30.7101 1.18116 25.4115 1.18116 18.8985Z" fill="#7EEA57"/>
</svg>
