<svg width="22" height="22" viewBox="0 0 22 22" fill="none" xmlns="http://www.w3.org/2000/svg">
<path d="M10.9971 6.43304C8.43528 6.43304 6.35156 8.51715 6.35156 11.0786C6.35156 13.64 8.43567 15.7245 10.9971 15.7245C13.5585 15.7245 15.6426 13.6404 15.6426 11.0786C15.6426 8.51676 13.5585 6.43304 10.9971 6.43304Z" fill="black"/>
<path d="M11.2829 3.83586V0.282071C11.2829 0.1265 11.1564 0 11.0008 0C10.8453 0 10.7188 0.1265 10.7188 0.282071V3.83586C10.7188 3.99143 10.8453 4.11793 11.0008 4.11793C11.1564 4.11793 11.2829 3.99143 11.2829 3.83586Z" fill="black"/>
<path d="M16.8417 4.75675L15.8635 5.73496C15.7538 5.84496 15.7538 6.02371 15.8635 6.13371C15.9738 6.24371 16.1526 6.24371 16.2626 6.13371L17.2408 5.1555C17.3504 5.0455 17.3504 4.86675 17.2408 4.75635C17.1312 4.64596 16.9521 4.64635 16.8421 4.75635L16.8417 4.75675Z" fill="black"/>
<path d="M5.73229 15.8663L4.75408 16.8446C4.64447 16.9546 4.64447 17.1333 4.75408 17.2433C4.86447 17.3533 5.04322 17.3533 5.15322 17.2433L6.13104 16.2651C6.24065 16.1551 6.24065 15.9763 6.13104 15.8663C6.02458 15.7599 5.83915 15.7599 5.73229 15.8663Z" fill="black"/>
<path d="M16.2626 15.8663C16.153 15.7567 15.9742 15.7563 15.8635 15.8663C15.7538 15.9763 15.7538 16.1551 15.8635 16.2655L16.8413 17.2433C16.9509 17.3529 17.1304 17.3533 17.2404 17.2433C17.35 17.1333 17.35 16.9546 17.2404 16.8442L16.2626 15.8663Z" fill="black"/>
<path d="M4.75408 4.75672C4.64447 4.86672 4.64447 5.04547 4.75408 5.15586L5.7319 6.13369C5.83837 6.24015 6.02419 6.24015 6.13026 6.13369C6.24026 6.02369 6.24026 5.84454 6.13026 5.73454L5.15244 4.75633C5.04283 4.64633 4.86408 4.64633 4.75329 4.75633L4.75408 4.75672Z" fill="black"/>
<path d="M11.0008 17.8821C10.8453 17.8821 10.7188 18.0086 10.7188 18.1642V21.7179C10.7188 21.8735 10.8453 22 11.0008 22C11.1564 22 11.2829 21.8735 11.2829 21.7179V18.1642C11.2829 18.0086 11.1564 17.8821 11.0008 17.8821Z" fill="black"/>
<path d="M21.7187 10.718H18.1649C18.0093 10.718 17.8828 10.8445 17.8828 11C17.8828 11.1556 18.0093 11.2821 18.1649 11.2821H21.7187C21.8742 11.2821 22.0007 11.1556 22.0007 11C22.0007 10.8445 21.8742 10.718 21.7187 10.718Z" fill="black"/>
<path d="M3.83586 10.718H0.282071C0.1265 10.718 0 10.8445 0 11C0 11.1556 0.1265 11.2821 0.282071 11.2821H3.83586C3.99143 11.2821 4.11793 11.1556 4.11793 11C4.11793 10.8445 3.99143 10.718 3.83586 10.718Z" fill="black"/>
</svg>
