<svg width="22" height="22" viewBox="0 0 22 22" fill="none" xmlns="http://www.w3.org/2000/svg">
<path d="M10.8252 7.02637C8.63256 7.02637 6.85156 8.80737 6.85156 11C6.85156 13.1927 8.63256 14.978 10.8252 14.978C13.0179 14.978 14.8032 13.1927 14.8032 11C14.8032 8.80737 13.0179 7.02637 10.8252 7.02637Z" fill="#212121"/>
<path d="M16.8229 0.16748H4.82819C2.16319 0.16748 -0.0078125 2.33848 -0.0078125 5.00348V16.9981C-0.0078125 19.6675 2.16319 21.8341 4.82819 21.8341H16.8229C19.4922 21.8341 21.6589 19.6675 21.6589 16.9981V5.00348C21.6589 2.33848 19.4922 0.16748 16.8229 0.16748ZM10.8255 18.0208C6.95585 18.0208 3.80552 14.8705 3.80552 11.0008C3.80552 7.13115 6.95585 3.98515 10.8255 3.98515C14.6952 3.98515 17.8455 7.13115 17.8455 11.0008C17.8455 14.8705 14.6952 18.0208 10.8255 18.0208ZM17.9929 5.25915C17.1739 5.25915 16.5065 4.59615 16.5065 3.77715C16.5065 2.95815 17.1739 2.29081 17.9929 2.29081C18.8119 2.29081 19.4792 2.95815 19.4792 3.77715C19.4792 4.59615 18.8119 5.25915 17.9929 5.25915Z" fill="#212121"/>
</svg>
