<svg width="44" height="46" viewBox="0 0 44 46" fill="none" xmlns="http://www.w3.org/2000/svg">
<path fill-rule="evenodd" clip-rule="evenodd" d="M7.97538 43.3498C4.37121 44.9352 1.97954 45.3935 1.97954 45.3935C1.13371 45.5581 0.312877 45.006 0.14621 44.1602C-0.0183731 43.3144 0.533711 42.4914 1.37954 42.3269C1.37954 42.3269 3.33371 41.9373 6.33788 40.6519C6.33996 41.4435 6.37121 41.8894 6.37121 41.8894C6.42538 42.6498 7.02329 43.2602 7.78163 43.3331C7.84621 43.3394 7.91079 43.3435 7.97538 43.3498Z" fill="#212121"/>
<path fill-rule="evenodd" clip-rule="evenodd" d="M12.7375 15.5353C9.8042 19.0833 7.87503 22.9624 6.60836 26.6333C2.95211 21.802 2.56461 16.0541 3.26253 11.227C4.06253 5.68742 6.28336 1.42076 6.28336 1.42076C6.62503 0.758256 7.38753 0.431172 8.1042 0.639506C14.1834 2.39784 18.5625 5.01659 21.7084 8.02076C19.4792 9.29367 17.5354 10.7353 15.8375 12.2812C15.5771 12.5187 15.3229 12.7603 15.0729 13.002C14.9 12.5666 14.7354 12.127 14.575 11.6812C14.2834 10.8708 13.3875 10.4478 12.5771 10.7395C11.7646 11.0312 11.3417 11.9249 11.6334 12.7374C11.9771 13.6916 12.3459 14.6249 12.7375 15.5353Z" fill="#7EEA57"/>
<path fill-rule="evenodd" clip-rule="evenodd" d="M6.33604 40.6519C6.32562 36.5374 7.1152 23.0603 17.259 13.8228C22.4173 9.12277 29.9965 5.48527 41.1652 4.79985C41.909 4.75402 42.5819 5.24152 42.7715 5.96235C42.7715 5.96235 44.6985 13.2353 43.5465 21.354C42.761 26.8915 40.5465 32.7978 35.4506 37.1519C30.1277 41.7019 21.584 44.6103 7.97354 43.3499C13.8235 40.7769 22.8715 35.2353 30.0819 23.8644C30.5423 23.1353 30.3256 22.1686 29.5985 21.7082C28.8694 21.2457 27.9027 21.4624 27.4423 22.1894C20.484 33.1644 11.7215 38.3457 6.33604 40.6519Z" fill="#212121"/>
</svg>
