<svg width="42" height="42" viewBox="0 0 42 42" fill="none" xmlns="http://www.w3.org/2000/svg">
<g clip-path="url(#clip0_284_541)">
<path d="M33.25 22.75C33.0487 22.75 32.8492 22.6817 32.6865 22.5435C32.3522 22.2635 24.5 15.5645 24.5 8.75C24.5 3.92525 28.4253 0 33.25 0C38.0747 0 42 3.92525 42 8.75C42 15.5645 34.1478 22.2635 33.8135 22.5435C33.6508 22.6817 33.4513 22.75 33.25 22.75ZM33.25 1.75C29.3895 1.75 26.25 4.8895 26.25 8.75C26.25 13.769 31.4948 19.068 33.25 20.699C35.0052 19.0662 40.25 13.769 40.25 8.75C40.25 4.8895 37.1105 1.75 33.25 1.75Z" fill="#7EEA57"/>
<path d="M33.25 12.25C31.3197 12.25 29.75 10.6803 29.75 8.75C29.75 6.81975 31.3197 5.25 33.25 5.25C35.1803 5.25 36.75 6.81975 36.75 8.75C36.75 10.6803 35.1803 12.25 33.25 12.25ZM33.25 7C32.2857 7 31.5 7.784 31.5 8.75C31.5 9.716 32.2857 10.5 33.25 10.5C34.2143 10.5 35 9.716 35 8.75C35 7.784 34.2143 7 33.25 7Z" fill="#7EEA57"/>
<path d="M5.25 40.25C5.0435 40.25 4.83525 40.1765 4.669 40.0295C4.48 39.8615 0 35.8488 0 31.7188C0 28.7035 2.3555 26.25 5.25 26.25C8.1445 26.25 10.5 28.7035 10.5 31.7188C10.5 35.8488 6.02 39.8615 5.831 40.0295C5.66475 40.1765 5.4565 40.25 5.25 40.25ZM5.25 28C3.31975 28 1.75 29.6677 1.75 31.7188C1.75 34.279 4.123 37.0055 5.25 38.157C6.377 37.0073 8.75 34.279 8.75 31.7188C8.75 29.6677 7.18025 28 5.25 28Z" fill="#7EEA57"/>
<path d="M27.8495 42H5.25C4.767 42 4.375 41.608 4.375 41.125C4.375 40.642 4.767 40.25 5.25 40.25H27.8495C28.406 40.25 28.6143 39.823 28.665 39.6917C28.7157 39.5605 28.8488 39.102 28.4375 38.7275L15.8865 27.3175C15.078 26.5807 14.8103 25.4467 15.204 24.4282C15.5978 23.408 16.5585 22.75 17.6505 22.75H33.25C33.733 22.75 34.125 23.142 34.125 23.625C34.125 24.108 33.733 24.5 33.25 24.5H17.6505C17.094 24.5 16.8858 24.927 16.835 25.0583C16.7843 25.1895 16.6513 25.648 17.0625 26.0225L29.6135 37.4325C30.422 38.1692 30.6898 39.3033 30.296 40.3218C29.9023 41.342 28.9415 42 27.8495 42Z" fill="#7EEA57"/>
<path d="M5.25 33.25C4.28575 33.25 3.5 32.466 3.5 31.5C3.5 30.534 4.28575 29.75 5.25 29.75C6.21425 29.75 7 30.534 7 31.5C7 32.466 6.21425 33.25 5.25 33.25Z" fill="#7EEA57"/>
</g>
<defs>
<clipPath id="clip0_284_541">
<rect width="42" height="42" fill="white"/>
</clipPath>
</defs>
</svg>
