<svg width="52" height="32" viewBox="0 0 52 32" fill="none" xmlns="http://www.w3.org/2000/svg">
<path d="M45.8656 21.3333H5.33229C4.74349 21.3333 4.26562 20.8555 4.26562 20.2667V1.06667C4.26562 0.477867 4.74349 0 5.33229 0H45.8656C46.4544 0 46.9323 0.477867 46.9323 1.06667V20.2667C46.9323 20.8555 46.4544 21.3333 45.8656 21.3333ZM6.39896 19.2H44.799V2.13333H6.39896V19.2Z" fill="#7EEA57"/>
<path d="M12.801 17.0667C12.2122 17.0667 11.7344 16.5888 11.7344 16V5.33333C11.7344 4.74453 12.2122 4.26666 12.801 4.26666C13.3898 4.26666 13.8677 4.74453 13.8677 5.33333V16C13.8677 16.5888 13.3898 17.0667 12.801 17.0667Z" fill="#7EEA57"/>
<path d="M21.3323 17.0667C20.7435 17.0667 20.2656 16.5888 20.2656 16V5.33333C20.2656 4.74453 20.7435 4.26666 21.3323 4.26666C21.9211 4.26666 22.399 4.74453 22.399 5.33333V16C22.399 16.5888 21.9211 17.0667 21.3323 17.0667Z" fill="#7EEA57"/>
<path d="M29.8635 17.0667C29.2747 17.0667 28.7969 16.5888 28.7969 16V5.33333C28.7969 4.74453 29.2747 4.26666 29.8635 4.26666C30.4523 4.26666 30.9302 4.74453 30.9302 5.33333V16C30.9302 16.5888 30.4523 17.0667 29.8635 17.0667Z" fill="#7EEA57"/>
<path d="M38.4026 17.0667C37.8138 17.0667 37.3359 16.5888 37.3359 16V5.33333C37.3359 4.74453 37.8138 4.26666 38.4026 4.26666C38.9914 4.26666 39.4693 4.74453 39.4693 5.33333V16C39.4693 16.5888 38.9914 17.0667 38.4026 17.0667Z" fill="#7EEA57"/>
<path d="M50.1333 25.6H1.06667C0.477867 25.6 0 25.1221 0 24.5333C0 23.9445 0.477867 23.4667 1.06667 23.4667H50.1333C50.7221 23.4667 51.2 23.9445 51.2 24.5333C51.2 25.1221 50.7221 25.6 50.1333 25.6Z" fill="#7EEA57"/>
<path d="M8.53229 32C6.17922 32 4.26562 30.0864 4.26562 27.7333C4.26562 25.3803 6.17922 23.4667 8.53229 23.4667C10.8854 23.4667 12.799 25.3803 12.799 27.7333C12.799 30.0864 10.8854 32 8.53229 32ZM8.53229 25.6C7.35683 25.6 6.39896 26.5557 6.39896 27.7333C6.39896 28.9109 7.35683 29.8667 8.53229 29.8667C9.70776 29.8667 10.6656 28.9109 10.6656 27.7333C10.6656 26.5557 9.70776 25.6 8.53229 25.6Z" fill="#7EEA57"/>
<path d="M14.9307 32C12.5777 32 10.6641 30.0864 10.6641 27.7333C10.6641 25.3803 12.5777 23.4667 14.9307 23.4667C17.2838 23.4667 19.1974 25.3803 19.1974 27.7333C19.1974 30.0864 17.2838 32 14.9307 32ZM14.9307 25.6C13.7553 25.6 12.7974 26.5557 12.7974 27.7333C12.7974 28.9109 13.7553 29.8667 14.9307 29.8667C16.1062 29.8667 17.0641 28.9109 17.0641 27.7333C17.0641 26.5557 16.1062 25.6 14.9307 25.6Z" fill="#7EEA57"/>
<path d="M36.2667 32C33.9136 32 32 30.0864 32 27.7333C32 25.3803 33.9136 23.4667 36.2667 23.4667C38.6197 23.4667 40.5333 25.3803 40.5333 27.7333C40.5333 30.0864 38.6197 32 36.2667 32ZM36.2667 25.6C35.0912 25.6 34.1333 26.5557 34.1333 27.7333C34.1333 28.9109 35.0912 29.8667 36.2667 29.8667C37.4421 29.8667 38.4 28.9109 38.4 27.7333C38.4 26.5557 37.4421 25.6 36.2667 25.6Z" fill="#7EEA57"/>
<path d="M42.6651 32C40.312 32 38.3984 30.0864 38.3984 27.7333C38.3984 25.3803 40.312 23.4667 42.6651 23.4667C45.0182 23.4667 46.9318 25.3803 46.9318 27.7333C46.9318 30.0864 45.0182 32 42.6651 32ZM42.6651 25.6C41.4896 25.6 40.5318 26.5557 40.5318 27.7333C40.5318 28.9109 41.4896 29.8667 42.6651 29.8667C43.8406 29.8667 44.7984 28.9109 44.7984 27.7333C44.7984 26.5557 43.8406 25.6 42.6651 25.6Z" fill="#7EEA57"/>
</svg>
