<svg width="24" height="24" viewBox="0 0 24 24" fill="none" xmlns="http://www.w3.org/2000/svg">
<path fill-rule="evenodd" clip-rule="evenodd" d="M11.9897 0C14.0042 0 15.6402 1.69412 15.6402 3.78028C15.6402 4.76035 15.2886 5.64241 14.6938 6.31446C13.6257 7.54655 12.5711 9.21268 12.5711 10.8928V12.0689L13.6527 11.7049C15.1805 11.1868 16.3973 9.61871 17.1815 8.1766C17.6141 7.39254 18.3172 6.7625 19.2095 6.45447C21.1294 5.81043 23.1845 6.88851 23.82 8.86265C24.4419 10.8508 23.4008 12.979 21.4945 13.637C20.6021 13.945 19.6692 13.861 18.8715 13.497C17.4113 12.8249 15.5455 12.3069 14.0042 12.8249L12.9226 13.189L13.5986 14.127C14.5586 15.4851 16.3703 16.1852 17.9386 16.5212C18.7904 16.7032 19.5881 17.2073 20.156 17.9913C21.3457 19.6714 20.9942 22.0376 19.3718 23.2697C17.7493 24.5018 15.4644 24.1378 14.2746 22.4576C13.7203 21.6736 13.4904 20.7355 13.5851 19.8395C13.7473 18.1873 13.6392 16.1992 12.6792 14.8411L12.0032 13.889L11.3272 14.8411C10.3673 16.1992 10.2591 18.1873 10.4213 19.8395C10.516 20.7355 10.2861 21.6736 9.73181 22.4576C8.54202 24.1378 6.25709 24.5018 4.63465 23.2697C3.01222 22.0376 2.66069 19.6714 3.85048 17.9913C4.40481 17.2073 5.20251 16.7032 6.06781 16.5212C7.63616 16.1852 9.44788 15.4851 10.4078 14.127L11.0838 13.189L10.0022 12.8249C8.4609 12.3069 6.5951 12.8249 5.13491 13.497C4.33721 13.861 3.40431 13.945 2.51197 13.637C0.592086 12.993 -0.448977 10.8508 0.186477 8.86265C0.808411 6.8745 2.87702 5.79642 4.7969 6.45447C5.68924 6.7625 6.39229 7.39254 6.82494 8.1766C7.62264 9.61871 8.82595 11.1728 10.3673 11.7049L11.4489 12.0689V10.8928C11.4489 9.21268 10.3943 7.53255 9.3262 6.31446C8.74482 5.64241 8.37978 4.74635 8.37978 3.78028C8.33922 1.69412 9.97517 0 11.9897 0Z" fill="#D3D3D3"/>
</svg>
