<svg width="25" height="24" viewBox="0 0 25 24" fill="none" xmlns="http://www.w3.org/2000/svg">
<path d="M23.2176 10.5C22.8145 10.0968 22.2848 9.87651 21.7176 9.87651C19.5707 9.87651 17.452 10.2234 15.4176 10.9125L14.4707 11.2312C14.4145 11.25 14.3816 11.1703 14.4332 11.1468L15.3332 10.7015C17.2598 9.74995 19.0035 8.49839 20.5223 6.97964C20.9207 6.5812 21.141 6.06089 21.1457 5.50776C21.1598 4.34526 20.2129 3.37495 19.0504 3.3562C18.4738 3.34683 17.9301 3.57183 17.5223 3.97964C16.0035 5.49839 14.752 7.24214 13.8004 9.1687L13.3551 10.0687C13.327 10.1203 13.252 10.0875 13.2707 10.0312L13.5895 9.08433C14.2785 7.04995 14.6254 4.9312 14.6254 2.78433C14.6254 2.21714 14.4051 1.68276 14.002 1.28433C13.5988 0.881201 13.0691 0.660889 12.502 0.660889C11.9348 0.660889 11.4004 0.881201 11.002 1.28433C10.5988 1.68745 10.3785 2.21714 10.3785 2.78433C10.3785 4.9312 10.7254 7.04995 11.4145 9.08433L11.7332 10.0312C11.752 10.0875 11.6723 10.1203 11.6488 10.0687L11.2035 9.1687C10.252 7.24214 9.00039 5.49839 7.48164 3.97964C7.0832 3.5812 6.56289 3.36089 6.00977 3.3562C4.84258 3.34214 3.87227 4.28901 3.8582 5.45151C3.84883 6.02808 4.07383 6.57183 4.48164 6.97964C6.00039 8.49839 7.74414 9.74995 9.6707 10.7015L10.5707 11.1468C10.6223 11.175 10.5895 11.25 10.5332 11.2312L9.58633 10.9125C7.55195 10.2234 5.4332 9.87651 3.28633 9.87651C2.71914 9.87651 2.18477 10.0968 1.78633 10.5C0.956641 11.3296 0.956641 12.675 1.78633 13.5046C2.18945 13.9078 2.71914 14.1281 3.28633 14.1281C5.4332 14.1281 7.55195 13.7812 9.58633 13.0921L10.5332 12.7734C10.5895 12.7546 10.6223 12.8343 10.5707 12.8578L9.6707 13.3031C7.74414 14.2546 6.00039 15.5062 4.48164 17.025C4.0832 17.4234 3.86289 17.9437 3.8582 18.4968C3.84414 19.6593 4.79102 20.6296 5.95352 20.6484C6.53008 20.6578 7.07383 20.4328 7.48164 20.025C9.00039 18.5062 10.252 16.7625 11.2035 14.8359L11.6488 13.9359C11.677 13.8843 11.752 13.9171 11.7332 13.9734L11.4145 14.9203C10.7254 16.9546 10.3785 19.0734 10.3785 21.2203C10.3785 21.7875 10.5988 22.3218 11.002 22.7203C11.4051 23.1234 11.9348 23.3437 12.502 23.3437C13.0691 23.3437 13.6035 23.1234 14.002 22.7203C14.4051 22.3171 14.6254 21.7875 14.6254 21.2203C14.6254 19.0734 14.2785 16.9546 13.5895 14.9203L13.2707 13.9734C13.252 13.9171 13.3316 13.8843 13.3551 13.9359L13.8004 14.8359C14.752 16.7625 16.0035 18.5062 17.5223 20.025C17.9207 20.4234 18.441 20.6437 18.9941 20.6484C20.1566 20.6625 21.127 19.7156 21.1457 18.5531C21.1551 17.9765 20.9301 17.4328 20.5223 17.025C19.0035 15.5062 17.2598 14.2546 15.3332 13.3031L14.4332 12.8578C14.3816 12.8296 14.4145 12.7546 14.4707 12.7734L15.4176 13.0921C17.452 13.7812 19.5707 14.1281 21.7176 14.1281C22.2848 14.1281 22.8191 13.9078 23.2176 13.5046C24.0473 12.675 24.0473 11.325 23.2176 10.5Z" fill="#D3D3D3"/>
</svg>
