<svg width="24" height="24" viewBox="0 0 24 24" fill="none" xmlns="http://www.w3.org/2000/svg">
<g clip-path="url(#clip0_284_354)">
<path d="M15.7036 13.725L12.638 12.2109C12.4645 12.1265 12.4645 11.8781 12.638 11.789L15.7036 10.275C18.2067 9.03748 20.4755 7.41561 22.4583 5.44217C22.9645 4.93592 23.2833 4.26561 23.3114 3.55311C23.3723 1.94998 22.0505 0.628107 20.4473 0.689045C19.7348 0.71717 19.0598 1.03592 18.5583 1.54217C16.5942 3.52029 14.963 5.79373 13.7255 8.29686L12.2114 11.3625C12.127 11.5359 11.8786 11.5359 11.7895 11.3625L10.2755 8.29686C9.03797 5.79373 7.4161 3.52498 5.44266 1.54217C4.93641 1.03592 4.2661 0.71717 3.5536 0.689045C1.95047 0.628107 0.628595 1.94529 0.689533 3.55311C0.717658 4.26561 1.03641 4.94061 1.54266 5.44217C3.52078 7.40623 5.79422 9.03748 8.29735 10.275L11.363 11.789C11.5364 11.8734 11.5364 12.1219 11.363 12.2109L8.29735 13.725C5.79422 14.9625 3.52547 16.5844 1.54266 18.5578C1.03641 19.064 0.717658 19.7344 0.689533 20.4469C0.628595 22.05 1.94578 23.3719 3.5536 23.3109C4.2661 23.2828 4.9411 22.964 5.44266 22.4578C7.40672 20.4797 9.03797 18.2062 10.2755 15.7031L11.7895 12.6375C11.8739 12.464 12.1223 12.464 12.2114 12.6375L13.7255 15.7031C14.963 18.2062 16.5848 20.475 18.5583 22.4578C19.0645 22.964 19.7348 23.2828 20.4473 23.3109C22.0505 23.3719 23.3723 22.05 23.3114 20.4469C23.2833 19.7344 22.9645 19.0594 22.4583 18.5578C20.4755 16.5844 18.2067 14.9625 15.7036 13.725Z" fill="#D3D3D3"/>
</g>
<defs>
<clipPath id="clip0_284_354">
<rect width="24" height="24" fill="white"/>
</clipPath>
</defs>
</svg>
