<svg width="121" height="20" viewBox="0 0 121 20" fill="none" xmlns="http://www.w3.org/2000/svg">
<path fill-rule="evenodd" clip-rule="evenodd" d="M3.45761 18.8199C1.87177 19.5175 0.819438 19.7192 0.819438 19.7192C0.447268 19.7916 0.0861082 19.5487 0.0127682 19.1765C-0.0596418 18.8043 0.183268 18.4423 0.555438 18.3698C0.555438 18.3698 1.41527 18.1984 2.73711 17.6328C2.73802 17.9812 2.75177 18.1773 2.75177 18.1773C2.77561 18.5119 3.03869 18.7805 3.37236 18.8126C3.40077 18.8153 3.42919 18.8172 3.45761 18.8199Z" fill="#212121"/>
<path fill-rule="evenodd" clip-rule="evenodd" d="M5.56045 6.58157C4.26979 8.14267 3.42095 9.84957 2.86362 11.4647C1.25487 9.33897 1.08437 6.80987 1.39145 4.68594C1.74345 2.24852 2.72062 0.371188 2.72062 0.371188C2.87095 0.0796884 3.20645 -0.0642316 3.52179 0.0274384C6.19662 0.801108 8.12345 1.95336 9.50764 3.27519C8.52674 3.83527 7.67154 4.46961 6.92445 5.14977C6.80987 5.25427 6.69804 5.36061 6.58804 5.46697C6.51195 5.27536 6.43954 5.08194 6.36895 4.88577C6.24062 4.52919 5.84645 4.34311 5.48987 4.47144C5.13237 4.59977 4.94629 4.99302 5.07462 5.35052C5.22587 5.77037 5.38812 6.18107 5.56045 6.58157Z" fill="#7EEA57"/>
<path fill-rule="evenodd" clip-rule="evenodd" d="M2.73442 17.6331C2.72984 15.8227 3.07725 9.89281 7.5405 5.82831C9.81014 3.76033 13.145 2.15983 18.0592 1.85824C18.3865 1.83808 18.6825 2.05258 18.766 2.36974C18.766 2.36974 19.6139 5.56981 19.107 9.14211C18.7614 11.5786 17.787 14.1773 15.5448 16.0931C13.2027 18.0951 9.44354 19.3748 3.45492 18.8202C6.02892 17.6881 10.01 15.2498 13.1825 10.2466C13.3851 9.92581 13.2898 9.50051 12.9699 9.29791C12.649 9.09441 12.2237 9.18971 12.0211 9.50961C8.95954 14.3386 5.104 16.6184 2.73442 17.6331Z" fill="#212121"/>
<path d="M27.5469 1.69886H30.7429L36.2997 15.267H36.5043L42.0611 1.69886H45.2571V19.1534H42.7514V6.52271H42.5895L37.4418 19.1278H35.3622L30.2145 6.51421H30.0526V19.1534H27.5469V1.69886ZM48.8814 19.1534V6.0625H51.4297V19.1534H48.8814ZM50.1683 4.04261C49.7252 4.04261 49.3445 3.89489 49.0263 3.59943C48.7138 3.2983 48.5575 2.94034 48.5575 2.52557C48.5575 2.10511 48.7138 1.74716 49.0263 1.4517C49.3445 1.15057 49.7252 1 50.1683 1C50.6115 1 50.9894 1.15057 51.3019 1.4517C51.62 1.74716 51.7791 2.10511 51.7791 2.52557C51.7791 2.94034 51.62 3.2983 51.3019 3.59943C50.9894 3.89489 50.6115 4.04261 50.1683 4.04261ZM66.0568 6.0625L61.3097 19.1534H58.5824L53.8267 6.0625H56.5625L59.8779 16.1364H60.0142L63.321 6.0625H66.0568ZM73.5206 19.4176C72.2933 19.4176 71.2223 19.1364 70.3075 18.5739C69.3928 18.0114 68.6825 17.2244 68.1769 16.2131C67.6712 15.2017 67.4183 14.0199 67.4183 12.6676C67.4183 11.3096 67.6712 10.1221 68.1769 9.10511C68.6825 8.08811 69.3928 7.29831 70.3075 6.73581C71.2223 6.17331 72.2933 5.89205 73.5206 5.89205C74.7479 5.89205 75.8189 6.17331 76.7337 6.73581C77.6485 7.29831 78.3587 8.08811 78.8644 9.10511C79.37 10.1221 79.6229 11.3096 79.6229 12.6676C79.6229 14.0199 79.37 15.2017 78.8644 16.2131C78.3587 17.2244 77.6485 18.0114 76.7337 18.5739C75.8189 19.1364 74.7479 19.4176 73.5206 19.4176ZM73.5291 17.2784C74.3246 17.2784 74.9837 17.0682 75.5064 16.6477C76.0291 16.2273 76.4155 15.6676 76.6655 14.9687C76.9212 14.2699 77.049 13.5 77.049 12.6591C77.049 11.8239 76.9212 11.0568 76.6655 10.3579C76.4155 9.65341 76.0291 9.08811 75.5064 8.66191C74.9837 8.23581 74.3246 8.02271 73.5291 8.02271C72.728 8.02271 72.0632 8.23581 71.5348 8.66191C71.0121 9.08811 70.6229 9.65341 70.3672 10.3579C70.1172 11.0568 69.9922 11.8239 69.9922 12.6591C69.9922 13.5 70.1172 14.2699 70.3672 14.9687C70.6229 15.6676 71.0121 16.2273 71.5348 16.6477C72.0632 17.0682 72.728 17.2784 73.5291 17.2784ZM82.4673 19.1534V6.0625H84.9304V8.14201H85.0668C85.3054 7.43751 85.7259 6.88351 86.3281 6.48011C86.9361 6.07102 87.6236 5.86648 88.3906 5.86648C88.5497 5.86648 88.7372 5.87216 88.9531 5.88352C89.1747 5.89489 89.348 5.90909 89.473 5.92614V8.36361C89.3708 8.33521 89.1889 8.30401 88.9276 8.26991C88.6662 8.23011 88.4048 8.21021 88.1435 8.21021C87.5412 8.21021 87.0043 8.33811 86.5327 8.59371C86.0668 8.84371 85.6975 9.19321 85.4247 9.64201C85.152 10.0852 85.0156 10.5909 85.0156 11.1591V19.1534H82.4673ZM95.3708 19.4432C94.5412 19.4432 93.7912 19.2898 93.1208 18.9829C92.4503 18.6704 91.919 18.2187 91.527 17.6278C91.1406 17.0369 90.9475 16.3125 90.9475 15.4545C90.9475 14.7159 91.0895 14.1079 91.3736 13.6307C91.6577 13.1534 92.0412 12.7756 92.5242 12.4972C93.0071 12.2187 93.5469 12.0085 94.1435 11.8665C94.7401 11.7244 95.348 11.6165 95.9673 11.5426C96.7514 11.4517 97.3878 11.3778 97.8764 11.321C98.3649 11.2585 98.7199 11.1591 98.9419 11.0227C99.1629 10.8864 99.2739 10.6648 99.2739 10.3579V10.2983C99.2739 9.55401 99.0639 8.97731 98.6439 8.56821C98.2287 8.15911 97.6094 7.95451 96.7855 7.95451C95.9276 7.95451 95.2514 8.14491 94.7571 8.52561C94.2685 8.90061 93.9304 9.31821 93.7429 9.77841L91.348 9.23291C91.6321 8.43751 92.0469 7.79541 92.5923 7.30681C93.1435 6.81251 93.777 6.45451 94.4929 6.23291C95.2088 6.00568 95.9617 5.89205 96.7514 5.89205C97.2742 5.89205 97.8281 5.95455 98.4129 6.07955C99.0039 6.19891 99.5559 6.42041 100.067 6.74431C100.584 7.06821 101.007 7.53121 101.337 8.13351C101.666 8.73011 101.831 9.50571 101.831 10.4602V19.1534H99.3419V17.3636H99.2399C99.0749 17.6932 98.8279 18.017 98.4989 18.3352C98.169 18.6534 97.7458 18.9176 97.2287 19.1278C96.7117 19.3381 96.0923 19.4432 95.3708 19.4432ZM95.9247 17.3977C96.6293 17.3977 97.2315 17.2585 97.7315 16.9801C98.2372 16.7017 98.6209 16.3381 98.8819 15.8892C99.1489 15.4346 99.2829 14.9489 99.2829 14.4318V12.7443C99.1919 12.8352 99.0159 12.9204 98.7539 13C98.4989 13.0739 98.206 13.1392 97.8764 13.196C97.5469 13.2471 97.2259 13.2954 96.9134 13.3409C96.6009 13.3807 96.3395 13.4148 96.1293 13.4432C95.635 13.5057 95.1833 13.6108 94.7742 13.7585C94.3708 13.9062 94.0469 14.1193 93.8026 14.3977C93.5639 14.6704 93.4446 15.0341 93.4446 15.4886C93.4446 16.1193 93.6776 16.5966 94.1435 16.9204C94.6094 17.2386 95.2031 17.3977 95.9247 17.3977Z" fill="#212121"/>
<path d="M106.016 2.23162V1.17139H111.587V2.23162H109.429V8.15321H108.174V2.23162H106.016ZM112.949 1.17139H114.496L116.569 6.23048H116.651L118.724 1.17139H120.271V8.15321H119.058V3.35662H118.993L117.063 8.13276H116.156L114.227 3.34639H114.162V8.15321H112.949V1.17139Z" fill="#212121"/>
</svg>
