<svg width="108" height="26" viewBox="0 0 108 26" fill="none" xmlns="http://www.w3.org/2000/svg">
<g clip-path="url(#clip0_284_1192)">
<path d="M54.8865 4.04485C52.9564 5.17354 51.1425 6.51626 49.4441 8.07303C47.7457 9.59091 46.0858 11.1477 44.4648 12.7434C43.5383 13.6385 42.6312 14.5532 41.7435 15.4872C40.8557 16.4213 39.968 17.3553 39.0802 18.2894C38.6168 18.8343 38.115 19.3792 37.5748 19.9241C37.073 20.43 36.5712 20.9749 36.0694 21.5587C36.88 21.3641 37.6713 21.1305 38.4432 20.8581C39.2538 20.5857 39.9873 20.3522 40.6434 20.1576C41.2223 20.0408 41.84 19.8851 42.496 19.6905C43.1524 19.4959 43.8084 19.3402 44.4648 19.2235C45.1209 19.0678 45.7769 18.99 46.4333 18.99C47.1281 18.9511 47.7648 19.0484 48.344 19.2819C49.0772 19.5543 49.5212 20.0214 49.6755 20.683C49.7913 21.1111 49.7526 21.5198 49.5596 21.909C50.216 21.7144 50.8527 21.5003 51.4704 21.2668C52.1267 21.0332 52.7441 20.8192 53.3233 20.6246C54.4424 20.2743 55.5619 19.9241 56.6813 19.5738C57.8008 19.1846 58.9393 18.8732 60.0974 18.6397C60.4063 18.5619 60.7729 18.5229 61.1975 18.5229C61.6606 18.484 62.0659 18.5229 62.4132 18.6397C62.7607 18.7565 63.0115 18.9705 63.166 19.2819C63.359 19.5543 63.3784 19.963 63.2238 20.5078C63.108 20.8581 62.8766 21.15 62.529 21.3835C62.1818 21.5781 61.7765 21.7338 61.3131 21.8506C60.85 21.9673 60.3869 22.0646 59.9235 22.1425C59.4604 22.1814 59.0938 22.2398 58.8234 22.3176C57.5113 22.7068 56.2182 23.1154 54.9442 23.5436C53.6705 23.9328 52.3968 24.322 51.1231 24.7111C50.4668 24.9057 49.7526 25.1004 48.9807 25.295C48.2088 25.5285 47.4753 25.5674 46.7805 25.4117C46.5104 25.3728 46.221 25.256 45.9121 25.0614C45.2561 24.5555 44.9472 24.0884 44.9857 23.6603C45.0244 23.2322 45.198 22.8041 45.5068 22.376H44.812C43.4225 22.6095 42.0329 22.9014 40.6434 23.2517C39.5239 23.563 38.3854 23.9133 37.2273 24.3025C36.1078 24.6917 34.95 24.9447 33.7534 25.0614C33.3287 25.1003 32.9043 25.0225 32.4797 24.8279C32.055 24.6722 31.7462 24.3414 31.5532 23.8355C31.3989 23.4074 31.3989 22.9987 31.5532 22.6095C31.7078 22.1814 31.9198 21.7727 32.1902 21.3835C31.0708 22.0452 30.0094 22.6095 29.0058 23.0765C28.0407 23.5047 27.3073 23.816 26.8055 24.0106C25.802 24.4387 24.7212 24.8863 23.5632 25.3533C22.4052 25.8204 21.2473 26.0344 20.0893 25.9955C18.8155 25.9177 18.0435 25.5674 17.7733 24.9447C17.5031 24.322 17.561 23.5436 17.947 22.6095C18.2944 21.6365 18.8541 20.6051 19.6261 19.5154C20.3981 18.3867 21.2087 17.3164 22.0579 16.3045C22.9456 15.2926 23.7562 14.4169 24.4896 13.6774C25.223 12.8991 25.7055 12.3931 25.9371 12.1596L26.7476 11.3423C25.6283 11.3423 24.5282 11.3423 23.4474 11.3423C22.3666 11.3423 21.2666 11.3617 20.1472 11.4007C17.9084 11.4785 15.689 11.5952 13.4888 11.7509C11.2501 11.8677 9.01131 12.0428 6.77257 12.2764C5.96198 12.3931 5.17071 12.5099 4.39871 12.6266C3.58812 12.7045 2.77754 12.8407 1.96696 13.0353C1.77396 13.0742 1.56167 13.1326 1.33008 13.2104C1.09848 13.2883 0.886183 13.2883 0.693188 13.2104C0.268596 13.0547 0.0756001 12.7823 0.1142 12.3931C0.1142 11.965 0.307196 11.6925 0.693188 11.5758C5.32509 10.3693 10.0921 9.61035 14.9942 9.29902C19.8963 8.94874 24.7405 8.73467 29.5269 8.65682C30.5302 7.72275 31.5338 6.80816 32.5374 5.91301C33.541 5.01786 34.564 4.1227 35.606 3.22755C36.1078 2.76051 36.687 2.17672 37.3431 1.47616C38.0379 0.736693 38.7327 0.269657 39.4274 0.0750599C39.8134 -0.0416997 40.1416 -0.02224 40.4117 0.133439C40.7205 0.250197 40.9522 0.464256 41.1065 0.775612C41.261 1.04805 41.3188 1.35941 41.2804 1.70968C41.2417 2.05996 41.0871 2.37132 40.817 2.64375C39.6204 3.65566 38.4432 4.66758 37.2853 5.67947C36.1272 6.65248 34.9887 7.66437 33.8692 8.7152C34.4482 8.7152 34.9887 8.79306 35.4905 8.94874C35.9536 9.06548 36.3589 9.26007 36.7061 9.53252C37.0924 9.80495 37.3625 10.2136 37.5167 10.7585C37.6326 11.2255 37.5748 11.6342 37.3431 11.9845C37.1114 12.2958 36.822 12.5293 36.4747 12.685C36.1272 12.8018 35.7606 12.8212 35.3746 12.7434C35.0271 12.6266 34.757 12.3737 34.564 11.9845C34.0622 11.7898 33.4833 11.6536 32.8269 11.5758C32.1708 11.459 31.5532 11.4007 30.9743 11.4007L30.3953 11.9261C28.8127 13.4439 27.1336 15.0786 25.3581 16.8299C23.6211 18.5813 22.2508 20.4689 21.2473 22.4927C22.5982 22.2203 23.9878 21.8311 25.416 21.3251C26.8441 20.8192 28.253 20.2549 29.6425 19.6322C31.032 19.0094 32.4025 18.3478 33.7534 17.6473C35.1045 16.9078 36.3589 16.1489 37.5167 15.3704C38.9837 13.8526 40.4698 12.3737 41.9752 10.9336C43.519 9.45467 45.0822 8.03411 46.665 6.67192C47.6299 5.81571 48.6141 4.97894 49.6177 4.16162C50.6213 3.34429 51.6443 2.58537 52.6863 1.88482C53.111 1.57347 53.574 1.37887 54.0758 1.30103C54.6164 1.18427 55.0601 1.39833 55.4076 1.9432C55.6006 2.29348 55.639 2.68267 55.5235 3.11078C55.446 3.49998 55.2337 3.81134 54.8865 4.04485Z" fill="#686868"/>
<path d="M88.7478 21.6168C87.86 21.6947 86.9723 21.8503 86.0845 22.0838C85.2352 22.2784 84.3668 22.473 83.479 22.6676C81.163 23.2125 78.8663 23.7379 76.589 24.2439C74.3117 24.7109 71.9957 25.0612 69.6412 25.2947C69.0236 25.3726 68.3672 25.4309 67.6725 25.4699C67.0164 25.5088 66.341 25.4893 65.6462 25.4115C64.9898 25.3336 64.3531 25.178 63.7355 24.9445C63.1178 24.7499 62.5583 24.4385 62.0565 24.0104C61.6318 23.6601 61.3036 23.2514 61.0722 22.7844C60.8018 22.3174 60.6476 21.8309 60.6088 21.3249C60.5317 20.819 60.5704 20.3325 60.7247 19.8654C60.8792 19.3595 61.1687 18.9119 61.5931 18.5227C61.8635 18.2503 62.2879 18.0362 62.8671 17.8805C63.4844 17.6859 64.1602 17.5497 64.8934 17.4719C65.6268 17.3941 66.3603 17.3746 67.0935 17.4135C67.827 17.4524 68.4637 17.5886 69.0042 17.8222C69.5448 18.0557 69.9114 18.3865 70.1043 18.8146C70.336 19.2038 70.3167 19.7098 70.0466 20.3325C69.8149 20.7995 69.4673 21.1303 69.0042 21.3249C68.5412 21.5195 68.02 21.6557 67.4411 21.7336C66.8618 21.7725 66.2636 21.7725 65.6462 21.7336C65.0286 21.6557 64.488 21.5779 64.025 21.5001C64.1792 21.6557 64.488 21.792 64.9514 21.9087C65.4145 21.9865 65.897 22.0449 66.3988 22.0838C66.9393 22.1228 67.4217 22.1422 67.8464 22.1422C68.3095 22.1422 68.5989 22.1422 68.7148 22.1422C70.6061 21.9865 72.4781 21.7141 74.3311 21.3249C76.2224 20.9357 78.0944 20.5271 79.9471 20.0989C81.2982 19.7876 82.6297 19.4762 83.9421 19.1649C85.293 18.8146 86.6441 18.5616 87.9949 18.4059C88.5742 18.367 89.0566 18.5032 89.4426 18.8146C89.8285 19.126 90.0793 19.4957 90.1951 19.9238C90.311 20.313 90.2532 20.6827 90.0215 21.033C89.8285 21.3833 89.4038 21.5779 88.7478 21.6168Z" fill="#686868"/>
<path d="M106.221 21.6171C104.253 21.656 102.246 21.7144 100.2 21.7922C98.1541 21.8311 96.1469 21.5976 94.1784 21.0916C94.0242 21.0916 93.8696 21.0527 93.7153 20.9749C93.4836 21.6365 93.1364 22.2787 92.673 22.9014C92.2486 23.4852 91.7659 23.9912 91.2257 24.4193C90.6852 24.8474 90.0869 25.1587 89.4308 25.3533C88.8132 25.548 88.1955 25.5674 87.5779 25.4117C86.9989 25.256 86.5743 24.9641 86.3042 24.536C85.9953 24.1079 85.8217 23.6214 85.783 23.0765C85.7446 22.5317 85.8217 21.9868 86.0147 21.4419C86.1693 20.897 86.4007 20.4106 86.7095 19.9825C87.2113 19.3597 87.8483 18.8927 88.6202 18.5813C89.3921 18.27 90.164 18.2311 90.9362 18.4646C91.0133 17.9197 91.3222 17.4916 91.8624 17.1802C92.4029 16.8689 92.9818 16.9078 93.5995 17.297C94.1784 17.6473 94.7961 17.9197 95.4521 18.1143C96.1469 18.27 96.861 18.3673 97.5945 18.4062C98.328 18.4451 99.0419 18.4646 99.7366 18.4646C100.47 18.4257 101.165 18.4062 101.821 18.4062C102.593 18.4062 103.423 18.3673 104.311 18.2895C105.199 18.1727 106.009 18.2311 106.742 18.4646C107.167 18.6203 107.457 18.8732 107.611 19.2235C107.804 19.5738 107.862 19.9241 107.785 20.2743C107.746 20.6246 107.592 20.936 107.321 21.2084C107.051 21.4808 106.685 21.6171 106.221 21.6171ZM88.9097 22.376C89.0255 22.2592 89.2572 22.2009 89.6044 22.2009V21.6754C89.5273 21.7533 89.4115 21.8506 89.2572 21.9674C89.1026 22.0452 88.9868 22.1814 88.9097 22.376Z" fill="#686868"/>
</g>
<defs>
<clipPath id="clip0_284_1192">
<rect width="107.756" height="26" fill="white" transform="translate(0.109375)"/>
</clipPath>
</defs>
</svg>
