<svg width="124" height="26" viewBox="0 0 124 26" fill="none" xmlns="http://www.w3.org/2000/svg">
<path d="M9.42624 25.4127C6.88951 25.3289 4.97256 24.7557 3.67536 23.6934C2.37818 22.6031 1.44132 21.3869 0.864792 20.045C0.288264 18.6751 0 17.2912 0 15.8934C0 14.4396 0.273851 13.0418 0.821554 11.6998C1.39808 10.33 2.33494 9.11382 3.63214 8.05146C4.95814 6.96113 6.63009 6.40199 8.64792 6.37402H22.6576C24.6754 6.40199 26.3329 6.96113 27.6301 8.05146C28.9562 9.11382 29.8931 10.33 30.4408 11.6998C31.0171 13.0418 31.3054 14.4396 31.3054 15.8934C31.3054 17.2912 31.0171 18.6751 30.4408 20.045C29.8642 21.3869 28.9273 22.6031 27.6301 23.6934C26.3329 24.7557 24.416 25.3289 21.8793 25.4127H9.42624ZM8.47496 11.9934C7.92726 11.9934 7.45163 12.217 7.04805 12.6643C6.6445 13.0837 6.3418 13.5869 6.14004 14.174C5.96706 14.7332 5.88059 15.2923 5.88059 15.8515C5.88059 16.4385 5.96706 17.0256 6.14004 17.6127C6.3418 18.1719 6.6445 18.6751 7.04805 19.1224C7.45163 19.5418 7.92726 19.7654 8.47496 19.7934H22.8305C23.3782 19.7654 23.8539 19.5418 24.2575 19.1224C24.661 18.6751 24.9493 18.1719 25.1222 17.6127C25.324 17.0256 25.4249 16.4385 25.4249 15.8515C25.4249 15.2923 25.324 14.7332 25.1222 14.174C24.9493 13.5869 24.661 13.0837 24.2575 12.6643C23.8539 12.217 23.3782 11.9934 22.8305 11.9934H8.47496Z" fill="#686868"/>
<path d="M63.7345 8.80634C63.7345 9.50525 63.4462 10.0924 62.8696 10.5676C62.3222 11.0149 61.6447 11.2386 60.8376 11.2386H42.5471C42.1725 11.2386 41.8697 11.3085 41.6392 11.4483C41.4083 11.5881 41.2356 11.7418 41.1203 11.9096C41.0048 12.0493 40.9473 12.1752 40.9473 12.287C40.9473 12.4268 41.0048 12.5805 41.1203 12.7483C41.2356 12.8881 41.4083 13.0278 41.6392 13.1676C41.8697 13.2794 42.1725 13.3493 42.5471 13.3773H56.6865C58.5025 13.4052 60.0015 13.7547 61.1834 14.4257C62.3652 15.0687 63.2013 15.8375 63.6912 16.7322C64.2101 17.5988 64.4695 18.4794 64.4695 19.3741C64.4695 20.2407 64.2101 21.1214 63.6912 22.016C63.1724 22.8827 62.3222 23.6515 61.14 24.3224C59.9871 24.9655 58.5025 25.287 56.6865 25.287C56.3693 25.3149 56.1388 25.3289 55.9946 25.3289H39.2177C38.4105 25.3289 37.7187 25.1052 37.142 24.6579C36.5946 24.1827 36.3207 23.6096 36.3207 22.9386C36.3207 22.2397 36.6087 21.6526 37.1854 21.1773C37.7331 20.73 38.4105 20.5063 39.2177 20.5063H57.0323C57.4648 20.5343 57.8106 20.4784 58.07 20.3386C58.3583 20.1988 58.5747 20.045 58.7189 19.8773C58.863 19.7096 58.9349 19.5418 58.9349 19.3741C58.9349 19.2902 58.863 19.1504 58.7189 18.9547C58.5747 18.7311 58.3583 18.5633 58.07 18.4515C57.8106 18.3117 57.4648 18.2278 57.0323 18.1999H42.8499C41.1778 18.1719 39.7943 17.8364 38.6989 17.1934C37.6034 16.5224 36.8251 15.7537 36.3638 14.887C35.9027 14.0203 35.6719 13.1537 35.6719 12.287C35.6719 11.4203 35.9027 10.5676 36.3638 9.72891C36.854 8.86224 37.6323 8.12138 38.6989 7.50634C39.7943 6.86333 41.1778 6.51386 42.8499 6.45793C43.1379 6.43 43.3543 6.41602 43.4985 6.41602H60.8376C61.6447 6.41602 62.3222 6.65366 62.8696 7.12891C63.4462 7.57622 63.7345 8.13537 63.7345 8.80634Z" fill="#686868"/>
<path d="M72.2571 0C73.0353 0.027957 73.6984 0.307528 74.2461 0.838711C74.7938 1.34194 75.0821 1.97097 75.111 2.72581V23.2742C74.938 24.9516 73.9867 25.8602 72.2571 26C71.4499 26 70.7436 25.7484 70.1384 25.2452C69.5617 24.714 69.2734 24.057 69.2734 23.2742V2.72581C69.3023 1.94301 69.6051 1.3 70.1817 0.796773C70.758 0.265591 71.4499 0 72.2571 0Z" fill="#686868"/>
<path d="M89.5512 25.4127C87.0144 25.3289 85.0976 24.7557 83.8005 23.6934C82.5031 22.6031 81.5663 21.3869 80.9899 20.045C80.4133 18.6751 80.125 17.2912 80.125 15.8934C80.125 14.4396 80.3989 13.0418 80.9466 11.6998C81.5232 10.33 82.4601 9.11382 83.7572 8.05146C85.0832 6.96113 86.755 6.40199 88.7729 6.37402H102.783C104.8 6.40199 106.458 6.96113 107.755 8.05146C109.081 9.11382 110.018 10.33 110.566 11.6998C111.142 13.0418 111.43 14.4396 111.43 15.8934C111.43 17.2912 111.142 18.6751 110.566 20.045C109.989 21.3869 109.052 22.6031 107.755 23.6934C106.458 24.7557 104.541 25.3289 102.004 25.4127H89.5512ZM88.6001 11.9934C88.0524 11.9934 87.5766 12.217 87.173 12.6643C86.7694 13.0837 86.467 13.5869 86.265 14.174C86.092 14.7332 86.0056 15.2923 86.0056 15.8515C86.0056 16.4385 86.092 17.0256 86.265 17.6127C86.467 18.1719 86.7694 18.6751 87.173 19.1224C87.5766 19.5418 88.0524 19.7654 88.6001 19.7934H102.956C103.503 19.7654 103.979 19.5418 104.382 19.1224C104.786 18.6751 105.074 18.1719 105.247 17.6127C105.449 17.0256 105.55 16.4385 105.55 15.8515C105.55 15.2923 105.449 14.7332 105.247 14.174C105.074 13.5869 104.786 13.0837 104.382 12.6643C103.979 12.217 103.503 11.9934 102.956 11.9934H88.6001Z" fill="#686868"/>
<path d="M120.712 26.0001C122.422 26.0001 123.808 24.6143 123.808 22.9048C123.808 21.1954 122.422 19.8096 120.712 19.8096C119.003 19.8096 117.617 21.1954 117.617 22.9048C117.617 24.6143 119.003 26.0001 120.712 26.0001Z" fill="#686868"/>
</svg>
