<svg width="70" height="22" viewBox="0 0 70 22" fill="none" xmlns="http://www.w3.org/2000/svg">
<path d="M41.9219 19.4926C41.9219 19.724 42.1151 19.9083 42.3465 19.8974L45.7757 19.7336C45.9917 19.7232 46.1616 19.5449 46.1616 19.3285V8.49227C46.1616 8.26202 45.9701 8.07803 45.7401 8.08725L42.311 8.22441C42.0935 8.23311 41.9219 8.41187 41.9219 8.62943V19.4926Z" fill="#7B7B7B"/>
<path d="M42.4504 6.05953C42.8701 6.47946 43.395 6.68945 44.0251 6.68945C44.6872 6.68945 45.2202 6.47946 45.6241 6.05953C46.0442 5.62343 46.2542 5.08234 46.2542 4.43627C46.2542 3.80634 46.0442 3.27334 45.6241 2.83724C45.2202 2.40116 44.6872 2.18311 44.0251 2.18311C43.395 2.18311 42.8701 2.40116 42.4504 2.83724C42.0303 3.27334 41.8203 3.80634 41.8203 4.43627C41.8203 5.08234 42.0303 5.62343 42.4504 6.05953Z" fill="#7B7B7B"/>
<path fill-rule="evenodd" clip-rule="evenodd" d="M31.7196 12.9643V18.8541C31.7196 19.0494 31.5807 19.2167 31.3888 19.2528L27.8627 19.9118C27.6133 19.9586 27.3828 19.767 27.3828 19.5134V3.14557C27.3828 2.92171 27.5645 2.74023 27.7884 2.74023H34.6998C35.8626 2.74023 36.8803 2.95829 37.7525 3.39437C38.6408 3.83047 39.3353 4.4281 39.8359 5.18721C40.3366 5.94635 40.5871 6.83472 40.5871 7.85227C40.5871 8.86982 40.3285 9.76624 39.8117 10.5415C39.311 11.3007 38.6085 11.8983 37.7039 12.3344C37.3128 12.5161 36.8927 12.6584 36.4438 12.7615L41.0432 19.0217C41.2671 19.3265 40.9886 19.7448 40.6211 19.6558L36.8194 18.734C36.733 18.7129 36.6561 18.6643 36.6001 18.5953L32.0299 12.9643H31.7196ZM31.7196 9.86316H34.094C34.8047 9.86316 35.3457 9.69356 35.7173 9.35437C36.1049 8.99904 36.2988 8.52258 36.2988 7.92495C36.2988 7.34348 36.1049 6.87507 35.7173 6.51974C35.3457 6.14826 34.8047 5.9625 34.094 5.9625H31.7196V9.86316Z" fill="#7B7B7B"/>
<path d="M51.9064 20.2568C51.1796 20.2568 50.4608 20.16 49.7501 19.9662C49.0556 19.7724 48.4013 19.5141 47.7877 19.1908C47.3183 18.9245 46.9037 18.6281 46.5438 18.3019C46.3814 18.1549 46.3834 17.9035 46.5368 17.7467L48.2704 15.9766C48.4305 15.8132 48.6928 15.8163 48.8673 15.9642C49.1854 16.2337 49.5442 16.4532 49.944 16.6228C50.4932 16.8489 51.0744 16.962 51.6883 16.962C52.0436 16.962 52.3103 16.9135 52.4879 16.8167C52.6818 16.7197 52.7786 16.5824 52.7786 16.4048C52.7786 16.1463 52.6413 15.9525 52.3666 15.8233C52.1083 15.6779 51.7611 15.5568 51.3249 15.4599C50.9048 15.3468 50.4608 15.2176 49.9925 15.0723C49.5239 14.9107 49.0718 14.7007 48.6356 14.4423C48.1994 14.1839 47.844 13.8205 47.5696 13.3521C47.311 12.8837 47.1819 12.2861 47.1819 11.5592C47.1819 10.8001 47.3838 10.1379 47.7877 9.57256C48.2075 8.99111 48.789 8.53886 49.532 8.21582C50.275 7.87664 51.1472 7.70703 52.1485 7.70703C53.1662 7.70703 54.1352 7.8847 55.0559 8.24003C55.8391 8.52852 56.6254 9.08737 57.191 9.67529C57.3491 9.83978 57.3182 10.1016 57.137 10.2408L55.1319 11.7833C54.9631 11.913 54.726 11.8867 54.5679 11.7444C54.2926 11.4965 54.0323 11.3675 53.675 11.2443C53.2067 11.0666 52.7786 10.9778 52.3909 10.9778C52.0194 10.9778 51.753 11.0343 51.5915 11.1474C51.43 11.2443 51.3491 11.3816 51.3491 11.5592C51.3491 11.7692 51.4783 11.9388 51.7368 12.068C52.0113 12.1972 52.3585 12.3184 52.7786 12.4314C53.2148 12.5283 53.6588 12.6575 54.1112 12.8191C54.5795 12.9806 55.0235 13.2067 55.4436 13.4974C55.8798 13.772 56.227 14.1435 56.4853 14.6119C56.76 15.0803 56.8972 15.686 56.8972 16.429C56.8972 17.608 56.4451 18.5449 55.5406 19.2394C54.6361 19.9177 53.4245 20.2568 51.9064 20.2568Z" fill="#7B7B7B"/>
<path fill-rule="evenodd" clip-rule="evenodd" d="M60.0674 19.409C61.0851 19.9258 62.256 20.1844 63.5806 20.1844C64.6304 20.1844 65.5673 20.0148 66.3909 19.6757C67.1096 19.3853 67.7336 18.9768 68.2629 18.4502C68.4145 18.2997 68.4056 18.0559 68.2545 17.9048L66.6237 16.2742C66.4582 16.1088 66.1889 16.1195 66.0156 16.2767C65.7383 16.5283 65.4352 16.7244 65.1068 16.8652C64.6708 17.059 64.1621 17.1559 63.5806 17.1559C62.9667 17.1559 62.4499 17.0347 62.0301 16.7925C61.6101 16.5502 61.2871 16.1949 61.0609 15.7265C61.0054 15.6078 60.9569 15.4834 60.915 15.3532L68.9106 15.3161C69.096 15.3152 69.2587 15.1891 69.2951 15.0074C69.3349 14.809 69.3601 14.6288 69.3711 14.4666C69.4031 14.2082 69.4193 13.9578 69.4193 13.7156C69.4193 12.5688 69.1529 11.5512 68.6199 10.6629C68.1031 9.75838 67.3763 9.05578 66.4394 8.55508C65.5187 8.03823 64.4608 7.77979 63.2657 7.77979C62.0379 7.77979 60.9317 8.05437 59.9463 8.60352C58.9774 9.13652 58.2101 9.87146 57.6448 10.8082C57.0794 11.7289 56.7969 12.7868 56.7969 13.9821C56.7969 15.1935 57.0875 16.2675 57.669 17.2044C58.2506 18.1411 59.0499 18.876 60.0674 19.409ZM60.906 12.632C60.9439 12.5114 60.9872 12.3961 61.0366 12.2861C61.2466 11.8177 61.5453 11.4543 61.933 11.1959C62.3207 10.9375 62.7809 10.8082 63.3139 10.8082C63.8307 10.8082 64.2589 10.9213 64.598 11.1474C64.9372 11.3736 65.1957 11.7047 65.3734 12.1408C65.4318 12.2787 65.4815 12.4297 65.5222 12.5937L60.906 12.632Z" fill="#7B7B7B"/>
<path d="M64.4171 6.09693V2.96994H65.2122V6.09693H64.4171ZM63.4531 3.63179V2.94775H66.1759V3.63179H63.4531ZM66.3154 6.09693V2.94775H66.8886L68.0967 4.7733H67.8258L69.0296 2.94775H69.6024V6.09693H68.8163V4.26249L68.9406 4.29802L68.2166 5.38627H67.7012L66.9819 4.29802L67.1061 4.26249V6.09693H66.3154Z" fill="#7B7B7B"/>
<path d="M6.67188 1.29527C6.67188 1.05486 6.8509 0.852059 7.08946 0.822245L9.94978 0.464688C10.2343 0.429126 10.4856 0.650993 10.4856 0.937744V10.3456C10.4856 10.6323 10.2343 10.8541 9.94978 10.8186L7.08946 10.4611C6.8509 10.4312 6.67188 10.2284 6.67188 9.988V1.29527Z" fill="#7B7B7B"/>
<path d="M0.953125 2.48717C0.953125 2.24675 1.13215 2.04395 1.37071 2.01411L4.23103 1.65658C4.51559 1.62102 4.76689 1.84289 4.76689 2.12964V9.63055C4.76689 9.9173 4.51559 10.1391 4.23103 10.1036L1.37071 9.74605C1.13215 9.71624 0.953125 9.51344 0.953125 9.27299V2.48717Z" fill="#7B7B7B"/>
<path d="M15.8512 1.26081C16.0632 1.31385 16.2123 1.50454 16.2123 1.72329V5.69745C16.2123 5.93786 16.0332 6.14066 15.7945 6.17047L12.9343 6.528C12.6497 6.56359 12.3984 6.34173 12.3984 6.05498V1.0082C12.3984 0.698052 12.6899 0.470494 12.9908 0.545721L15.8512 1.26081Z" fill="#7B7B7B"/>
<path d="M21.4545 2.91516C21.4545 2.69641 21.3055 2.50574 21.0934 2.45267L18.2331 1.73762C17.9321 1.66239 17.6406 1.88995 17.6406 2.2001V5.8167C17.6406 6.10345 17.892 6.32532 18.1765 6.28972L21.0368 5.9322C21.2754 5.90238 21.4545 5.69958 21.4545 5.45917V2.91516Z" fill="#7B7B7B"/>
<path d="M21.4522 7.78711L12.1561 8.02547C12.2906 9.77397 13.7486 11.1242 15.5022 11.1242H17.6382V13.153L0.953125 11.6008V21.5394L21.4522 20.1091V7.78711Z" fill="#7B7B7B"/>
</svg>
