<svg width="83" height="26" viewBox="0 0 83 26" fill="none" xmlns="http://www.w3.org/2000/svg">
<path d="M44.6892 20.4608L39.0353 13.3882L44.3295 7.13477H40.8334L36.1181 13.0885V7.13477H33.2812V20.4608H36.1181V16.3651L37.1573 15.1264L41.1931 20.4608H44.6892Z" fill="#686868"/>
<path d="M51.3589 20.7006C55.3947 20.7006 58.3316 17.8236 58.3316 13.8078C58.3316 9.79203 55.3947 6.91504 51.3589 6.91504C47.3431 6.91504 44.4062 9.79203 44.4062 13.8078C44.4062 17.8236 47.3431 20.7006 51.3589 20.7006ZM51.3589 18.1832C48.9017 18.1832 47.3232 16.2852 47.3232 13.8078C47.3232 11.3104 48.9017 9.43239 51.3589 9.43239C53.8165 9.43239 55.4146 11.3104 55.4146 13.8078C55.4146 16.2852 53.8165 18.1832 51.3589 18.1832Z" fill="#686868"/>
<path d="M67.5526 20.4608C70.09 20.4608 71.4287 18.8625 71.4287 16.8646C71.4287 15.1864 70.2899 13.8078 68.8714 13.588C70.1301 13.3283 71.169 12.2095 71.169 10.5312C71.169 8.75306 69.8704 7.13477 67.3328 7.13477H60.3203V20.4608H67.5526ZM66.7137 12.4692H63.1572V9.57221H66.7137C67.6725 9.57221 68.272 10.1916 68.272 11.0307C68.272 11.8698 67.6725 12.4692 66.7137 12.4692ZM66.8134 18.0034H63.1572V14.9066H66.8134C67.9322 14.9066 68.5317 15.6259 68.5317 16.465C68.5317 17.424 67.8924 18.0034 66.8134 18.0034Z" fill="#686868"/>
<path d="M83.0005 20.4608V17.9634H76.4072V14.9466H82.8607V12.4492H76.4072V9.63215H83.0005V7.13477H73.5703V20.4608H83.0005Z" fill="#686868"/>
<path d="M25.2602 6.81151V3.59958H14.2677V0H10.7512V3.59958H0.0078125V6.81151H10.7788V9.71886H2.61058V22.6496H5.93327V12.9308H10.7788V26H14.2123V12.9308H19.5009V19.0224C19.5009 19.327 19.3624 19.4654 18.9194 19.4654C18.4764 19.4654 16.8428 19.4654 15.4583 19.41C15.929 20.2961 16.4274 21.7082 16.5659 22.6496C18.7256 22.6496 20.3039 22.5943 21.4668 22.0958C22.6021 21.5975 22.9343 20.656 22.9343 19.0777V9.71886H14.2123V6.81151H25.2602Z" fill="#686868"/>
</svg>
