<svg width="94" height="22" viewBox="0 0 94 22" fill="none" xmlns="http://www.w3.org/2000/svg">
<path d="M32.492 20.3806C30.3453 20.3806 28.6711 19.7869 27.4691 18.599C26.2815 17.4114 25.6875 15.7156 25.6875 13.5119V5.09766H29.1649V13.3831C29.1649 16.0735 30.2811 17.4186 32.5134 17.4186C33.601 17.4186 34.431 17.0965 35.0033 16.4525C35.5756 15.7945 35.8619 14.7712 35.8619 13.3831V5.09766H39.2962V13.5119C39.2962 15.7156 38.6953 17.4114 37.4932 18.599C36.3056 19.7869 34.6384 20.3806 32.492 20.3806Z" fill="#686868"/>
<path d="M40.9844 12.7393H47.0591V15.4225H40.9844V12.7393Z" fill="#686868"/>
<path d="M51.1989 7.93102H46.3906V5.09766H59.4845V7.93102H54.6762V20.1232H51.1989V7.93102Z" fill="#686868"/>
<path d="M71.4248 8.57471V20.1229H68.2482V18.7492C67.8045 19.2499 67.2749 19.6364 66.6596 19.9083C66.0443 20.1657 65.379 20.2945 64.6634 20.2945C63.1467 20.2945 61.9446 19.858 61.0575 18.9853C60.1703 18.1122 59.7266 16.8171 59.7266 15.1V8.57471H63.0751V14.6064C63.0751 16.4667 63.8551 17.3969 65.4148 17.3969C66.2162 17.3969 66.8601 17.1393 67.3466 16.6242C67.8331 16.0946 68.0763 15.3146 68.0763 14.2844V8.57471H71.4248Z" fill="#686868"/>
<path d="M76.6514 10.0986C77.0521 9.54048 77.5886 9.11832 78.2611 8.83212C78.9481 8.54592 79.735 8.40283 80.6222 8.40283V11.4938C80.2504 11.4652 79.9999 11.4508 79.8711 11.4508C78.9123 11.4508 78.1611 11.7227 77.6172 12.2665C77.0735 12.796 76.8016 13.5973 76.8016 14.6706V20.1227H73.4531V8.57455H76.6514V10.0986Z" fill="#686868"/>
<path d="M88.566 8.40283C89.9972 8.40283 91.149 8.83212 92.022 9.69073C92.9092 10.5493 93.3526 11.8229 93.3526 13.5115V20.1227H90.0041V14.0266C90.0041 13.1108 89.8039 12.4311 89.4032 11.9875C89.0025 11.5296 88.423 11.3006 87.6644 11.3006C86.8203 11.3006 86.1477 11.5653 85.6468 12.0948C85.1459 12.61 84.8954 13.3827 84.8954 14.413V20.1227H81.5469V8.57455H84.7452V9.92684C85.1889 9.44029 85.7398 9.06823 86.3982 8.81066C87.0563 8.53878 87.7791 8.40283 88.566 8.40283Z" fill="#686868"/>
<path fill-rule="evenodd" clip-rule="evenodd" d="M10.7237 1.19245C11.2948 0.621399 12.2206 0.621399 12.7917 1.19245L18.1391 6.53995L12.7673 11.6676C12.1832 12.2252 11.2576 12.2037 10.7 11.6195C10.1424 11.0354 10.1639 10.1098 10.7481 9.5522L12.3974 7.97787H8.83321C5.9798 7.97787 3.66664 10.291 3.66664 13.1444C3.66664 15.998 5.9798 18.3111 8.83321 18.3111H16.0469C16.8544 18.3111 17.5093 18.9657 17.5093 19.7732C17.5093 20.5809 16.8544 21.2355 16.0469 21.2355H8.83321C4.36465 21.2355 0.742188 17.6131 0.742188 13.1444C0.742188 8.67588 4.36465 5.05339 8.83321 5.05339H12.5168L10.7237 3.26037C10.1527 2.68932 10.1527 1.76349 10.7237 1.19245Z" fill="#686868"/>
</svg>
