<svg width="84" height="26" viewBox="0 0 84 26" fill="none" xmlns="http://www.w3.org/2000/svg">
<path d="M35.1326 21.1785H29.3594V4.71338H34.8093C36.7645 4.71338 38.1579 5.06747 38.989 5.77565C39.8357 6.46844 40.2592 7.43835 40.2592 8.68534V9.19338C40.2592 10.1325 40.0743 10.8946 39.7049 11.4796C39.3354 12.0492 38.7888 12.4726 38.0654 12.7497C38.8812 13.0114 39.4971 13.4271 39.9129 13.9967C40.3286 14.5509 40.5363 15.2822 40.5363 16.1905V16.814C40.5363 18.1842 40.1053 19.2541 39.2432 20.0239C38.3965 20.7936 37.0263 21.1785 35.1326 21.1785ZM34.8556 6.93028H31.9918V11.6412H34.8325C35.7869 11.6412 36.4872 11.4642 36.9338 11.1101C37.3802 10.756 37.6035 10.1787 37.6035 9.37812V8.96247C37.6035 8.26969 37.3802 7.76165 36.9338 7.43835C36.5028 7.09966 35.8101 6.93028 34.8556 6.93028ZM34.74 13.8812H31.9918V18.8462H34.7862C35.8791 18.8462 36.649 18.6691 37.0953 18.315C37.5573 17.9455 37.7884 17.3759 37.7884 16.6062V16.0981C37.7884 15.3284 37.5419 14.7664 37.0494 14.4124C36.5565 14.0583 35.7869 13.8812 34.74 13.8812Z" fill="#686868"/>
<path d="M46.1933 19.354C46.5472 19.354 46.8783 19.3155 47.1862 19.2386C47.5095 19.1462 47.8021 19.0076 48.0639 18.8229C48.5873 18.4842 48.9875 18.03 49.2645 17.4604C49.5571 16.8908 49.7033 16.2904 49.7033 15.6592V14.2274C49.4878 14.4122 49.1877 14.5738 48.8029 14.7124C48.4178 14.8509 47.9483 14.9818 47.3939 15.105C46.7012 15.2589 46.1777 15.4052 45.8238 15.5437C45.4697 15.6823 45.1617 15.8593 44.9 16.0748C44.6845 16.2596 44.5152 16.4751 44.3921 16.7214C44.2843 16.9678 44.2303 17.2526 44.2303 17.5759V17.6682C44.2303 18.1917 44.3921 18.6074 44.7154 18.9153C45.0539 19.2078 45.5468 19.354 46.1933 19.354ZM50.0959 21.1784L49.7958 18.7767C49.411 19.5772 48.8335 20.2238 48.0639 20.7165C47.3093 21.2091 46.3626 21.4555 45.2232 21.4555C43.9611 21.4555 42.9988 21.1552 42.3367 20.5548C41.6748 19.9544 41.3438 19.1154 41.3438 18.0377V17.8299C41.3438 17.1525 41.4746 16.5675 41.7363 16.0748C41.9981 15.5668 42.3676 15.1434 42.8448 14.8047C42.9988 14.697 43.1528 14.6046 43.3067 14.5276C43.476 14.4353 43.6375 14.3506 43.7915 14.2736C44.1304 14.135 44.5305 14.0119 44.9924 13.9041C45.4697 13.781 46.0625 13.6424 46.7705 13.4885C47.8637 13.2575 48.618 13.0266 49.0337 12.7957C49.4647 12.5494 49.6802 12.1645 49.6802 11.641V11.5948C49.6802 11.0098 49.4878 10.5557 49.103 10.2324C48.7335 9.90909 48.1101 9.74743 47.2325 9.74743C46.3086 9.74743 45.6158 9.95526 45.1542 10.3709C44.7076 10.7866 44.4689 11.3716 44.4383 12.126V12.7033H41.7132V12.1029C41.7904 10.7481 42.2907 9.67044 43.2143 8.8699C44.1535 8.05396 45.4619 7.646 47.14 7.646C48.9721 7.646 50.2808 8.03088 51.0657 8.80063C51.8665 9.555 52.2666 10.6019 52.2666 11.9413V21.1784H50.0959Z" fill="#686868"/>
<path d="M56.5623 21.1785H53.9297V7.90014H56.0773L56.4468 10.7636C56.647 9.70136 57.0471 8.9393 57.6477 8.47745C58.2633 8.01561 59.141 7.78467 60.2803 7.78467H60.9962V10.5558H59.9108C59.4642 10.5558 59.0641 10.5866 58.7099 10.6482C58.3711 10.7098 58.0787 10.8021 57.8323 10.9253C57.355 11.1716 57.0243 11.5719 56.8394 12.1261C56.6548 12.6803 56.5623 13.4193 56.5623 14.343V21.1785Z" fill="#686868"/>
<path d="M66.7279 21.4787C64.8651 21.4787 63.4487 20.9784 62.4786 19.9777C61.5241 18.9616 61.0469 17.5068 61.0469 15.6132V13.6041C61.0469 12.9421 61.1087 12.3417 61.2318 11.8029C61.3548 11.2486 61.5319 10.7483 61.7627 10.3018C62.2556 9.4243 62.933 8.76231 63.7951 8.31583C64.6571 7.85398 65.65 7.62305 66.7741 7.62305C68.4213 7.62305 69.7375 8.03873 70.7229 8.87006C71.708 9.7014 72.2471 10.9946 72.3392 12.7497V13.1884H69.522V12.7497C69.4452 11.7644 69.1834 11.0485 68.7368 10.602C68.2905 10.1556 67.6361 9.93234 66.7741 9.93234C65.8502 9.93234 65.1191 10.2402 64.5803 10.8561C64.0568 11.4719 63.7951 12.3956 63.7951 13.6272V15.567C63.7951 16.6908 64.049 17.5606 64.5572 18.1764C65.0806 18.7923 65.8118 19.1002 66.751 19.1002C67.613 19.1002 68.2674 18.8692 68.7137 18.4074C69.1756 17.9455 69.4527 17.2296 69.5451 16.2597V15.7286H72.3624V16.3059C72.2702 18.0764 71.7158 19.385 70.6998 20.2317C69.6991 21.063 68.3751 21.4787 66.7279 21.4787Z" fill="#686868"/>
<path d="M77.8962 19.354C78.2503 19.354 78.5814 19.3155 78.8891 19.2386C79.2126 19.1462 79.505 19.0076 79.7667 18.8229C80.2902 18.4842 80.6906 18.03 80.9676 17.4604C81.26 16.8908 81.4064 16.2904 81.4064 15.6592V14.2274C81.1906 14.4122 80.8905 14.5738 80.5057 14.7124C80.1209 14.8509 79.6512 14.9818 79.0971 15.105C78.4043 15.2589 77.8808 15.4052 77.5267 15.5437C77.1725 15.6823 76.8648 15.8593 76.6031 16.0748C76.3876 16.2596 76.218 16.4751 76.0949 16.7214C75.9872 16.9678 75.9335 17.2526 75.9335 17.5759V17.6682C75.9335 18.1917 76.0949 18.6074 76.4182 18.9153C76.7571 19.2078 77.2496 19.354 77.8962 19.354ZM81.7988 21.1784L81.4986 18.7767C81.1138 19.5772 80.5366 20.2238 79.7667 20.7165C79.0124 21.2091 78.0654 21.4555 76.9264 21.4555C75.6639 21.4555 74.7016 21.1552 74.0398 20.5548C73.3777 19.9544 73.0469 19.1154 73.0469 18.0377V17.8299C73.0469 17.1525 73.1777 16.5675 73.4392 16.0748C73.7009 15.5668 74.0704 15.1434 74.5477 14.8047C74.7016 14.697 74.8556 14.6046 75.0096 14.5276C75.1789 14.4353 75.3406 14.3506 75.4946 14.2736C75.8332 14.135 76.2336 14.0119 76.6952 13.9041C77.1728 13.781 77.7653 13.6424 78.4736 13.4885C79.5665 13.2575 80.3211 13.0266 80.7365 12.7957C81.1678 12.5494 81.3833 12.1645 81.3833 11.641V11.5948C81.3833 11.0098 81.1906 10.5557 80.8058 10.2324C80.4364 9.90909 79.8129 9.74743 78.9353 9.74743C78.0117 9.74743 77.319 9.95526 76.857 10.3709C76.4107 10.7866 76.1721 11.3716 76.1412 12.126V12.7033H73.4164V12.1029C73.4932 10.7481 73.9936 9.67044 74.9171 8.8699C75.8563 8.05396 77.165 7.646 78.8431 7.646C80.675 7.646 81.9836 8.03088 82.7688 8.80063C83.5694 9.555 83.9695 10.6019 83.9695 11.9413V21.1784H81.7988Z" fill="#686868"/>
<path fill-rule="evenodd" clip-rule="evenodd" d="M2.83762 0.60324C3.22386 0.216993 3.74774 0 4.29397 0H16.0406L23.278 7.23744V22.7451C23.278 23.2913 23.061 23.8152 22.6748 24.2014C22.2886 24.5877 21.7647 24.8047 21.2185 24.8047H18.3977V22.566H21.0393V8.16475L15.1133 2.23869H4.47305V10.5218H2.23438V2.05959C2.23438 1.51336 2.45137 0.98949 2.83762 0.60324Z" fill="#686868"/>
<path fill-rule="evenodd" clip-rule="evenodd" d="M14.4531 1.11914H16.6918V6.58155H22.1542V8.82023H14.4531V1.11914Z" fill="#686868"/>
<path fill-rule="evenodd" clip-rule="evenodd" d="M8.99292 10.5171L11.3219 15.9148L17.4858 16.3898L12.7874 20.2695L14.2064 25.9999L8.99292 22.9319L3.77946 25.9999L5.19843 20.2695L0.5 16.3898L6.66393 15.9148L8.99292 10.5171ZM8.99292 16.1678L8.18383 18.043L6.20287 18.1956L7.71008 19.4402L7.23209 21.3706L8.99292 20.3343L10.7538 21.3706L10.2758 19.4402L11.783 18.1956L9.80201 18.043L8.99292 16.1678Z" fill="#686868"/>
</svg>
