<svg width="24" height="33" viewBox="0 0 24 33" fill="none" xmlns="http://www.w3.org/2000/svg">
<path d="M22.7349 10.6294C21.4005 8.09263 17.4028 0.480188 17.4028 0.480188C17.3565 0.391939 17.287 0.318029 17.2017 0.266444C17.1164 0.21486 17.0186 0.187561 16.919 0.1875C16.8193 0.187519 16.7213 0.214737 16.636 0.266218C16.5507 0.3177 16.481 0.391492 16.4345 0.479641L12.6994 7.58634C11.6488 5.65538 10.9066 4.29962 10.9066 4.29962C10.8596 4.21363 10.7902 4.14189 10.7059 4.09193C10.6215 4.04196 10.5253 4.0156 10.4273 4.01562C10.3293 4.01566 10.2332 4.042 10.1488 4.09188C10.0645 4.14177 9.99515 4.21338 9.94795 4.29923C9.88441 4.41512 3.57183 15.9192 1.73416 19.6325C0.119899 22.8937 0.108962 26.2372 1.70463 28.8071C3.35871 31.4715 6.53797 33 10.4273 33C14.3166 33 17.4958 31.4715 19.1499 28.8071C20.7455 26.2372 20.7345 22.8935 19.1195 19.6305C19.1045 19.6006 19.0874 19.5668 19.072 19.536C19.9077 19.2708 20.6794 18.8356 21.3388 18.2577C21.9981 17.6798 22.5308 16.9718 22.9033 16.1782C23.3088 15.3039 23.5048 14.3471 23.4755 13.3839C23.4463 12.4206 23.1927 11.4774 22.7349 10.6294ZM18.2208 28.2298C16.7705 30.5664 13.9299 31.9062 10.4273 31.9062C6.92472 31.9062 4.08403 30.5664 2.63377 28.2298C1.24231 25.9889 1.27167 23.0318 2.71416 20.1175C4.24476 17.0258 8.91162 8.47074 10.4267 5.70186C10.811 6.40536 11.3998 7.48538 12.0879 8.75167C11.6972 9.49887 11.3524 10.155 11.1026 10.6301C10.592 11.576 10.3364 12.6386 10.3611 13.7132C10.3858 14.7879 10.6898 15.8376 11.2433 16.759C11.8376 17.7263 12.6733 18.5222 13.6684 19.0685C14.6635 19.6148 15.7836 19.8928 16.9187 19.875C17.2723 19.8722 17.6252 19.8429 17.9744 19.7875C18.0331 19.9034 18.0884 20.0137 18.1404 20.1174C19.5829 23.0318 19.6122 25.9891 18.2208 28.2298ZM21.9129 15.7147C21.5599 16.4619 21.0373 17.1165 20.3868 17.6263C19.7364 18.1361 18.976 18.4871 18.166 18.6514C17.7561 18.7385 17.3377 18.782 16.9187 18.7812C15.9721 18.7981 15.0374 18.5684 14.2065 18.1146C13.3756 17.6608 12.677 16.9987 12.1795 16.1932C11.7179 15.4348 11.4647 14.568 11.4457 13.6804C11.4266 12.7928 11.6422 11.9159 12.0708 11.1383C12.3497 10.6079 12.7435 9.85822 13.1919 9.0005L16.9187 1.91016C18.0239 4.01431 20.718 9.14395 21.7669 11.1381C22.1506 11.8353 22.3639 12.6135 22.3893 13.4089C22.4146 14.2043 22.2514 14.9944 21.9129 15.7147ZM16.2546 25.4764C15.995 26.7145 15.3045 27.8204 14.3061 28.5972C13.3077 29.374 12.066 29.7714 10.8021 29.7188C10.6571 29.7188 10.518 29.6611 10.4154 29.5586C10.3129 29.456 10.2552 29.3169 10.2552 29.1719C10.2552 29.0268 10.3129 28.8877 10.4154 28.7852C10.518 28.6826 10.6571 28.625 10.8021 28.625C11.822 28.6778 12.8268 28.362 13.633 27.7353C14.4393 27.1085 14.9932 26.2127 15.1935 25.2113C15.2311 25.0733 15.3212 24.9554 15.4446 24.8831C15.5681 24.8107 15.7149 24.7896 15.8537 24.8243C15.9925 24.8589 16.1122 24.9466 16.1871 25.0685C16.262 25.1903 16.2863 25.3369 16.2546 25.4764Z" fill="#7B7B7B"/>
</svg>
