<svg width="36" height="29" viewBox="0 0 36 29" fill="none" xmlns="http://www.w3.org/2000/svg">
<path d="M33.8139 10.9693C33.239 10.377 32.5443 9.91427 31.7762 9.61209C31.008 9.30991 30.1842 9.17525 29.3599 9.21713C29.3394 9.21943 29.3186 9.21726 29.299 9.21079C29.2795 9.20432 29.2615 9.19369 29.2464 9.17963C29.1453 8.81348 29.2257 8.38071 29.1201 7.9867C28.5066 3.97443 23.4909 1.89229 20.2421 4.34397C20.1445 4.39724 20.0821 4.38386 20.0341 4.27952C19.6387 3.142 18.8911 2.16007 17.8998 1.47617C16.9085 0.79228 15.7251 0.442002 14.5213 0.476157C13.3175 0.510313 12.1559 0.927126 11.205 1.66612C10.2541 2.40512 9.56339 3.42787 9.23307 4.58597C9.22287 4.61285 9.20351 4.63525 9.17841 4.64926C9.15331 4.66326 9.12407 4.66795 9.09585 4.66252C8.33988 4.57174 7.57315 4.65935 6.85714 4.91831C6.14112 5.17727 5.49574 5.60038 4.97273 6.15373C4.44971 6.70707 4.06362 7.37526 3.84539 8.10472C3.62716 8.83418 3.58288 9.60462 3.71608 10.3543C3.72266 10.3828 3.7186 10.4127 3.70467 10.4384C3.69073 10.4641 3.66789 10.4839 3.64043 10.4939C2.73191 10.8378 1.94737 11.4462 1.38813 12.2405C0.828893 13.0348 0.52065 13.9785 0.503217 14.9497C0.390709 17.912 3.24799 20.2745 6.14592 19.918C6.8636 21.2144 8.06657 22.1728 9.4905 22.5826C9.39487 23.1527 9.42442 23.7368 9.5771 24.2944C9.72978 24.8519 10.0019 25.3696 10.3747 25.8114C10.7474 26.2533 11.2118 26.6088 11.7357 26.8532C12.2595 27.0977 12.8303 27.2252 13.4084 27.227C14.1 27.1934 15.6833 27.0688 15.3314 26.0543C15.2972 25.9796 15.2487 25.9125 15.1886 25.8566C15.1285 25.8008 15.0579 25.7573 14.981 25.7287C14.9041 25.7001 14.8223 25.687 14.7403 25.6901C14.6583 25.6931 14.5777 25.7123 14.5031 25.7465C14.1315 25.9095 13.7282 25.9876 13.3225 25.975C12.9169 25.9624 12.5192 25.8595 12.1584 25.6737C11.7976 25.4879 11.4828 25.224 11.237 24.9012C10.9911 24.5783 10.8203 24.2047 10.7371 23.8075C10.6539 23.4103 10.6604 22.9996 10.756 22.6052C10.8517 22.2108 11.0341 21.8428 11.29 21.5278C11.5459 21.2129 11.8689 20.959 12.2353 20.7847C12.6018 20.6103 13.0025 20.52 13.4083 20.5201C14.0765 20.415 14.907 21.2388 15.3313 20.4446C15.6598 19.4149 14.1207 19.3135 13.4084 19.2711C12.6838 19.2718 11.9731 19.4704 11.353 19.8453C10.7329 20.2202 10.227 20.7573 9.88965 21.3986C9.32987 21.2442 8.80661 20.9795 8.35063 20.6199C7.89466 20.2604 7.51517 19.8133 7.23448 19.305C7.10052 19.0696 6.89817 18.8806 6.65428 18.763C6.4104 18.6453 6.1365 18.6047 5.86895 18.6463C1.65046 19.0876 0.0972963 13.242 4.08939 11.6598C4.38816 11.546 4.63752 11.3309 4.79399 11.0521C4.95046 10.7733 5.00412 10.4484 4.94561 10.1341C4.84677 9.57657 4.87994 9.0036 5.04246 8.46117C5.20497 7.91873 5.49231 7.42191 5.88145 7.01054C6.27058 6.59917 6.75068 6.2847 7.28326 6.09232C7.81584 5.89995 8.38609 5.83502 8.94828 5.90276C9.27136 5.94352 9.59839 5.8678 9.87068 5.68918C10.143 5.51057 10.3427 5.24075 10.434 4.92817C10.6916 4.02518 11.2304 3.2278 11.972 2.65175C12.7136 2.0757 13.6194 1.75095 14.5581 1.72464C15.4968 1.69832 16.4194 1.97181 17.1921 2.50541C17.9648 3.03901 18.5474 3.80495 18.8552 4.69209C18.9251 4.89631 19.0421 5.08125 19.1966 5.23198C19.3511 5.38272 19.5388 5.49504 19.7447 5.55987C19.9506 5.62471 20.1688 5.64026 20.3818 5.60526C20.5948 5.57026 20.7966 5.4857 20.9709 5.35838C21.7836 4.77127 22.7745 4.48368 23.7752 4.54449C24.7717 4.60346 25.7195 4.99608 26.4658 5.65914C27.2121 6.3222 27.7136 7.21712 27.8895 8.19982C27.9391 8.47906 27.9611 8.7625 27.9553 9.04605C27.9512 9.23707 27.9865 9.42689 28.059 9.60366C28.1316 9.78043 28.2397 9.94037 28.3768 10.0735C28.5138 10.2066 28.6768 10.3101 28.8556 10.3775C29.0344 10.4448 29.2252 10.4746 29.416 10.465C34.8906 10.307 36.0743 17.9669 30.815 19.4888C30.1343 19.6702 29.4211 19.6937 28.7299 19.5574C28.0388 19.4211 27.3879 19.1286 26.827 18.7024C26.6703 18.58 26.4886 18.4935 26.2949 18.449C26.1011 18.4044 25.8999 18.4029 25.7054 18.4445C25.511 18.4861 25.3281 18.5698 25.1695 18.6898C25.0109 18.8097 24.8805 18.963 24.7876 19.1388C24.3925 19.9128 23.7773 20.5527 23.0196 20.978C22.5322 20.2899 21.8393 19.774 21.0403 19.5045C20.2413 19.2351 19.3775 19.2258 18.5729 19.4782C17.7684 19.7306 17.0646 20.2316 16.5627 20.9091C16.0608 21.5867 15.7866 22.406 15.7796 23.2491C15.9635 28.5086 23.5491 28.5172 23.7362 23.249C23.7358 22.8648 23.6796 22.4826 23.5692 22.1146C24.5725 21.5649 25.3857 20.7242 25.9019 19.7032C25.9272 19.6616 25.9949 19.638 26.0696 19.6953C31.8878 23.9175 38.7339 16.2724 33.8139 10.9693ZM19.7578 25.978C19.0383 25.9716 18.3503 25.6813 17.8437 25.1702C17.3371 24.6591 17.0529 23.9686 17.0529 23.249C17.0529 22.5294 17.3372 21.8389 17.8438 21.3278C18.3504 20.8168 19.0383 20.5265 19.7579 20.5201C20.4775 20.5265 21.1655 20.8168 21.672 21.3279C22.1786 21.839 22.4628 22.5295 22.4628 23.2491C22.4628 23.9687 22.1786 24.6592 21.672 25.1703C21.1654 25.6813 20.4774 25.9716 19.7578 25.978Z" fill="#7B7B7B"/>
<path d="M28.5769 24.2296C27.6955 22.1577 24.6206 23.0786 24.6645 25.2173C24.6657 25.3822 24.732 25.5399 24.849 25.6561C24.966 25.7722 25.1242 25.8374 25.2891 25.8374C25.4539 25.8374 25.6121 25.7722 25.7291 25.656C25.8461 25.5399 25.9124 25.3822 25.9135 25.2173C25.9136 24.9762 26.0091 24.7449 26.1791 24.574C26.3492 24.4031 26.58 24.3065 26.821 24.3052C26.9503 24.3063 27.0764 24.3454 27.1837 24.4176C27.291 24.4898 27.3747 24.5919 27.4244 24.7112C27.4742 24.8305 27.4878 24.9619 27.4636 25.0889C27.4394 25.2159 27.3784 25.3329 27.2882 25.4256L25.0432 27.7328C24.943 27.8387 24.8757 27.9715 24.8497 28.115C24.8237 28.2585 24.84 28.4065 24.8966 28.5409C24.9533 28.6753 25.0478 28.7902 25.1687 28.8718C25.2897 28.9533 25.4317 28.9979 25.5775 29.0001H28.0628C28.2263 28.9969 28.3821 28.9297 28.4966 28.8129C28.6111 28.6961 28.6752 28.5391 28.6752 28.3755C28.6752 28.212 28.6111 28.055 28.4965 27.9382C28.382 27.8214 28.2263 27.7542 28.0627 27.751H26.7686L28.1835 26.2965C28.4474 26.0302 28.6257 25.6913 28.6958 25.3231C28.7659 24.9549 28.7245 24.5741 28.5769 24.2296Z" fill="#7B7B7B"/>
</svg>
