<svg width="36" height="30" viewBox="0 0 36 30" fill="none" xmlns="http://www.w3.org/2000/svg">
<path d="M8.9375 22.0434C9.05581 27.7345 26.9448 27.7358 27.0625 22.0433C27.0625 20.2099 24.8232 18.6743 21.3779 18.0495C23.7455 15.517 26.6627 11.8225 26.6627 8.98739C26.1884 -2.50156 9.8128 -2.50471 9.33727 8.98746C9.33727 11.8225 12.2545 15.517 14.6221 18.0495C11.1768 18.6743 8.9375 20.2099 8.9375 22.0434ZM25.8125 22.0434C25.8125 23.4839 22.6039 25.0891 18 25.0891C13.3961 25.0891 10.1875 23.4838 10.1875 22.0434C10.1875 20.9606 12.1146 19.6041 15.6844 19.1502C16.716 20.1855 17.4873 20.8686 17.5874 20.9564C17.7014 21.0567 17.8481 21.112 18 21.112C18.1519 21.112 18.2986 21.0567 18.4126 20.9564C18.5127 20.8686 19.2839 20.1855 20.3156 19.1502C23.8854 19.6041 25.8125 20.9606 25.8125 22.0434ZM18 1.57468C19.9653 1.57685 21.8495 2.35853 23.2392 3.74822C24.6289 5.1379 25.4105 7.02209 25.4127 8.98739C25.4127 11.5543 22.2082 15.425 19.6961 17.9976C17.6507 20.004 18.3554 20.0171 16.3046 17.9982C13.7923 15.4256 10.5873 11.5546 10.5873 8.98739C10.5895 7.02209 11.3711 5.1379 12.7608 3.74822C14.1505 2.35853 16.0347 1.57685 18 1.57468Z" fill="#7B7B7B"/>
<path d="M26.5907 15.0872C26.4312 15.0501 26.2635 15.0772 26.1237 15.1625C25.9839 15.2478 25.8831 15.3846 25.8431 15.5435C25.8032 15.7023 25.8271 15.8705 25.9099 16.0118C25.9926 16.1532 26.1275 16.2564 26.2856 16.2993C41.9492 20.6619 31.9884 28.9193 17.9999 28.7497C4.01289 28.9191 -5.95047 20.6624 9.71453 16.2991C9.87524 16.2586 10.0133 16.156 10.0983 16.0137C10.1833 15.8715 10.2084 15.7012 10.1679 15.5405C10.1274 15.3798 10.0247 15.2418 9.88249 15.1567C9.74022 15.0717 9.57001 15.0467 9.40929 15.0872C3.83069 16.4891 0.5 19.0899 0.5 22.0433C0.5 26.505 8.18677 29.9999 18 29.9999C27.8132 29.9999 35.5 26.505 35.5 22.0433C35.5 19.0899 32.1693 16.4891 26.5907 15.0872Z" fill="#7B7B7B"/>
<path d="M17.3723 13.2569V14.4811C17.3755 14.6447 17.4427 14.8006 17.5596 14.9152C17.6765 15.0298 17.8336 15.094 17.9973 15.094C18.161 15.094 18.3181 15.0298 18.435 14.9152C18.5519 14.8006 18.6191 14.6447 18.6223 14.481V13.2569C19.5406 13.1213 20.3908 12.6936 21.0472 12.0372C21.7036 11.3809 22.1312 10.5306 22.2668 9.6123H23.491C23.6568 9.6123 23.8158 9.54645 23.933 9.42924C24.0502 9.31203 24.116 9.15306 24.116 8.9873C24.116 8.82154 24.0502 8.66257 23.933 8.54536C23.8158 8.42815 23.6568 8.3623 23.491 8.3623H22.2668C22.1312 7.444 21.7036 6.59375 21.0472 5.93738C20.3908 5.281 19.5406 4.85337 18.6223 4.71777V3.49353C18.6191 3.32988 18.5518 3.17401 18.435 3.05941C18.3181 2.9448 18.161 2.88061 17.9973 2.88062C17.8336 2.88062 17.6764 2.94482 17.5596 3.05943C17.4427 3.17404 17.3755 3.32992 17.3723 3.49357V4.71777C16.454 4.85337 15.6037 5.28101 14.9473 5.93739C14.291 6.59377 13.8633 7.44402 13.7277 8.36232H12.5035C12.3399 8.36552 12.184 8.43278 12.0694 8.54964C11.9548 8.66651 11.8906 8.82366 11.8906 8.98735C11.8906 9.15103 11.9548 9.30818 12.0694 9.42504C12.1841 9.5419 12.3399 9.60914 12.5036 9.61232H13.7277C13.8633 10.5306 14.291 11.3809 14.9474 12.0373C15.6037 12.6936 16.454 13.1213 17.3723 13.2569ZM17.9932 5.91766C22.0526 6.04003 22.0556 11.931 17.9972 12.0562C13.9436 11.9314 13.9399 6.04952 17.9932 5.91766Z" fill="#7B7B7B"/>
</svg>
