<svg width="326" height="136" viewBox="0 0 326 136" fill="none" xmlns="http://www.w3.org/2000/svg">
<g clip-path="url(#clip0_403_5)">
<mask id="mask0_403_5" style="mask-type:luminance" maskUnits="userSpaceOnUse" x="0" y="0" width="326" height="136">
<path d="M-0.00137329 0H325.266V136H-0.00137329V0Z" fill="white"/>
</mask>
<g mask="url(#mask0_403_5)">
<path d="M100.789 52.3477C100.879 52.3485 100.969 52.3313 101.052 52.2971C101.135 52.263 101.211 52.2126 101.275 52.1489C101.339 52.0851 101.389 52.0093 101.423 51.9259C101.457 51.8425 101.474 51.7531 101.474 51.663C101.476 51.4794 101.405 51.3025 101.276 51.1712C101.148 51.0399 100.973 50.9649 100.789 50.9626H98.2395C98.0543 50.9645 97.8772 51.0388 97.7463 51.1698C97.6153 51.3007 97.5409 51.4778 97.5391 51.663C97.5413 51.8466 97.6164 52.0219 97.7477 52.1502C97.879 52.2786 98.0559 52.3496 98.2395 52.3477H100.789Z" fill="#BEBEBE"/>
<path d="M119.576 81.3748C119.575 81.4649 119.593 81.5542 119.627 81.6375C119.661 81.7209 119.712 81.7966 119.775 81.8602C119.839 81.9239 119.915 81.9744 119.998 82.0086C120.081 82.0428 120.171 82.0601 120.261 82.0595C120.444 82.0614 120.621 81.9904 120.753 81.862C120.884 81.7337 120.959 81.5585 120.961 81.3748V66.3664C120.956 66.1837 120.88 66.0102 120.749 65.8825C120.619 65.7547 120.443 65.6827 120.261 65.6817H111.42C111.239 65.6832 111.065 65.7558 110.937 65.8838C110.809 66.0118 110.736 66.1851 110.734 66.3664V81.5811C110.733 81.6713 110.751 81.7607 110.785 81.8441C110.819 81.9275 110.87 82.0033 110.934 82.067C110.998 82.1307 111.073 82.1811 111.157 82.2152C111.24 82.2494 111.33 82.2665 111.42 82.2658C111.511 82.2667 111.601 82.2498 111.685 82.2159C111.77 82.182 111.846 82.1318 111.911 82.0682C111.976 82.0046 112.028 81.9289 112.064 81.8453C112.099 81.7617 112.118 81.672 112.119 81.5811V67.0682H119.576V81.3748Z" fill="#BEBEBE"/>
<path d="M76.0299 67.0682H110.728V80.8807H76.0299V67.0682ZM111.41 65.6817H75.341C75.1598 65.6832 74.9866 65.7558 74.8585 65.8839C74.7304 66.012 74.6578 66.1853 74.6563 66.3664V81.5811C74.6555 81.6712 74.6727 81.7606 74.7069 81.844C74.741 81.9274 74.7914 82.0032 74.8551 82.0669C74.9189 82.1307 74.9946 82.1811 75.0781 82.2152C75.1615 82.2494 75.2508 82.2665 75.341 82.2658H111.414C111.505 82.2667 111.595 82.2498 111.68 82.2159C111.764 82.182 111.841 82.1318 111.906 82.0682C111.971 82.0046 112.022 81.9289 112.058 81.8453C112.094 81.7617 112.112 81.672 112.113 81.5811V66.3664C112.109 66.1838 112.033 66.0103 111.902 65.8826C111.772 65.7548 111.597 65.6828 111.414 65.6817H111.41Z" fill="#BEBEBE"/>
<path d="M107.391 79.2879C107.394 79.4715 107.469 79.6467 107.6 79.7751C107.731 79.9034 107.908 79.9744 108.092 79.9725C108.182 79.9733 108.271 79.9561 108.355 79.922C108.438 79.8878 108.514 79.8374 108.578 79.7737C108.641 79.71 108.692 79.6342 108.726 79.5508C108.76 79.4674 108.777 79.378 108.776 79.2879V69.4746C108.777 69.3844 108.76 69.295 108.726 69.2115C108.692 69.128 108.641 69.0521 108.578 68.9883C108.514 68.9244 108.438 68.8739 108.355 68.8396C108.271 68.8053 108.182 68.7879 108.092 68.7885C108.001 68.7876 107.91 68.8046 107.826 68.8385C107.741 68.8725 107.664 68.9228 107.599 68.9865C107.534 69.0502 107.483 69.1261 107.447 69.2099C107.411 69.2936 107.392 69.3836 107.391 69.4746V79.2879Z" fill="#BEBEBE"/>
<path d="M101.594 79.2879C101.603 79.4642 101.678 79.6307 101.806 79.7526C101.934 79.8746 102.103 79.9426 102.28 79.9426C102.456 79.9426 102.626 79.8746 102.754 79.7526C102.881 79.6307 102.957 79.4642 102.965 79.2879V69.4747C102.969 69.382 102.955 69.2895 102.922 69.2026C102.89 69.1158 102.84 69.0364 102.776 68.9694C102.712 68.9023 102.635 68.8489 102.55 68.8125C102.464 68.776 102.373 68.7572 102.28 68.7572C102.187 68.7572 102.095 68.776 102.01 68.8125C101.925 68.8489 101.848 68.9023 101.784 68.9694C101.72 69.0364 101.67 69.1158 101.637 69.2026C101.605 69.2895 101.59 69.382 101.594 69.4747V79.2879Z" fill="#BEBEBE"/>
<path d="M95.7812 79.2879C95.7812 79.3778 95.799 79.4668 95.8334 79.5499C95.8678 79.6329 95.9182 79.7084 95.9818 79.772C96.0454 79.8356 96.1208 79.886 96.2038 79.9204C96.2869 79.9548 96.376 79.9725 96.466 79.9725C96.5559 79.9725 96.6449 79.9548 96.728 79.9204C96.811 79.886 96.8865 79.8356 96.9501 79.772C97.0137 79.7084 97.064 79.6329 97.0984 79.5499C97.1328 79.4668 97.1506 79.3778 97.1506 79.2879V69.4746C97.1506 69.3847 97.1328 69.2957 97.0984 69.2126C97.064 69.1295 97.0137 69.0541 96.9501 68.9905C96.8865 68.9269 96.811 68.8765 96.728 68.8421C96.6449 68.8077 96.5559 68.7899 96.466 68.7899C96.376 68.7899 96.2869 68.8077 96.2038 68.8421C96.1208 68.8765 96.0454 68.9269 95.9818 68.9905C95.9182 69.0541 95.8678 69.1295 95.8334 69.2126C95.799 69.2957 95.7812 69.3847 95.7812 69.4746V79.2879Z" fill="#BEBEBE"/>
<path d="M89.9695 79.2879C89.9776 79.4642 90.0533 79.6307 90.181 79.7526C90.3086 79.8746 90.4784 79.9426 90.6549 79.9426C90.8315 79.9426 91.0012 79.8746 91.1289 79.7526C91.2565 79.6307 91.3323 79.4642 91.3403 79.2879V69.4747C91.3446 69.382 91.33 69.2895 91.2974 69.2026C91.2649 69.1158 91.2151 69.0364 91.151 68.9694C91.087 68.9023 91.01 68.8489 90.9247 68.8125C90.8394 68.776 90.7477 68.7572 90.6549 68.7572C90.5622 68.7572 90.4704 68.776 90.3851 68.8125C90.2999 68.8489 90.2229 68.9023 90.1588 68.9694C90.0948 69.0364 90.045 69.1158 90.0124 69.2026C89.9799 69.2895 89.9653 69.382 89.9695 69.4747V79.2879Z" fill="#BEBEBE"/>
<path d="M84.157 79.2879C84.165 79.4642 84.2407 79.6307 84.3684 79.7526C84.496 79.8746 84.6658 79.9426 84.8423 79.9426C85.0189 79.9426 85.1886 79.8746 85.3163 79.7526C85.4439 79.6307 85.5197 79.4642 85.5277 79.2879V69.4747C85.532 69.382 85.5174 69.2895 85.4848 69.2026C85.4523 69.1158 85.4025 69.0364 85.3385 68.9694C85.2744 68.9023 85.1974 68.8489 85.1121 68.8125C85.0269 68.776 84.9351 68.7572 84.8423 68.7572C84.7496 68.7572 84.6578 68.776 84.5725 68.8125C84.4873 68.8489 84.4103 68.9023 84.3462 68.9694C84.2822 69.0364 84.2324 69.1158 84.1998 69.2026C84.1673 69.2895 84.1527 69.382 84.157 69.4747V79.2879Z" fill="#BEBEBE"/>
<path d="M78.3445 79.2879C78.3526 79.4642 78.4283 79.6307 78.556 79.7526C78.6836 79.8746 78.8534 79.9426 79.0299 79.9426C79.2064 79.9426 79.3762 79.8746 79.5039 79.7526C79.6315 79.6307 79.7073 79.4642 79.7153 79.2879V69.4747C79.7196 69.382 79.7049 69.2895 79.6724 69.2026C79.6399 69.1158 79.5901 69.0364 79.526 68.9694C79.462 68.9023 79.385 68.8489 79.2997 68.8125C79.2144 68.776 79.1226 68.7572 79.0299 68.7572C78.9372 68.7572 78.8454 68.776 78.7601 68.8125C78.6749 68.8489 78.5979 68.9023 78.5338 68.9694C78.4698 69.0364 78.4199 69.1158 78.3874 69.2026C78.3549 69.2895 78.3403 69.382 78.3445 69.4747V79.2879Z" fill="#BEBEBE"/>
<path d="M17.037 77.9013H54.1241V83.7483H17.037V77.9013ZM54.8088 76.5148H16.3567C16.1719 76.5188 15.9959 76.5941 15.8653 76.7249C15.7348 76.8557 15.6598 77.0319 15.6562 77.2166V84.4487C15.6584 84.6323 15.7335 84.8076 15.8648 84.9359C15.9962 85.0643 16.173 85.1353 16.3567 85.1334H54.8088C54.8989 85.1342 54.9883 85.117 55.0718 85.0828C55.1552 85.0487 55.231 84.9983 55.2947 84.9346C55.3584 84.8708 55.4088 84.795 55.443 84.7116C55.4771 84.6282 55.4943 84.5388 55.4935 84.4487V77.2166C55.4947 77.1256 55.4777 77.0352 55.444 76.9507C55.4102 76.8661 55.3602 76.7891 55.2966 76.7239C55.233 76.6587 55.1572 76.6067 55.0735 76.5708C54.9898 76.5349 54.8998 76.5159 54.8088 76.5148Z" fill="#BEBEBE"/>
<path d="M21.75 84.7839C21.7952 84.7055 21.8245 84.619 21.8362 84.5292C21.8479 84.4395 21.8417 84.3483 21.818 84.261C21.7943 84.1737 21.7536 84.0919 21.6982 84.0203C21.6427 83.9488 21.5737 83.889 21.495 83.8442C21.3361 83.7561 21.1492 83.7333 20.9738 83.7806C20.7984 83.8279 20.6483 83.9417 20.5554 84.0978L11.0286 100.731C10.9722 100.828 10.9393 100.936 10.9326 101.049L8.61935 134.646C8.61214 134.737 8.623 134.827 8.65128 134.913C8.67956 134.999 8.72467 135.079 8.78403 135.147C8.84338 135.215 8.91579 135.271 8.99696 135.311C9.07813 135.351 9.16644 135.374 9.25675 135.38H11.232C11.4066 135.377 11.5743 135.311 11.7035 135.194C11.8328 135.076 11.9147 134.916 11.9339 134.742L16.2826 103.645L29.5693 84.8469C29.6749 84.6962 29.7173 84.5101 29.6873 84.3286C29.6573 84.147 29.5573 83.9845 29.4089 83.8757C29.3347 83.8244 29.2512 83.7882 29.163 83.7692C29.0748 83.7502 28.9837 83.7487 28.895 83.765C28.8062 83.7812 28.7215 83.8148 28.6458 83.8638C28.57 83.9128 28.5047 83.9762 28.4535 84.0505L15.0651 102.992C14.9998 103.082 14.9561 103.185 14.9376 103.295L10.6519 133.993H10.046L12.3077 101.272L21.75 84.7839Z" fill="#BEBEBE"/>
<path d="M50.6894 84.0978C50.5972 83.9409 50.4471 83.8264 50.2714 83.779C50.0957 83.7316 49.9084 83.755 49.7498 83.8443C49.6711 83.889 49.602 83.9488 49.5466 84.0204C49.4912 84.092 49.4506 84.1738 49.427 84.2612C49.4034 84.3486 49.3974 84.4398 49.4093 84.5295C49.4212 84.6192 49.4507 84.7057 49.4962 84.7839L58.9428 101.272L61.2045 133.993H60.5986L56.3115 103.295C56.2919 103.185 56.2479 103.082 56.1826 102.992L42.8042 84.0462C42.7536 83.968 42.6877 83.9007 42.6105 83.8485C42.5333 83.7964 42.4463 83.7603 42.3549 83.7426C42.2634 83.7248 42.1692 83.7258 42.0781 83.7453C41.987 83.7648 41.9008 83.8025 41.8246 83.8562C41.7484 83.9099 41.6839 83.9784 41.6348 84.0577C41.5858 84.1369 41.5533 84.2252 41.5392 84.3174C41.5252 84.4095 41.5298 84.5035 41.553 84.5937C41.5762 84.684 41.6173 84.7687 41.674 84.8426L54.9751 103.641L59.3195 134.742C59.3305 134.916 59.4076 135.079 59.5349 135.197C59.6623 135.316 59.8302 135.381 60.0042 135.38H61.9794C62.0697 135.374 62.158 135.351 62.2392 135.311C62.3204 135.271 62.3928 135.215 62.4521 135.147C62.5115 135.079 62.5566 134.999 62.5849 134.913C62.6132 134.827 62.624 134.737 62.6168 134.646L60.3064 101.049C60.307 100.935 60.2736 100.825 60.2104 100.731L50.6894 84.0978Z" fill="#BEBEBE"/>
<path d="M11.1627 107.341C10.9777 107.345 10.8013 107.42 10.6705 107.551C10.5396 107.681 10.4645 107.858 10.4609 108.043C10.462 108.134 10.481 108.224 10.5169 108.307C10.5528 108.391 10.6048 108.467 10.67 108.531C10.7352 108.594 10.8122 108.644 10.8968 108.678C10.9813 108.712 11.0717 108.729 11.1627 108.728H60.1658C60.2559 108.728 60.3453 108.711 60.4287 108.677C60.5121 108.643 60.5879 108.592 60.6517 108.529C60.7154 108.465 60.7658 108.389 60.7999 108.306C60.8341 108.222 60.8513 108.133 60.8505 108.043C60.8516 107.952 60.8348 107.861 60.801 107.777C60.7672 107.692 60.7171 107.615 60.6535 107.55C60.5899 107.485 60.5142 107.433 60.4305 107.397C60.3468 107.361 60.2569 107.342 60.1658 107.341H11.1627Z" fill="#BEBEBE"/>
<path d="M11.1627 102.18C10.9773 102.182 10.7999 102.256 10.6686 102.387C10.5373 102.518 10.4627 102.695 10.4609 102.881C10.462 102.972 10.481 103.062 10.5169 103.145C10.5528 103.229 10.6048 103.305 10.67 103.368C10.7352 103.432 10.8122 103.482 10.8968 103.516C10.9813 103.55 11.0717 103.566 11.1627 103.565H60.1658C60.256 103.566 60.3453 103.549 60.4287 103.515C60.5122 103.481 60.5879 103.43 60.6517 103.366C60.7154 103.303 60.7658 103.227 60.7999 103.143C60.8341 103.06 60.8513 102.971 60.8505 102.881C60.8524 102.697 60.7814 102.52 60.653 102.389C60.5247 102.257 60.3495 102.182 60.1658 102.18H11.1627Z" fill="#BEBEBE"/>
<path d="M51.0074 70.0318C50.9034 70.1758 50.8598 70.3547 50.8857 70.5304C50.9116 70.7061 51.005 70.8647 51.1461 70.9726C51.2872 71.0804 51.4648 71.129 51.6411 71.1079C51.8174 71.0868 51.9785 70.9978 52.0902 70.8598L99.8701 8.68165C101.4 6.81956 101.846 4.77842 101.512 3.1541C101.382 2.42454 101.05 1.74585 100.555 1.19461C100.061 0.637615 99.4028 0.252311 98.6755 0.0945422C97.3376 -0.20769 95.6159 0.190513 93.7366 1.64008C93.7209 1.64008 93.7051 1.65584 93.688 1.67159L35.6523 56.2452C35.527 56.3716 35.4557 56.5416 35.4532 56.7196C35.4507 56.8975 35.5173 57.0694 35.639 57.1993C35.7607 57.3291 35.9279 57.4067 36.1057 57.4158C36.2834 57.4248 36.4577 57.3646 36.5919 57.2479L94.6032 2.70004C96.1158 1.53695 97.4064 1.21896 98.3776 1.44098C98.827 1.53455 99.2348 1.76885 99.5421 2.1099C99.8629 2.48999 100.082 2.94544 100.178 3.43342C100.433 4.67529 100.051 6.28385 98.8087 7.81363C98.8087 7.81781 98.807 7.82181 98.8041 7.82477C98.8011 7.82772 98.7971 7.82938 98.7929 7.82938L51.0074 70.0318Z" fill="#BEBEBE"/>
<path d="M111.42 80.8807C111.329 80.8816 111.239 80.9005 111.155 80.9362C111.072 80.9719 110.996 81.0237 110.932 81.0888C110.868 81.1538 110.818 81.2308 110.784 81.3153C110.75 81.3997 110.733 81.4901 110.734 81.5811C110.733 81.6713 110.751 81.7607 110.785 81.8441C110.819 81.9276 110.87 82.0033 110.934 82.067C110.998 82.1307 111.073 82.1811 111.157 82.2152C111.24 82.2494 111.33 82.2665 111.42 82.2658H120.261C120.444 82.2677 120.621 82.1967 120.753 82.0683C120.884 81.9399 120.959 81.7647 120.961 81.5811C120.96 81.3958 120.885 81.2185 120.754 81.0875C120.623 80.9564 120.446 80.8822 120.261 80.8807H111.42Z" fill="#BEBEBE"/>
<path d="M99.2968 53.75C99.2887 53.5718 99.2122 53.4035 99.0832 53.2803C98.9542 53.157 98.7827 53.0882 98.6043 53.0882C98.4259 53.0882 98.2543 53.157 98.1253 53.2803C97.9963 53.4035 97.9198 53.5718 97.9117 53.75V55.1036C97.9154 55.2883 97.9903 55.4645 98.1208 55.5953C98.2513 55.7261 98.4274 55.8014 98.6121 55.8055H98.6608C98.7573 55.8001 98.8536 55.8174 98.9421 55.8559C99.0307 55.8945 99.109 55.9532 99.1708 56.0275C99.3613 56.2194 99.4415 56.5374 99.4573 56.8869C99.4888 57.3968 99.2653 57.6833 98.9946 57.8108C98.8765 57.8727 98.7454 57.9056 98.6121 57.9068C98.4774 57.9225 98.3409 57.9058 98.2139 57.8581C97.9919 57.795 97.8157 57.6518 97.8157 57.4599C97.8057 57.2789 97.7251 57.109 97.5911 56.9869C97.4572 56.8647 97.2807 56.8 97.0995 56.8067C97.0093 56.81 96.9207 56.8312 96.8388 56.8692C96.7569 56.9071 96.6835 56.961 96.6226 57.0277C96.5618 57.0944 96.5149 57.1725 96.4847 57.2575C96.4544 57.3426 96.4414 57.4328 96.4464 57.5229C96.4779 58.3823 97.0666 58.9553 97.8315 59.1801C98.1105 59.2603 98.4011 59.2927 98.6909 59.2761C98.9879 59.2614 99.2794 59.1909 99.5504 59.0684C100.316 58.7332 100.89 57.9999 100.84 56.821C100.822 56.1935 100.598 55.5893 100.202 55.1022C99.9608 54.8244 99.646 54.6204 99.2939 54.5135L99.2968 53.75Z" fill="#BEBEBE"/>
<path fill-rule="evenodd" clip-rule="evenodd" d="M97.0859 50.1977H100.032L99.7788 53.9247H97.4211L97.0859 50.1977Z" fill="#BEBEBE"/>
<path d="M97.8326 50.8981H99.2994L99.1233 53.2401H98.0403L97.8326 50.8981ZM100.031 49.513H97.0234C96.9333 49.5207 96.8455 49.5463 96.7653 49.5882C96.6851 49.63 96.6141 49.6874 96.5562 49.757C96.4984 49.8265 96.4549 49.9069 96.4284 49.9933C96.4019 50.0798 96.3928 50.1707 96.4017 50.2607L96.7212 53.9735C96.7367 54.1496 96.8168 54.3137 96.9461 54.4343C97.0755 54.5549 97.2447 54.6234 97.4215 54.6266H99.7792C99.9517 54.6225 100.116 54.5554 100.243 54.438C100.369 54.3206 100.448 54.1609 100.465 53.9892L100.719 50.2922C100.732 50.2628 100.738 50.2302 100.736 50.1977C100.735 50.1067 100.716 50.0167 100.68 49.9331C100.644 49.8494 100.592 49.7736 100.527 49.71C100.461 49.6464 100.384 49.5963 100.3 49.5625C100.215 49.5287 100.125 49.5119 100.034 49.513H100.031Z" fill="#BEBEBE"/>
<path d="M96.9063 50.2292C96.9044 50.413 96.9754 50.59 97.1037 50.7215C97.232 50.8531 97.4073 50.9284 97.591 50.9311C97.776 50.9274 97.9524 50.8523 98.0832 50.7214C98.2141 50.5906 98.2892 50.4142 98.2929 50.2292V10.5939C98.2906 10.4099 98.2154 10.2343 98.0838 10.1057C97.9523 9.97702 97.775 9.90585 97.591 9.90776C97.5009 9.90738 97.4115 9.92488 97.3282 9.95924C97.2449 9.99361 97.1692 10.0442 97.1055 10.108C97.0418 10.1718 96.9914 10.2476 96.9572 10.331C96.9231 10.4144 96.9058 10.5037 96.9063 10.5939V50.2292ZM98.6252 50.2292C98.6209 50.3218 98.6355 50.4144 98.668 50.5012C98.7006 50.5881 98.7504 50.6674 98.8145 50.7345C98.8785 50.8015 98.9555 50.8549 99.0408 50.8914C99.126 50.9279 99.2178 50.9467 99.3106 50.9467C99.4033 50.9467 99.4951 50.9279 99.5804 50.8914C99.6656 50.8549 99.7426 50.8015 99.8067 50.7345C99.8707 50.6674 99.9205 50.5881 99.9531 50.5012C99.9856 50.4144 100 50.3218 99.996 50.2292V9.19157C99.9879 9.01522 99.9122 8.84875 99.7845 8.7268C99.6569 8.60485 99.4871 8.5368 99.3106 8.5368C99.134 8.5368 98.9643 8.60485 98.8366 8.7268C98.709 8.84875 98.6332 9.01522 98.6252 9.19157V50.2292Z" fill="#BEBEBE"/>
<path d="M77.8595 65.7462C77.6982 65.8258 77.5746 65.9656 77.5152 66.1353C77.4557 66.3051 77.4652 66.4914 77.5415 66.6543C77.5787 66.7363 77.6318 66.8101 77.6978 66.8714C77.7637 66.9327 77.8412 66.9802 77.9257 67.0113C78.0102 67.0423 78.1001 67.0563 78.19 67.0523C78.28 67.0483 78.3682 67.0264 78.4497 66.988L98.1248 57.5472L116.923 66.9723C117.086 67.0543 117.274 67.0685 117.448 67.0119C117.621 66.9552 117.764 66.8323 117.847 66.67C117.926 66.505 117.937 66.3155 117.877 66.1426C117.817 65.9697 117.692 65.8273 117.528 65.7462L98.4428 56.1707C98.347 56.1215 98.2414 56.0946 98.1338 56.0918C98.0261 56.0891 97.9193 56.1107 97.8211 56.155L77.8595 65.7462Z" fill="#BEBEBE"/>
<path d="M22.7685 70.2066C22.7685 70.3904 22.8415 70.5668 22.9715 70.6968C23.1015 70.8268 23.2779 70.8998 23.4618 70.8998C23.6456 70.8998 23.822 70.8268 23.952 70.6968C24.082 70.5668 24.155 70.3904 24.155 70.2066V56.3125H34.08C36.326 57.4427 38.0477 59.2274 39.2738 61.5536C40.6116 64.086 41.3608 67.2401 41.5656 70.9041C41.576 71.0878 41.659 71.2598 41.7963 71.3823C41.9336 71.5048 42.1139 71.5678 42.2976 71.5573C42.4812 71.5469 42.6532 71.4639 42.7757 71.3266C42.8982 71.1893 42.9611 71.009 42.9507 70.8254C42.7272 66.9694 41.9151 63.6248 40.4985 60.9162C39.1119 58.2878 37.1524 56.2968 34.5871 55.0434C34.4761 54.978 34.3491 54.9448 34.2204 54.9474H23.4675C23.2837 54.9455 23.1067 55.0165 22.9752 55.1448C22.8436 55.2732 22.7683 55.4484 22.7656 55.6321L22.7685 70.2066Z" fill="#BEBEBE"/>
<path d="M16.3567 77.9013H54.8088C54.9899 77.8998 55.1633 77.8272 55.2913 77.6991C55.4194 77.571 55.492 77.3978 55.4935 77.2166V70.9557C55.4947 70.8647 55.4777 70.7743 55.444 70.6897C55.4102 70.6052 55.3602 70.5281 55.2966 70.463C55.233 70.3978 55.1572 70.3458 55.0735 70.3099C54.9898 70.274 54.8998 70.255 54.8088 70.2538H16.3567C16.1719 70.2579 15.9959 70.3332 15.8653 70.464C15.7348 70.5948 15.6598 70.7709 15.6562 70.9557V77.2166C15.6614 77.3993 15.7374 77.5728 15.8681 77.7005C15.9987 77.8283 16.1739 77.9003 16.3567 77.9013ZM54.1299 76.5148H17.0428V71.6447H54.1241L54.1299 76.5148Z" fill="#BEBEBE"/>
<path d="M69.9287 135.572C70.1126 135.572 70.2889 135.499 70.4189 135.369C70.5489 135.239 70.622 135.062 70.622 134.878C70.622 134.695 70.5489 134.518 70.4189 134.388C70.2889 134.258 70.1126 134.185 69.9287 134.185H0.693249C0.509382 134.185 0.33305 134.258 0.203037 134.388C0.0730233 134.518 0 134.695 0 134.878C0 135.062 0.0730233 135.239 0.203037 135.369C0.33305 135.499 0.509382 135.572 0.693249 135.572H69.9287Z" fill="#BEBEBE"/>
<path d="M37.9521 57.7965C37.7683 57.8114 37.598 57.8987 37.4785 58.0392C37.359 58.1796 37.3001 58.3618 37.3147 58.5456C37.3224 58.6358 37.348 58.7236 37.39 58.8038C37.432 58.884 37.4895 58.955 37.5593 59.0128C37.629 59.0705 37.7095 59.1138 37.7962 59.14C37.8828 59.1663 37.9738 59.1751 38.0639 59.1658L62.3899 57.096C62.4801 57.0881 62.5679 57.0624 62.648 57.0204C62.7282 56.9784 62.7993 56.9209 62.8571 56.8512C62.9149 56.7815 62.9583 56.7011 62.9848 56.6145C63.0114 56.5279 63.0205 56.437 63.0116 56.3469C63.0066 56.2493 62.9795 56.1541 62.9323 56.0685C62.8852 55.9829 62.8192 55.9091 62.7395 55.8527L50.5642 45.1786L73.6971 42.407C73.8759 42.3793 74.0375 42.2851 74.1496 42.1433C74.2617 42.0014 74.316 41.8223 74.3016 41.6421C74.2733 41.4795 74.1958 41.3295 74.0796 41.2124L64.8708 31.4307L85.0559 27.6549C85.2352 27.6228 85.3944 27.521 85.4988 27.3717C85.6033 27.2225 85.6443 27.038 85.6131 26.8585C85.5852 26.7008 85.5 26.559 85.3739 26.4603L77.4399 19.562L94.9149 14.8953C95.091 14.8462 95.241 14.7306 95.3332 14.5728C95.4255 14.4151 95.4527 14.2277 95.4091 14.0502C95.3688 13.9316 95.3033 13.8231 95.2172 13.7322L89.7541 7.91675L101.08 5.06489C101.168 5.04297 101.251 5.00397 101.323 4.95011C101.396 4.89625 101.458 4.82858 101.504 4.75097C101.551 4.67336 101.582 4.58732 101.595 4.49778C101.608 4.40824 101.604 4.31694 101.582 4.22909C101.56 4.14125 101.521 4.05858 101.467 3.98581C101.413 3.91304 101.346 3.85159 101.268 3.80497C101.191 3.75835 101.105 3.72747 101.015 3.7141C100.925 3.70073 100.834 3.70513 100.746 3.72705L88.2716 6.86539C88.1607 6.89632 88.0577 6.95052 87.9693 7.02438C87.8384 7.15044 87.7619 7.32262 87.756 7.50427C87.7501 7.68592 87.8154 7.86269 87.9378 7.99696L93.4554 13.8597L75.8371 18.5593V18.5751C75.7014 18.6054 75.5787 18.6776 75.4862 18.7813C75.3708 18.9222 75.3146 19.1024 75.3296 19.2839C75.3446 19.4653 75.4294 19.6339 75.5664 19.7539L83.4044 26.572L63.427 30.2962C63.3012 30.3107 63.182 30.36 63.0827 30.4386C62.9835 30.5172 62.9081 30.6219 62.8651 30.741C62.8221 30.86 62.8131 30.9887 62.8393 31.1126C62.8654 31.2365 62.9256 31.3506 63.013 31.4421L72.1731 41.1923L48.8697 43.9998C48.7038 44.0186 48.5507 44.0982 48.44 44.2232C48.3798 44.2911 48.3337 44.3702 48.3043 44.456C48.275 44.5417 48.2629 44.6325 48.2689 44.723C48.2749 44.8135 48.2988 44.9019 48.3393 44.983C48.3797 45.0642 48.4358 45.1365 48.5045 45.1958L60.6596 55.8527L37.9521 57.7965Z" fill="#BEBEBE"/>
<path d="M286.552 135.722C288.384 133.574 292.48 130.934 297.401 127.758C306.642 121.837 318.797 114.032 325.19 103.386C325.281 103.229 325.308 103.042 325.263 102.866C325.218 102.69 325.105 102.538 324.949 102.444C324.842 102.369 324.716 102.33 324.585 102.332H222.898C222.801 102.333 222.705 102.355 222.617 102.396C222.529 102.437 222.45 102.497 222.387 102.571L214.008 110.783H71.7942C71.6127 110.785 71.4392 110.858 71.3112 110.987C71.1831 111.115 71.1107 111.289 71.1096 111.471C71.0609 112.237 70.5839 122.484 73.6578 128.278C74.8209 130.48 75.7605 131.981 77.2258 133.177C78.6911 134.343 80.6206 135.156 83.7904 135.97C83.857 135.991 83.9276 135.997 83.9967 135.986H286.01C286.115 135.985 286.219 135.96 286.312 135.913C286.406 135.866 286.488 135.798 286.552 135.715V135.722ZM296.741 126.618C291.881 129.725 287.819 132.337 285.763 134.599L84.1256 134.615C81.2107 133.85 79.4431 133.134 78.1683 132.098C76.8935 131.063 76.0326 129.693 74.934 127.638C72.3858 122.826 72.4488 114.559 72.5119 112.2H214.346C214.436 112.201 214.525 112.184 214.607 112.148C214.69 112.113 214.763 112.06 214.823 111.993L223.251 103.773H323.409C317.037 113.602 305.55 120.961 296.741 126.618Z" fill="#BEBEBE"/>
<path d="M210.894 111.293C210.893 111.384 210.911 111.473 210.945 111.557C210.98 111.641 211.03 111.717 211.095 111.781C211.159 111.845 211.236 111.895 211.32 111.929C211.404 111.962 211.494 111.979 211.584 111.978C211.675 111.979 211.766 111.962 211.85 111.928C211.935 111.894 212.012 111.844 212.077 111.781C212.142 111.717 212.194 111.641 212.23 111.558C212.266 111.474 212.285 111.384 212.286 111.293V95.3133C212.284 95.1278 212.21 94.9506 212.079 94.8196C211.947 94.6886 211.77 94.6143 211.584 94.6129H202.169C201.984 94.6144 201.807 94.6886 201.676 94.8197C201.545 94.9507 201.47 95.128 201.469 95.3133V111.499C201.47 111.684 201.545 111.862 201.676 111.993C201.807 112.124 201.984 112.198 202.169 112.2C202.26 112.199 202.35 112.18 202.434 112.144C202.518 112.108 202.594 112.057 202.657 111.991C202.721 111.926 202.771 111.849 202.805 111.765C202.839 111.681 202.856 111.59 202.855 111.499V95.998H210.9L210.894 111.293Z" fill="#BEBEBE"/>
<path d="M164.416 95.998H201.472V110.814H164.416V95.998ZM202.172 94.6129H163.732C163.548 94.6151 163.373 94.6901 163.244 94.8215C163.116 94.9528 163.045 95.1297 163.047 95.3133V111.499C163.045 111.683 163.116 111.86 163.244 111.991C163.373 112.122 163.548 112.197 163.732 112.2H202.172C202.263 112.199 202.353 112.18 202.437 112.144C202.521 112.108 202.597 112.057 202.661 111.991C202.724 111.926 202.775 111.849 202.809 111.765C202.842 111.681 202.859 111.59 202.859 111.499V95.3133C202.859 95.2222 202.842 95.1319 202.809 95.0474C202.775 94.963 202.724 94.886 202.661 94.821C202.597 94.7559 202.521 94.7041 202.437 94.6684C202.353 94.6326 202.263 94.6138 202.172 94.6129Z" fill="#BEBEBE"/>
<path d="M197.93 109.063C197.932 109.248 198.006 109.425 198.137 109.556C198.268 109.687 198.445 109.762 198.631 109.763C198.814 109.761 198.99 109.686 199.118 109.555C199.246 109.423 199.317 109.246 199.315 109.063V98.6063C199.316 98.5162 199.299 98.4267 199.265 98.3432C199.231 98.2597 199.18 98.1838 199.117 98.12C199.053 98.0562 198.977 98.0056 198.894 97.9713C198.81 97.937 198.721 97.9197 198.631 97.9202C198.54 97.9193 198.449 97.9363 198.365 97.9703C198.28 98.0042 198.204 98.0545 198.138 98.1182C198.073 98.1819 198.022 98.2578 197.986 98.3416C197.95 98.4253 197.931 98.5153 197.93 98.6063V109.063Z" fill="#BEBEBE"/>
<path d="M191.734 109.063C191.735 109.248 191.81 109.425 191.941 109.556C192.073 109.687 192.25 109.762 192.435 109.763C192.619 109.761 192.794 109.686 192.923 109.555C193.051 109.423 193.122 109.246 193.12 109.063V98.6063C193.121 98.5162 193.104 98.4267 193.07 98.3432C193.035 98.2597 192.985 98.1838 192.921 98.12C192.858 98.0562 192.782 98.0056 192.698 97.9713C192.615 97.937 192.526 97.9197 192.435 97.9202C192.251 97.9183 192.074 97.9895 191.943 98.1181C191.811 98.2468 191.736 98.4223 191.734 98.6063V109.063Z" fill="#BEBEBE"/>
<path d="M185.555 109.063C185.551 109.155 185.566 109.248 185.598 109.335C185.631 109.422 185.681 109.501 185.745 109.568C185.809 109.635 185.886 109.688 185.971 109.725C186.056 109.761 186.148 109.78 186.241 109.78C186.334 109.78 186.425 109.761 186.511 109.725C186.596 109.688 186.673 109.635 186.737 109.568C186.801 109.501 186.851 109.422 186.883 109.335C186.916 109.248 186.93 109.155 186.926 109.063V98.6063C186.93 98.5137 186.916 98.4212 186.883 98.3343C186.851 98.2475 186.801 98.1681 186.737 98.1011C186.673 98.034 186.596 97.9806 186.511 97.9442C186.425 97.9077 186.334 97.8889 186.241 97.8889C186.148 97.8889 186.056 97.9077 185.971 97.9442C185.886 97.9806 185.809 98.034 185.745 98.1011C185.681 98.1681 185.631 98.2475 185.598 98.3343C185.566 98.4212 185.551 98.5137 185.555 98.6063V109.063Z" fill="#BEBEBE"/>
<path d="M179.368 109.063C179.364 109.155 179.378 109.248 179.411 109.335C179.443 109.422 179.493 109.501 179.557 109.568C179.621 109.635 179.698 109.688 179.783 109.725C179.869 109.761 179.961 109.78 180.053 109.78C180.146 109.78 180.238 109.761 180.323 109.725C180.408 109.688 180.485 109.635 180.549 109.568C180.613 109.501 180.663 109.422 180.696 109.335C180.728 109.248 180.743 109.155 180.739 109.063V98.6063C180.743 98.5137 180.728 98.4212 180.696 98.3343C180.663 98.2475 180.613 98.1681 180.549 98.1011C180.485 98.034 180.408 97.9806 180.323 97.9442C180.238 97.9077 180.146 97.8889 180.053 97.8889C179.961 97.8889 179.869 97.9077 179.783 97.9442C179.698 97.9806 179.621 98.034 179.557 98.1011C179.493 98.1681 179.443 98.2475 179.411 98.3343C179.378 98.4212 179.364 98.5137 179.368 98.6063V109.063Z" fill="#BEBEBE"/>
<path d="M173.156 109.063C173.154 109.246 173.225 109.423 173.353 109.555C173.482 109.686 173.657 109.761 173.841 109.763C174.026 109.761 174.203 109.687 174.334 109.556C174.465 109.425 174.539 109.248 174.541 109.063V98.6063C174.539 98.4226 174.464 98.2472 174.333 98.1186C174.201 97.99 174.024 97.9187 173.841 97.9202C173.75 97.9196 173.661 97.937 173.578 97.9713C173.494 98.0056 173.418 98.0561 173.355 98.12C173.291 98.1838 173.241 98.2597 173.206 98.3432C173.172 98.4267 173.155 98.5161 173.156 98.6063V109.063Z" fill="#BEBEBE"/>
<path d="M166.961 109.063C166.959 109.246 167.03 109.423 167.158 109.555C167.286 109.686 167.462 109.761 167.645 109.763C167.831 109.762 168.008 109.687 168.139 109.556C168.27 109.425 168.344 109.248 168.346 109.063V98.6063C168.345 98.5153 168.326 98.4253 168.29 98.3416C168.255 98.2578 168.203 98.1819 168.138 98.1182C168.073 98.0545 167.996 98.0042 167.911 97.9703C167.827 97.9363 167.736 97.9193 167.645 97.9202C167.555 97.9197 167.466 97.937 167.382 97.9713C167.299 98.0056 167.223 98.0562 167.159 98.12C167.096 98.1838 167.045 98.2597 167.011 98.3432C166.977 98.4267 166.96 98.5162 166.961 98.6063V109.063Z" fill="#BEBEBE"/>
<path d="M202.17 110.814C202.076 110.81 201.983 110.825 201.895 110.858C201.807 110.891 201.727 110.941 201.66 111.006C201.592 111.071 201.538 111.148 201.501 111.234C201.464 111.321 201.445 111.413 201.445 111.507C201.445 111.601 201.464 111.693 201.501 111.78C201.538 111.866 201.592 111.944 201.66 112.008C201.727 112.073 201.807 112.123 201.895 112.156C201.983 112.189 202.076 112.204 202.17 112.2H211.591C211.684 112.204 211.778 112.189 211.866 112.156C211.953 112.123 212.033 112.073 212.101 112.008C212.169 111.944 212.223 111.866 212.26 111.78C212.297 111.693 212.315 111.601 212.315 111.507C212.315 111.413 212.297 111.321 212.26 111.234C212.223 111.148 212.169 111.071 212.101 111.006C212.033 110.941 211.953 110.891 211.866 110.858C211.778 110.825 211.684 110.81 211.591 110.814H202.17Z" fill="#BEBEBE"/>
<path d="M190.82 94.6129C190.728 94.6138 190.639 94.6326 190.555 94.6684C190.471 94.7041 190.395 94.7559 190.331 94.821C190.268 94.886 190.217 94.963 190.183 95.0474C190.149 95.1319 190.132 95.2222 190.133 95.3133C190.133 95.4035 190.15 95.4929 190.185 95.5763C190.219 95.6597 190.269 95.7355 190.333 95.7992C190.397 95.8629 190.473 95.9133 190.556 95.9474C190.64 95.9815 190.729 95.9987 190.82 95.998H197.461C197.552 95.9987 197.641 95.9815 197.725 95.9474C197.808 95.9133 197.884 95.8629 197.948 95.7992C198.012 95.7355 198.062 95.6597 198.096 95.5763C198.131 95.4929 198.148 95.4035 198.148 95.3133C198.149 95.2222 198.132 95.1319 198.098 95.0474C198.064 94.963 198.013 94.886 197.95 94.821C197.886 94.7559 197.81 94.7041 197.726 94.6684C197.642 94.6326 197.553 94.6138 197.461 94.6129H190.82Z" fill="#BEBEBE"/>
<path d="M209.486 95.0913C209.482 95.1839 209.496 95.2765 209.529 95.3633C209.561 95.4502 209.611 95.5295 209.675 95.5966C209.739 95.6636 209.816 95.717 209.902 95.7535C209.987 95.7899 210.079 95.8087 210.171 95.8087C210.264 95.8087 210.356 95.7899 210.441 95.7535C210.527 95.717 210.604 95.6636 210.668 95.5966C210.732 95.5295 210.781 95.4502 210.814 95.3633C210.846 95.2765 210.861 95.1839 210.857 95.0913V79.1117C210.857 79.0215 210.84 78.9321 210.806 78.8486C210.771 78.7652 210.721 78.6895 210.657 78.6257C210.593 78.562 210.517 78.5116 210.434 78.4775C210.35 78.4434 210.261 78.4262 210.171 78.427H200.74C200.65 78.4262 200.56 78.4434 200.477 78.4776C200.394 78.5117 200.318 78.5621 200.254 78.6258C200.19 78.6896 200.14 78.7653 200.106 78.8488C200.072 78.9322 200.055 79.0215 200.055 79.1117V95.3133C200.055 95.4034 200.072 95.4928 200.106 95.5762C200.14 95.6596 200.19 95.7354 200.254 95.7991C200.318 95.8629 200.394 95.9133 200.477 95.9474C200.56 95.9816 200.65 95.9987 200.74 95.998C200.831 95.9991 200.921 95.9823 201.006 95.9485C201.09 95.9147 201.168 95.8646 201.233 95.801C201.298 95.7374 201.35 95.6616 201.386 95.578C201.422 95.4943 201.441 95.4043 201.442 95.3133V79.7978H209.486V95.0913Z" fill="#BEBEBE"/>
<path d="M162.996 79.7978H200.052V94.6129H162.996V79.7978ZM200.737 78.427H162.317C162.134 78.4251 161.957 78.4961 161.826 78.6245C161.694 78.7528 161.619 78.928 161.617 79.1117V95.3133C161.619 95.4969 161.694 95.6721 161.826 95.8005C161.957 95.9289 162.134 95.9999 162.317 95.998H200.737C200.828 95.9991 200.918 95.9823 201.003 95.9485C201.087 95.9147 201.164 95.8646 201.229 95.801C201.295 95.7374 201.347 95.6616 201.382 95.578C201.418 95.4943 201.437 95.4043 201.439 95.3133V79.1117C201.437 79.0206 201.418 78.9307 201.382 78.847C201.347 78.7633 201.295 78.6875 201.229 78.624C201.164 78.5604 201.087 78.5103 201.003 78.4765C200.918 78.4427 200.828 78.4259 200.737 78.427Z" fill="#BEBEBE"/>
<path d="M196.508 92.8768C196.509 93.0581 196.582 93.2316 196.71 93.3597C196.838 93.4879 197.012 93.5604 197.193 93.5615C197.376 93.5612 197.552 93.4895 197.683 93.3616C197.814 93.2338 197.89 93.0599 197.895 92.8768V82.409C197.894 82.318 197.874 82.228 197.839 82.1443C197.803 82.0607 197.751 81.9849 197.686 81.9213C197.62 81.8577 197.543 81.8076 197.459 81.7738C197.374 81.74 197.284 81.7232 197.193 81.7243C197.103 81.7238 197.013 81.7411 196.93 81.7753C196.847 81.8095 196.771 81.8599 196.707 81.9236C196.644 81.9873 196.593 82.063 196.559 82.1463C196.525 82.2296 196.508 82.3189 196.508 82.409V92.8768Z" fill="#BEBEBE"/>
<path d="M190.32 92.8768C190.321 93.0581 190.394 93.2316 190.522 93.3597C190.65 93.4879 190.823 93.5604 191.005 93.5615C191.188 93.5608 191.363 93.489 191.494 93.3612C191.624 93.2333 191.7 93.0596 191.705 92.8768V82.409C191.703 82.2254 191.628 82.0502 191.497 81.9218C191.365 81.7935 191.188 81.7224 191.005 81.7243C190.915 81.7238 190.825 81.7411 190.742 81.7753C190.659 81.8095 190.583 81.8599 190.519 81.9236C190.456 81.9873 190.405 82.063 190.371 82.1463C190.337 82.2297 190.319 82.319 190.32 82.409V92.8768Z" fill="#BEBEBE"/>
<path d="M184.117 92.8768C184.117 93.0607 184.19 93.237 184.321 93.367C184.451 93.4971 184.627 93.5701 184.811 93.5701C184.995 93.5701 185.171 93.4971 185.301 93.367C185.431 93.237 185.504 93.0607 185.504 92.8768V82.409C185.504 82.2251 185.431 82.0488 185.301 81.9188C185.171 81.7888 184.995 81.7157 184.811 81.7157C184.627 81.7157 184.451 81.7888 184.321 81.9188C184.19 82.0488 184.117 82.2251 184.117 82.409V92.8768Z" fill="#BEBEBE"/>
<path d="M177.93 92.8768C177.935 93.0596 178.011 93.2333 178.142 93.3612C178.273 93.489 178.448 93.5608 178.631 93.5615C178.812 93.5604 178.986 93.4879 179.114 93.3597C179.242 93.2316 179.314 93.0581 179.315 92.8768V82.409C179.316 82.319 179.299 82.2297 179.265 82.1463C179.23 82.063 179.18 81.9873 179.116 81.9236C179.053 81.8599 178.977 81.8095 178.893 81.7753C178.81 81.7411 178.721 81.7238 178.631 81.7243C178.447 81.7224 178.27 81.7935 178.139 81.9218C178.008 82.0502 177.933 82.2254 177.93 82.409V92.8768Z" fill="#BEBEBE"/>
<path d="M171.719 92.8768C171.724 93.0598 171.8 93.2335 171.931 93.3613C172.062 93.489 172.238 93.5608 172.421 93.5615C172.602 93.56 172.775 93.4874 172.903 93.3593C173.031 93.2313 173.104 93.058 173.106 92.8768V82.409C173.106 82.319 173.089 82.2297 173.055 82.1463C173.02 82.063 172.97 81.9873 172.906 81.9236C172.843 81.8599 172.767 81.8095 172.684 81.7753C172.6 81.7411 172.511 81.7238 172.421 81.7243C172.237 81.7224 172.06 81.7934 171.929 81.9217C171.797 82.0501 171.722 82.2253 171.719 82.409V92.8768Z" fill="#BEBEBE"/>
<path d="M165.547 92.8768C165.547 93.0584 165.619 93.2326 165.747 93.361C165.876 93.4894 166.05 93.5615 166.231 93.5615C166.413 93.5615 166.587 93.4894 166.716 93.361C166.844 93.2326 166.916 93.0584 166.916 92.8768V82.409C166.916 82.2274 166.844 82.0533 166.716 81.9249C166.587 81.7965 166.413 81.7243 166.231 81.7243C166.05 81.7243 165.876 81.7965 165.747 81.9249C165.619 82.0533 165.547 82.2274 165.547 82.409V92.8768Z" fill="#BEBEBE"/>
<path d="M200.74 94.6129C200.556 94.6151 200.381 94.6901 200.252 94.8215C200.124 94.9528 200.053 95.1297 200.055 95.3133C200.054 95.4034 200.071 95.4928 200.106 95.5762C200.14 95.6596 200.19 95.7354 200.254 95.7991C200.318 95.8629 200.393 95.9133 200.477 95.9474C200.56 95.9815 200.65 95.9987 200.74 95.998H210.17C210.261 95.9987 210.35 95.9815 210.434 95.9474C210.517 95.9133 210.593 95.8629 210.657 95.7992C210.721 95.7355 210.771 95.6597 210.805 95.5763C210.84 95.4929 210.857 95.4035 210.857 95.3133C210.857 95.2222 210.84 95.1319 210.807 95.0474C210.773 94.963 210.722 94.886 210.659 94.821C210.595 94.7559 210.519 94.7041 210.435 94.6684C210.351 94.6326 210.261 94.6138 210.17 94.6129H200.74Z" fill="#BEBEBE"/>
<path d="M265.658 111.293C265.666 111.469 265.741 111.636 265.869 111.758C265.997 111.88 266.166 111.948 266.343 111.948C266.52 111.948 266.689 111.88 266.817 111.758C266.945 111.636 267.02 111.469 267.028 111.293V95.3133C267.03 95.1297 266.959 94.9528 266.831 94.8215C266.703 94.6901 266.527 94.6151 266.344 94.6129H256.929C256.743 94.6143 256.566 94.6886 256.435 94.8196C256.303 94.9506 256.229 95.1278 256.227 95.3133V111.499C256.227 111.683 256.3 111.859 256.43 111.989C256.56 112.119 256.736 112.192 256.92 112.192C257.104 112.192 257.28 112.119 257.41 111.989C257.54 111.859 257.613 111.683 257.613 111.499V95.998H265.658V111.293Z" fill="#BEBEBE"/>
<path d="M219.166 95.998H256.222V110.814H219.166V95.998ZM256.924 94.6129H218.482C218.298 94.6151 218.123 94.6901 217.995 94.8215C217.866 94.9528 217.795 95.1297 217.797 95.3133V111.499C217.795 111.683 217.866 111.86 217.995 111.991C218.123 112.122 218.298 112.197 218.482 112.2H256.924C257.107 112.195 257.28 112.119 257.408 111.988C257.536 111.857 257.608 111.682 257.609 111.499V95.3133C257.608 95.1304 257.536 94.955 257.408 94.8243C257.28 94.6935 257.107 94.6177 256.924 94.6129Z" fill="#BEBEBE"/>
<path d="M252.688 109.063C252.688 109.247 252.76 109.423 252.89 109.553C253.02 109.683 253.196 109.756 253.38 109.756C253.564 109.756 253.74 109.683 253.87 109.553C254 109.423 254.074 109.247 254.074 109.063V98.6064C254.074 98.4225 254 98.2462 253.87 98.1161C253.74 97.9861 253.564 97.9131 253.38 97.9131C253.196 97.9131 253.02 97.9861 252.89 98.1161C252.76 98.2462 252.688 98.4225 252.688 98.6064V109.063Z" fill="#BEBEBE"/>
<path d="M246.493 109.063C246.489 109.156 246.504 109.25 246.537 109.338C246.569 109.425 246.62 109.505 246.685 109.573C246.749 109.641 246.827 109.695 246.913 109.732C246.999 109.768 247.092 109.787 247.186 109.787C247.279 109.787 247.372 109.768 247.458 109.732C247.544 109.695 247.622 109.641 247.687 109.573C247.752 109.505 247.802 109.425 247.835 109.338C247.868 109.25 247.883 109.156 247.878 109.063V98.6063C247.87 98.4281 247.794 98.2599 247.665 98.1366C247.536 98.0134 247.364 97.9446 247.186 97.9446C247.007 97.9446 246.836 98.0134 246.707 98.1366C246.578 98.2599 246.501 98.4281 246.493 98.6063V109.063Z" fill="#BEBEBE"/>
<path d="M240.289 109.063C240.291 109.248 240.365 109.426 240.497 109.557C240.628 109.688 240.806 109.762 240.991 109.763C241.175 109.761 241.35 109.686 241.478 109.555C241.607 109.423 241.678 109.246 241.676 109.063V98.6063C241.677 98.5162 241.659 98.4267 241.625 98.3432C241.591 98.2597 241.541 98.1838 241.477 98.12C241.413 98.0562 241.338 98.0056 241.254 97.9713C241.171 97.937 241.081 97.9197 240.991 97.9202C240.807 97.9183 240.63 97.9895 240.498 98.1181C240.367 98.2468 240.292 98.4223 240.289 98.6063V109.063Z" fill="#BEBEBE"/>
<path d="M234.117 109.063C234.117 109.244 234.189 109.418 234.318 109.547C234.446 109.675 234.62 109.747 234.802 109.747C234.983 109.747 235.157 109.675 235.286 109.547C235.414 109.418 235.486 109.244 235.486 109.063V98.6063C235.486 98.4248 235.414 98.2506 235.286 98.1222C235.157 97.9938 234.983 97.9217 234.802 97.9217C234.62 97.9217 234.446 97.9938 234.318 98.1222C234.189 98.2506 234.117 98.4248 234.117 98.6063V109.063Z" fill="#BEBEBE"/>
<path d="M227.923 109.063C227.918 109.155 227.933 109.248 227.965 109.335C227.998 109.422 228.048 109.501 228.112 109.568C228.176 109.635 228.253 109.688 228.338 109.725C228.423 109.761 228.515 109.78 228.608 109.78C228.701 109.78 228.792 109.761 228.878 109.725C228.963 109.688 229.04 109.635 229.104 109.568C229.168 109.501 229.218 109.422 229.25 109.335C229.283 109.248 229.298 109.155 229.293 109.063V98.6063C229.298 98.5137 229.283 98.4212 229.25 98.3343C229.218 98.2475 229.168 98.1681 229.104 98.1011C229.04 98.034 228.963 97.9806 228.878 97.9442C228.792 97.9077 228.701 97.8889 228.608 97.8889C228.515 97.8889 228.423 97.9077 228.338 97.9442C228.253 97.9806 228.176 98.034 228.112 98.1011C228.048 98.1681 227.998 98.2475 227.965 98.3343C227.933 98.4212 227.918 98.5137 227.923 98.6063V109.063Z" fill="#BEBEBE"/>
<path d="M221.711 109.063C221.711 109.244 221.783 109.418 221.911 109.547C222.04 109.675 222.214 109.747 222.395 109.747C222.577 109.747 222.751 109.675 222.88 109.547C223.008 109.418 223.08 109.244 223.08 109.063V98.6063C223.08 98.4248 223.008 98.2506 222.88 98.1222C222.751 97.9938 222.577 97.9217 222.395 97.9217C222.214 97.9217 222.04 97.9938 221.911 98.1222C221.783 98.2506 221.711 98.4248 221.711 98.6063V109.063Z" fill="#BEBEBE"/>
<path d="M256.919 110.814C256.826 110.81 256.732 110.825 256.645 110.858C256.557 110.891 256.477 110.941 256.409 111.006C256.341 111.071 256.287 111.148 256.25 111.234C256.214 111.321 256.195 111.413 256.195 111.507C256.195 111.601 256.214 111.693 256.25 111.78C256.287 111.866 256.341 111.944 256.409 112.008C256.477 112.073 256.557 112.123 256.645 112.156C256.732 112.189 256.826 112.204 256.919 112.2H266.334C266.513 112.192 266.681 112.115 266.804 111.986C266.927 111.857 266.996 111.685 266.996 111.507C266.996 111.329 266.927 111.157 266.804 111.028C266.681 110.899 266.513 110.823 266.334 110.814H256.919Z" fill="#BEBEBE"/>
<path d="M245.583 94.6129C245.4 94.6151 245.224 94.6901 245.096 94.8215C244.968 94.9528 244.897 95.1297 244.898 95.3133C244.898 95.4034 244.915 95.4928 244.949 95.5762C244.983 95.6596 245.034 95.7354 245.097 95.7991C245.161 95.8629 245.237 95.9133 245.32 95.9474C245.404 95.9815 245.493 95.9987 245.583 95.998H252.227C252.317 95.9987 252.406 95.9815 252.489 95.9474C252.573 95.9133 252.649 95.8629 252.712 95.7991C252.776 95.7354 252.827 95.6596 252.861 95.5762C252.895 95.4928 252.912 95.4034 252.911 95.3133C252.913 95.1297 252.842 94.9528 252.714 94.8215C252.585 94.6901 252.41 94.6151 252.227 94.6129H245.583Z" fill="#BEBEBE"/>
<path d="M264.227 95.0913C264.231 95.276 264.306 95.4521 264.437 95.5826C264.568 95.7131 264.744 95.7881 264.929 95.7917C265.112 95.7894 265.287 95.7144 265.416 95.5831C265.544 95.4518 265.615 95.2749 265.613 95.0913V79.1117C265.614 79.0215 265.597 78.9322 265.563 78.8488C265.529 78.7653 265.478 78.6896 265.414 78.6258C265.351 78.5621 265.275 78.5117 265.192 78.4776C265.108 78.4434 265.019 78.4262 264.929 78.427H255.498C255.408 78.4262 255.318 78.4434 255.235 78.4776C255.152 78.5117 255.076 78.5621 255.012 78.6258C254.948 78.6896 254.898 78.7653 254.864 78.8488C254.83 78.9322 254.812 79.0215 254.813 79.1117V95.3133C254.813 95.4949 254.885 95.669 255.014 95.7974C255.142 95.9258 255.316 95.998 255.498 95.998C255.679 95.998 255.854 95.9258 255.982 95.7974C256.11 95.669 256.183 95.4949 256.183 95.3133V79.7978H264.227V95.0913Z" fill="#BEBEBE"/>
<path d="M217.753 79.7978H254.809V94.6129H217.753V79.7978ZM255.494 78.427H217.052C216.87 78.4281 216.697 78.5006 216.569 78.6288C216.441 78.757 216.368 78.9304 216.367 79.1117V95.3133C216.368 95.4946 216.441 95.6681 216.569 95.7962C216.697 95.9244 216.87 95.9969 217.052 95.998H255.495C255.585 95.9986 255.675 95.9813 255.758 95.947C255.841 95.9128 255.917 95.8624 255.981 95.7987C256.044 95.735 256.095 95.6593 256.129 95.576C256.163 95.4927 256.18 95.4034 256.18 95.3133V79.1117C256.18 79.0216 256.163 78.9323 256.129 78.849C256.095 78.7657 256.044 78.69 255.981 78.6263C255.917 78.5626 255.841 78.5122 255.758 78.478C255.675 78.4438 255.585 78.4264 255.495 78.427H255.494Z" fill="#BEBEBE"/>
<path d="M251.266 92.8768C251.266 93.0584 251.339 93.2326 251.467 93.361C251.595 93.4894 251.77 93.5615 251.951 93.5615C252.133 93.5615 252.307 93.4894 252.435 93.361C252.564 93.2326 252.636 93.0584 252.636 92.8768V82.409C252.636 82.2274 252.564 82.0533 252.435 81.9249C252.307 81.7965 252.133 81.7243 251.951 81.7243C251.77 81.7243 251.595 81.7965 251.467 81.9249C251.339 82.0533 251.266 82.2274 251.266 82.409V92.8768Z" fill="#BEBEBE"/>
<path d="M245.07 92.8768C245.07 93.0584 245.142 93.2326 245.271 93.361C245.399 93.4894 245.573 93.5615 245.755 93.5615C245.936 93.5615 246.111 93.4894 246.239 93.361C246.367 93.2326 246.439 93.0584 246.44 92.8768V82.409C246.439 82.2274 246.367 82.0533 246.239 81.9249C246.111 81.7965 245.936 81.7243 245.755 81.7243C245.573 81.7243 245.399 81.7965 245.271 81.9249C245.142 82.0533 245.07 82.2274 245.07 82.409V92.8768Z" fill="#BEBEBE"/>
<path d="M238.875 92.8768C238.877 93.0582 238.95 93.2317 239.078 93.3598C239.206 93.4879 239.38 93.5604 239.561 93.5615C239.744 93.5608 239.92 93.489 240.05 93.3612C240.181 93.2333 240.257 93.0596 240.262 92.8768V82.409C240.26 82.2254 240.185 82.0502 240.053 81.9218C239.922 81.7935 239.745 81.7224 239.561 81.7243C239.471 81.7238 239.382 81.7411 239.298 81.7753C239.215 81.8095 239.139 81.8599 239.075 81.9235C239.012 81.9872 238.961 82.0629 238.927 82.1462C238.892 82.2296 238.875 82.3189 238.875 82.409V92.8768Z" fill="#BEBEBE"/>
<path d="M232.672 92.8768C232.68 93.0551 232.756 93.2233 232.885 93.3466C233.014 93.4698 233.186 93.5386 233.364 93.5386C233.543 93.5386 233.714 93.4698 233.843 93.3466C233.972 93.2233 234.049 93.0551 234.057 92.8768V82.409C234.049 82.2308 233.972 82.0625 233.843 81.9393C233.714 81.816 233.543 81.7473 233.364 81.7473C233.186 81.7473 233.014 81.816 232.885 81.9393C232.756 82.0625 232.68 82.2308 232.672 82.409V92.8768Z" fill="#BEBEBE"/>
<path d="M226.492 92.8768C226.497 93.0596 226.573 93.2333 226.703 93.3612C226.834 93.489 227.009 93.5608 227.192 93.5615C227.374 93.5604 227.547 93.4879 227.675 93.3597C227.803 93.2316 227.876 93.0581 227.877 92.8768V82.409C227.878 82.319 227.86 82.2297 227.826 82.1463C227.792 82.063 227.741 81.9873 227.678 81.9236C227.614 81.8599 227.538 81.8095 227.455 81.7753C227.372 81.7411 227.282 81.7238 227.192 81.7243C227.009 81.7224 226.832 81.7935 226.7 81.9218C226.569 82.0502 226.494 82.2254 226.492 82.409V92.8768Z" fill="#BEBEBE"/>
<path d="M220.289 92.8768C220.295 93.0598 220.371 93.2335 220.502 93.3613C220.633 93.489 220.808 93.5608 220.991 93.5615C221.172 93.56 221.346 93.4874 221.474 93.3593C221.602 93.2313 221.674 93.058 221.676 92.8768V82.409C221.676 82.319 221.659 82.2297 221.625 82.1463C221.591 82.063 221.54 81.9873 221.477 81.9236C221.413 81.8599 221.337 81.8095 221.254 81.7753C221.171 81.7411 221.081 81.7238 220.991 81.7243C220.807 81.7224 220.63 81.7934 220.499 81.9217C220.367 82.0501 220.292 82.2253 220.289 82.409V92.8768Z" fill="#BEBEBE"/>
<path d="M255.498 94.6129C255.314 94.6151 255.139 94.6901 255.011 94.8215C254.882 94.9528 254.811 95.1297 254.813 95.3133C254.812 95.4034 254.83 95.4928 254.864 95.5762C254.898 95.6596 254.948 95.7354 255.012 95.7991C255.076 95.8629 255.152 95.9133 255.235 95.9474C255.318 95.9815 255.408 95.9987 255.498 95.998H264.929C265.019 95.9987 265.108 95.9815 265.192 95.9474C265.275 95.9133 265.351 95.8629 265.414 95.7991C265.478 95.7354 265.529 95.6596 265.563 95.5762C265.597 95.4928 265.614 95.4034 265.613 95.3133C265.615 95.1297 265.544 94.9528 265.416 94.8215C265.287 94.6901 265.112 94.6151 264.929 94.6129H255.498Z" fill="#BEBEBE"/>
<path d="M239.111 78.8897C239.112 79.0751 239.187 79.2524 239.318 79.3834C239.45 79.5144 239.627 79.5886 239.812 79.5901C239.996 79.5878 240.171 79.5128 240.3 79.3815C240.428 79.2502 240.499 79.0733 240.497 78.8897V62.91C240.498 62.8199 240.481 62.7305 240.447 62.6471C240.412 62.5637 240.362 62.4879 240.298 62.4242C240.235 62.3605 240.159 62.3101 240.075 62.2759C239.992 62.2418 239.903 62.2246 239.812 62.2254H230.382C230.292 62.2246 230.202 62.2418 230.119 62.2759C230.035 62.31 229.959 62.3604 229.895 62.4241C229.832 62.4878 229.781 62.5636 229.747 62.647C229.712 62.7304 229.695 62.8199 229.696 62.91V79.1117C229.691 79.2043 229.706 79.2969 229.738 79.3837C229.771 79.4706 229.821 79.5499 229.885 79.617C229.949 79.684 230.026 79.7374 230.111 79.7739C230.196 79.8103 230.288 79.8291 230.381 79.8291C230.474 79.8291 230.566 79.8103 230.651 79.7739C230.736 79.7374 230.813 79.684 230.877 79.617C230.941 79.5499 230.991 79.4706 231.023 79.3837C231.056 79.2969 231.071 79.2043 231.066 79.1117V63.5962H239.111V78.8897Z" fill="#BEBEBE"/>
<path d="M192.643 63.5962H229.699V78.427H192.643V63.5962ZM230.385 62.2254H191.943C191.853 62.2246 191.763 62.2418 191.68 62.2759C191.596 62.3101 191.521 62.3605 191.457 62.4242C191.393 62.4879 191.343 62.5637 191.309 62.6471C191.274 62.7305 191.257 62.8199 191.258 62.91V79.1117C191.257 79.2019 191.274 79.2913 191.309 79.3748C191.343 79.4583 191.393 79.5342 191.457 79.598C191.52 79.6619 191.596 79.7124 191.68 79.7467C191.763 79.781 191.852 79.7984 191.943 79.7978H230.385C230.475 79.7982 230.564 79.7807 230.648 79.7463C230.731 79.7119 230.807 79.6614 230.87 79.5976C230.934 79.5338 230.984 79.458 231.019 79.3746C231.053 79.2912 231.07 79.2018 231.069 79.1117V62.91C231.07 62.82 231.053 62.7307 231.019 62.6474C230.984 62.564 230.934 62.4883 230.87 62.4246C230.807 62.3609 230.731 62.3105 230.648 62.2763C230.564 62.2421 230.475 62.2248 230.385 62.2254Z" fill="#BEBEBE"/>
<path d="M226.165 76.6752C226.173 76.8516 226.249 77.018 226.376 77.14C226.504 77.2619 226.674 77.33 226.85 77.33C227.027 77.33 227.196 77.2619 227.324 77.14C227.452 77.018 227.527 76.8516 227.536 76.6752V66.2189C227.54 66.1262 227.525 66.0337 227.493 65.9468C227.46 65.86 227.41 65.7806 227.346 65.7136C227.282 65.6465 227.205 65.5931 227.12 65.5567C227.035 65.5202 226.943 65.5014 226.85 65.5014C226.757 65.5014 226.666 65.5202 226.58 65.5567C226.495 65.5931 226.418 65.6465 226.354 65.7136C226.29 65.7806 226.24 65.86 226.208 65.9468C226.175 66.0337 226.161 66.1262 226.165 66.2189V76.6752Z" fill="#BEBEBE"/>
<path d="M219.961 76.6752C219.961 76.7651 219.978 76.8542 220.013 76.9372C220.047 77.0203 220.098 77.0958 220.161 77.1594C220.225 77.2229 220.3 77.2734 220.383 77.3078C220.466 77.3422 220.556 77.3599 220.645 77.3599C220.735 77.3599 220.824 77.3422 220.907 77.3078C220.991 77.2734 221.066 77.2229 221.13 77.1594C221.193 77.0958 221.244 77.0203 221.278 76.9372C221.312 76.8542 221.33 76.7651 221.33 76.6752V66.2189C221.33 66.1289 221.312 66.0399 221.278 65.9568C221.244 65.8738 221.193 65.7983 221.13 65.7347C221.066 65.6711 220.991 65.6207 220.907 65.5863C220.824 65.5519 220.735 65.5342 220.645 65.5342C220.556 65.5342 220.466 65.5519 220.383 65.5863C220.3 65.6207 220.225 65.6711 220.161 65.7347C220.098 65.7983 220.047 65.8738 220.013 65.9568C219.978 66.0399 219.961 66.1289 219.961 66.2189V76.6752Z" fill="#BEBEBE"/>
<path d="M213.766 76.6752C213.765 76.7653 213.783 76.8546 213.817 76.9379C213.851 77.0212 213.901 77.0969 213.965 77.1606C214.029 77.2243 214.105 77.2747 214.188 77.3089C214.271 77.3431 214.36 77.3605 214.451 77.3599C214.542 77.361 214.632 77.3442 214.717 77.3104C214.801 77.2766 214.878 77.2265 214.943 77.1629C215.008 77.0994 215.061 77.0236 215.096 76.9399C215.132 76.8562 215.151 76.7663 215.152 76.6752V66.2189C215.151 66.0334 215.076 65.8561 214.945 65.7251C214.813 65.5941 214.636 65.5199 214.451 65.5184C214.267 65.5207 214.092 65.5957 213.963 65.727C213.835 65.8584 213.764 66.0352 213.766 66.2189V76.6752Z" fill="#BEBEBE"/>
<path d="M207.57 76.6752C207.569 76.7653 207.587 76.8546 207.621 76.9379C207.655 77.0212 207.706 77.0969 207.769 77.1606C207.833 77.2243 207.909 77.2747 207.992 77.3089C208.075 77.3431 208.165 77.3605 208.255 77.3599C208.438 77.3618 208.615 77.2908 208.747 77.1624C208.878 77.0341 208.953 76.8588 208.955 76.6752V66.2189C208.953 66.0337 208.879 65.8566 208.748 65.7256C208.617 65.5947 208.44 65.5203 208.255 65.5184C208.071 65.5207 207.896 65.5957 207.767 65.727C207.639 65.8584 207.568 66.0352 207.57 66.2189V76.6752Z" fill="#BEBEBE"/>
<path d="M201.367 76.6752C201.367 76.8591 201.441 77.0354 201.571 77.1654C201.701 77.2954 201.877 77.3685 202.061 77.3685C202.245 77.3685 202.421 77.2954 202.551 77.1654C202.681 77.0354 202.754 76.8591 202.754 76.6752V66.2188C202.754 66.035 202.681 65.8586 202.551 65.7286C202.421 65.5986 202.245 65.5256 202.061 65.5256C201.877 65.5256 201.701 65.5986 201.571 65.7286C201.441 65.8586 201.367 66.035 201.367 66.2188V76.6752Z" fill="#BEBEBE"/>
<path d="M195.172 76.6752C195.174 76.8588 195.249 77.0341 195.381 77.1624C195.512 77.2908 195.689 77.3618 195.873 77.3599C195.963 77.3605 196.052 77.3432 196.135 77.309C196.219 77.2748 196.295 77.2244 196.358 77.1607C196.422 77.097 196.473 77.0214 196.507 76.938C196.542 76.8547 196.559 76.7654 196.559 76.6752V66.2189C196.56 66.0351 196.489 65.8582 196.36 65.727C196.232 65.5957 196.056 65.5207 195.873 65.5184C195.687 65.5203 195.51 65.5947 195.379 65.7256C195.248 65.8566 195.174 66.0337 195.172 66.2189V76.6752Z" fill="#BEBEBE"/>
<path d="M219.062 62.2254C218.969 62.2211 218.877 62.2357 218.79 62.2682C218.703 62.3008 218.624 62.3506 218.557 62.4146C218.489 62.4787 218.436 62.5557 218.4 62.641C218.363 62.7262 218.344 62.818 218.344 62.9108C218.344 63.0035 218.363 63.0953 218.4 63.1805C218.436 63.2658 218.489 63.3428 218.557 63.4069C218.624 63.4709 218.703 63.5207 218.79 63.5533C218.877 63.5858 218.969 63.6004 219.062 63.5961H225.688C225.781 63.6004 225.873 63.5858 225.96 63.5533C226.047 63.5207 226.126 63.4709 226.193 63.4069C226.26 63.3428 226.314 63.2658 226.35 63.1805C226.387 63.0953 226.405 63.0035 226.405 62.9108C226.405 62.818 226.387 62.7262 226.35 62.641C226.314 62.5557 226.26 62.4787 226.193 62.4146C226.126 62.3506 226.047 62.3008 225.96 62.2682C225.873 62.2357 225.781 62.2211 225.688 62.2254H219.062Z" fill="#BEBEBE"/>
<path d="M237.697 62.7038C237.696 62.7941 237.713 62.8837 237.747 62.9672C237.781 63.0508 237.832 63.1268 237.896 63.1906C237.96 63.2545 238.036 63.305 238.119 63.3392C238.203 63.3734 238.292 63.3907 238.383 63.3899C238.474 63.3908 238.564 63.3738 238.649 63.3399C238.733 63.3059 238.81 63.2556 238.875 63.1919C238.94 63.1282 238.992 63.0523 239.028 62.9685C239.063 62.8848 239.082 62.7948 239.083 62.7038V46.7084C239.081 46.5248 239.006 46.3496 238.875 46.2212C238.743 46.0928 238.566 46.0218 238.383 46.0237H228.968C228.877 46.0226 228.786 46.0394 228.702 46.0732C228.617 46.107 228.54 46.1571 228.475 46.2207C228.41 46.2843 228.358 46.3601 228.322 46.4438C228.286 46.5274 228.267 46.6174 228.266 46.7084V62.91C228.268 63.094 228.343 63.2696 228.475 63.3983C228.606 63.5269 228.784 63.5981 228.968 63.5961C229.058 63.5965 229.147 63.579 229.23 63.5447C229.314 63.5103 229.389 63.4598 229.453 63.396C229.517 63.3321 229.567 63.2564 229.601 63.1729C229.636 63.0895 229.653 63.0002 229.652 62.91V47.4103H237.697V62.7038Z" fill="#BEBEBE"/>
<path d="M191.213 47.4103H228.269V62.2254H191.213V47.4103ZM228.971 46.0237H190.529C190.438 46.023 190.349 46.0402 190.266 46.0743C190.182 46.1084 190.106 46.1588 190.043 46.2226C189.979 46.2863 189.929 46.3621 189.894 46.4455C189.86 46.5289 189.843 46.6183 189.844 46.7084V62.91C189.843 63.0002 189.86 63.0897 189.894 63.1732C189.929 63.2567 189.979 63.3325 190.043 63.3964C190.106 63.4602 190.182 63.5108 190.266 63.5451C190.349 63.5794 190.438 63.5967 190.529 63.5961H228.971C229.061 63.5965 229.15 63.579 229.234 63.5447C229.317 63.5103 229.393 63.4598 229.456 63.396C229.52 63.3321 229.57 63.2564 229.604 63.1729C229.639 63.0895 229.656 63.0002 229.655 62.91V46.7084C229.656 46.6183 229.639 46.5291 229.604 46.4457C229.57 46.3624 229.52 46.2867 229.456 46.223C229.392 46.1593 229.317 46.1089 229.233 46.0747C229.15 46.0405 229.061 46.0232 228.971 46.0237Z" fill="#BEBEBE"/>
<path d="M224.734 60.4721C224.734 60.656 224.807 60.8324 224.937 60.9624C225.067 61.0924 225.243 61.1654 225.427 61.1654C225.611 61.1654 225.787 61.0924 225.917 60.9624C226.047 60.8324 226.12 60.656 226.12 60.4721V50.0229C226.12 49.8391 226.047 49.6627 225.917 49.5327C225.787 49.4027 225.611 49.3297 225.427 49.3297C225.243 49.3297 225.067 49.4027 224.937 49.5327C224.807 49.6627 224.734 49.8391 224.734 50.0229V60.4721Z" fill="#BEBEBE"/>
<path d="M218.531 60.4721C218.532 60.5632 218.551 60.6531 218.586 60.7369C218.622 60.8207 218.674 60.8966 218.739 60.9603C218.804 61.024 218.881 61.0743 218.965 61.1082C219.05 61.1422 219.14 61.1592 219.231 61.1583C219.322 61.1588 219.411 61.1415 219.494 61.1072C219.578 61.0729 219.654 61.0223 219.717 60.9585C219.781 60.8946 219.831 60.8188 219.865 60.7353C219.9 60.6518 219.917 60.5623 219.916 60.4721V50.0229C219.917 49.9319 219.9 49.8415 219.867 49.757C219.833 49.6724 219.783 49.5954 219.719 49.5302C219.655 49.465 219.58 49.413 219.496 49.3771C219.412 49.3412 219.322 49.3222 219.231 49.3211C219.046 49.3226 218.868 49.3971 218.737 49.5284C218.606 49.6597 218.532 49.8374 218.531 50.0229V60.4721Z" fill="#BEBEBE"/>
<path d="M212.336 60.4721C212.338 60.6561 212.414 60.8317 212.545 60.9604C212.677 61.089 212.854 61.1602 213.038 61.1583C213.128 61.1586 213.217 61.1411 213.301 61.1068C213.384 61.0724 213.46 61.0219 213.524 60.9581C213.587 60.8942 213.638 60.8184 213.672 60.735C213.706 60.6516 213.723 60.5623 213.723 60.4721V50.0229C213.724 49.9319 213.707 49.8415 213.673 49.757C213.639 49.6724 213.589 49.5954 213.526 49.5302C213.462 49.465 213.386 49.413 213.303 49.3771C213.219 49.3412 213.129 49.3222 213.038 49.3211C212.852 49.3222 212.674 49.3965 212.543 49.5279C212.412 49.6593 212.337 49.8371 212.336 50.0229V60.4721Z" fill="#BEBEBE"/>
<path d="M206.141 60.4721C206.141 60.6537 206.214 60.8279 206.342 60.9563C206.47 61.0847 206.645 61.1568 206.826 61.1568C207.008 61.1568 207.182 61.0847 207.31 60.9563C207.439 60.8279 207.511 60.6537 207.511 60.4721V50.0229C207.511 49.8413 207.439 49.6672 207.31 49.5388C207.182 49.4104 207.008 49.3383 206.826 49.3383C206.645 49.3383 206.47 49.4104 206.342 49.5388C206.214 49.6672 206.141 49.8413 206.141 50.0229V60.4721Z" fill="#BEBEBE"/>
<path d="M199.962 60.4721C199.957 60.5648 199.972 60.6573 200.005 60.7442C200.037 60.831 200.087 60.9104 200.151 60.9774C200.215 61.0445 200.292 61.0978 200.377 61.1343C200.463 61.1708 200.554 61.1896 200.647 61.1896C200.74 61.1896 200.832 61.1708 200.917 61.1343C201.002 61.0978 201.079 61.0445 201.143 60.9774C201.207 60.9104 201.257 60.831 201.29 60.7442C201.322 60.6573 201.337 60.5648 201.332 60.4721V50.0229C201.337 49.9303 201.322 49.8378 201.29 49.7509C201.257 49.6641 201.207 49.5847 201.143 49.5177C201.079 49.4506 201.002 49.3972 200.917 49.3608C200.832 49.3243 200.74 49.3055 200.647 49.3055C200.554 49.3055 200.463 49.3243 200.377 49.3608C200.292 49.3972 200.215 49.4506 200.151 49.5177C200.087 49.5847 200.037 49.6641 200.005 49.7509C199.972 49.8378 199.957 49.9303 199.962 50.0229V60.4721Z" fill="#BEBEBE"/>
<path d="M193.758 60.4721C193.757 60.5623 193.774 60.6518 193.808 60.7353C193.842 60.8188 193.893 60.8946 193.956 60.9585C194.02 61.0223 194.096 61.0729 194.179 61.1072C194.263 61.1415 194.352 61.1588 194.442 61.1583C194.533 61.1592 194.624 61.1422 194.708 61.1082C194.793 61.0743 194.869 61.024 194.935 60.9603C195 60.8966 195.051 60.8207 195.087 60.7369C195.123 60.6531 195.142 60.5632 195.143 60.4721V50.0229C195.142 49.8374 195.067 49.6597 194.936 49.5284C194.805 49.3971 194.628 49.3226 194.442 49.3211C194.351 49.3222 194.261 49.3412 194.178 49.3771C194.094 49.413 194.018 49.465 193.954 49.5302C193.891 49.5954 193.841 49.6724 193.807 49.757C193.773 49.8415 193.756 49.9319 193.758 50.0229V60.4721Z" fill="#BEBEBE"/>
<path d="M228.967 62.2254C228.875 62.2211 228.782 62.2357 228.695 62.2682C228.608 62.3008 228.529 62.3506 228.462 62.4146C228.395 62.4787 228.341 62.5557 228.305 62.641C228.269 62.7262 228.25 62.818 228.25 62.9108C228.25 63.0035 228.269 63.0953 228.305 63.1805C228.341 63.2658 228.395 63.3428 228.462 63.4069C228.529 63.4709 228.608 63.5207 228.695 63.5533C228.782 63.5858 228.875 63.6004 228.967 63.5961H238.376C238.469 63.6004 238.562 63.5858 238.649 63.5533C238.735 63.5207 238.815 63.4709 238.882 63.4069C238.949 63.3428 239.002 63.2658 239.039 63.1805C239.075 63.0953 239.094 63.0035 239.094 62.9108C239.094 62.818 239.075 62.7262 239.039 62.641C239.002 62.5557 238.949 62.4787 238.882 62.4146C238.815 62.3506 238.735 62.3008 238.649 62.2682C238.562 62.2357 238.469 62.2211 238.376 62.2254H228.967Z" fill="#BEBEBE"/>
<path d="M146.761 111.499C146.761 111.589 146.779 111.678 146.813 111.761C146.848 111.844 146.897 111.92 146.961 111.983C147.024 112.047 147.1 112.097 147.183 112.132C147.266 112.166 147.356 112.184 147.446 112.184C147.536 112.184 147.624 112.166 147.707 112.132C147.79 112.097 147.865 112.047 147.929 111.983C147.992 111.92 148.044 111.844 148.078 111.761C148.113 111.678 148.13 111.589 148.13 111.499V61.8744L151.97 60.8546C152.116 60.814 152.246 60.7266 152.338 60.6058C152.43 60.4851 152.48 60.3375 152.481 60.1857V55.3986C152.477 55.2139 152.402 55.0377 152.271 54.9069C152.141 54.7761 151.965 54.7008 151.78 54.6968H105.39C105.204 54.6983 105.026 54.7727 104.895 54.904C104.764 55.0353 104.689 55.213 104.688 55.3986C104.689 55.4897 104.707 55.5796 104.743 55.6633C104.779 55.747 104.831 55.8228 104.896 55.8864C104.961 55.9499 105.039 56.0001 105.124 56.0339C105.208 56.0676 105.299 56.0845 105.39 56.0833H151.093V59.6643L147.302 60.6841C147.148 60.7169 147.012 60.8012 146.914 60.9229C146.815 61.0446 146.761 61.1964 146.761 61.353V111.499Z" fill="#BEBEBE"/>
<path d="M104.418 88.1772C104.419 88.0869 104.401 87.9975 104.367 87.914C104.333 87.8305 104.282 87.7546 104.218 87.6908C104.155 87.6269 104.079 87.5764 103.995 87.5421C103.912 87.5079 103.822 87.4905 103.732 87.4911C103.548 87.4896 103.371 87.5609 103.24 87.6895C103.109 87.8181 103.034 87.9934 103.031 88.1772V111.499C103.033 111.684 103.108 111.861 103.239 111.992C103.37 112.123 103.547 112.198 103.732 112.2C103.823 112.199 103.913 112.18 103.997 112.144C104.08 112.108 104.156 112.057 104.22 111.992C104.284 111.926 104.334 111.849 104.368 111.765C104.402 111.681 104.419 111.59 104.418 111.499V88.1772Z" fill="#BEBEBE"/>
<path d="M103.732 87.4911H93.1222C93.032 87.4905 92.9426 87.5079 92.8592 87.5422C92.7757 87.5765 92.7 87.627 92.6363 87.6909C92.5726 87.7547 92.5222 87.8306 92.4881 87.9141C92.4539 87.9976 92.4367 88.087 92.4375 88.1772V111.499C92.4356 111.683 92.5066 111.86 92.635 111.991C92.7633 112.122 92.9386 112.197 93.1222 112.2H103.732C103.823 112.199 103.913 112.18 103.997 112.144C104.08 112.108 104.156 112.057 104.22 111.992C104.284 111.926 104.334 111.85 104.368 111.765C104.402 111.681 104.419 111.59 104.418 111.499V88.1772C104.419 88.087 104.401 87.9975 104.367 87.914C104.333 87.8305 104.282 87.7546 104.218 87.6908C104.155 87.627 104.079 87.5764 103.995 87.5422C103.912 87.5079 103.822 87.4905 103.732 87.4911ZM93.8241 88.8619H103.031V110.815H93.8241V88.8619Z" fill="#BEBEBE"/>
<path d="M142.815 64.8524C142.906 64.8531 142.995 64.8359 143.078 64.8018C143.162 64.7677 143.238 64.7173 143.301 64.6535C143.365 64.5898 143.415 64.514 143.45 64.4306C143.484 64.3472 143.501 64.2578 143.5 64.1677C143.502 63.9841 143.431 63.8072 143.303 63.6759C143.174 63.5445 142.999 63.4695 142.815 63.4673H140.505C140.32 63.4688 140.142 63.543 140.011 63.6741C139.88 63.8051 139.806 63.9824 139.805 64.1677C139.807 64.3513 139.882 64.5265 140.013 64.6549C140.145 64.7832 140.321 64.8543 140.505 64.8524H142.815Z" fill="#BEBEBE"/>
<path d="M135.433 64.8524C135.524 64.8535 135.614 64.8367 135.699 64.8029C135.783 64.7691 135.861 64.719 135.926 64.6554C135.991 64.5918 136.043 64.516 136.079 64.4323C136.115 64.3487 136.134 64.2587 136.135 64.1677C136.133 63.9822 136.058 63.805 135.927 63.674C135.796 63.543 135.618 63.4687 135.433 63.4673H133.124C133.033 63.4682 132.943 63.487 132.859 63.5228C132.775 63.5585 132.7 63.6103 132.636 63.6754C132.572 63.7404 132.522 63.8174 132.488 63.9018C132.454 63.9863 132.437 64.0766 132.438 64.1677C132.437 64.2579 132.455 64.3473 132.489 64.4307C132.523 64.5141 132.574 64.5899 132.638 64.6536C132.701 64.7173 132.777 64.7677 132.861 64.8018C132.944 64.8359 133.034 64.8531 133.124 64.8524H135.433Z" fill="#BEBEBE"/>
<path d="M128.238 64.8524C128.329 64.8535 128.419 64.8367 128.504 64.8029C128.588 64.7691 128.665 64.719 128.73 64.6554C128.796 64.5918 128.848 64.516 128.883 64.4323C128.919 64.3487 128.938 64.2587 128.94 64.1677C128.938 63.9822 128.863 63.805 128.732 63.674C128.601 63.543 128.423 63.4687 128.238 63.4673H125.929C125.743 63.4684 125.565 63.5425 125.434 63.6736C125.303 63.8046 125.228 63.9821 125.227 64.1677C125.228 64.2587 125.247 64.3487 125.283 64.4323C125.319 64.516 125.371 64.5918 125.436 64.6554C125.501 64.719 125.578 64.7691 125.663 64.8029C125.747 64.8367 125.838 64.8535 125.929 64.8524H128.238Z" fill="#BEBEBE"/>
<path d="M142.816 72.4683C142.997 72.4683 143.171 72.3962 143.3 72.2678C143.428 72.1394 143.5 71.9652 143.5 71.7836C143.5 71.602 143.428 71.4279 143.3 71.2995C143.171 71.1711 142.997 71.0989 142.816 71.0989H140.505C140.323 71.0989 140.149 71.1711 140.021 71.2995C139.893 71.4279 139.82 71.602 139.82 71.7836C139.82 71.9652 139.893 72.1394 140.021 72.2678C140.149 72.3962 140.323 72.4683 140.505 72.4683H142.816Z" fill="#BEBEBE"/>
<path d="M135.439 72.4683C135.62 72.4683 135.794 72.3962 135.923 72.2678C136.051 72.1394 136.123 71.9652 136.123 71.7836C136.123 71.602 136.051 71.4279 135.923 71.2995C135.794 71.1711 135.62 71.0989 135.439 71.0989H133.129C132.948 71.0989 132.774 71.1711 132.645 71.2995C132.517 71.4279 132.445 71.602 132.445 71.7836C132.445 71.9652 132.517 72.1394 132.645 72.2678C132.774 72.3962 132.948 72.4683 133.129 72.4683H135.439Z" fill="#BEBEBE"/>
<path d="M128.235 72.4683C128.417 72.4683 128.591 72.3962 128.72 72.2678C128.848 72.1394 128.92 71.9652 128.92 71.7836C128.92 71.602 128.848 71.4279 128.72 71.2995C128.591 71.1711 128.417 71.0989 128.235 71.0989H125.926C125.745 71.0989 125.571 71.1711 125.442 71.2995C125.314 71.4279 125.242 71.602 125.242 71.7836C125.242 71.9652 125.314 72.1394 125.442 72.2678C125.571 72.3962 125.745 72.4683 125.926 72.4683H128.235Z" fill="#BEBEBE"/>
<path d="M142.816 80.9122C142.997 80.9122 143.171 80.84 143.3 80.7116C143.428 80.5832 143.5 80.4091 143.5 80.2275C143.5 80.0459 143.428 79.8718 143.3 79.7434C143.171 79.615 142.997 79.5428 142.816 79.5428H140.505C140.415 79.5428 140.326 79.5605 140.243 79.5949C140.16 79.6293 140.085 79.6798 140.021 79.7434C139.957 79.8069 139.907 79.8824 139.873 79.9655C139.838 80.0486 139.82 80.1376 139.82 80.2275C139.82 80.3174 139.838 80.4064 139.873 80.4895C139.907 80.5726 139.957 80.6481 140.021 80.7116C140.085 80.7752 140.16 80.8256 140.243 80.8601C140.326 80.8945 140.415 80.9122 140.505 80.9122H142.816Z" fill="#BEBEBE"/>
<path d="M135.439 80.9122C135.528 80.9122 135.617 80.8945 135.701 80.8601C135.784 80.8256 135.859 80.7752 135.923 80.7116C135.986 80.6481 136.037 80.5726 136.071 80.4895C136.105 80.4064 136.123 80.3174 136.123 80.2275C136.123 80.1376 136.105 80.0486 136.071 79.9655C136.037 79.8824 135.986 79.8069 135.923 79.7434C135.859 79.6798 135.784 79.6293 135.701 79.5949C135.617 79.5605 135.528 79.5428 135.439 79.5428H133.129C133.04 79.5428 132.951 79.5605 132.867 79.5949C132.784 79.6293 132.709 79.6798 132.645 79.7434C132.582 79.8069 132.531 79.8824 132.497 79.9655C132.463 80.0486 132.445 80.1376 132.445 80.2275C132.445 80.3174 132.463 80.4064 132.497 80.4895C132.531 80.5726 132.582 80.6481 132.645 80.7116C132.709 80.7752 132.784 80.8256 132.867 80.8601C132.951 80.8945 133.04 80.9122 133.129 80.9122H135.439Z" fill="#BEBEBE"/>
<path d="M128.235 80.9122C128.325 80.9122 128.414 80.8945 128.497 80.8601C128.58 80.8256 128.656 80.7752 128.72 80.7116C128.783 80.6481 128.834 80.5726 128.868 80.4895C128.902 80.4064 128.92 80.3174 128.92 80.2275C128.92 80.1376 128.902 80.0486 128.868 79.9655C128.834 79.8824 128.783 79.8069 128.72 79.7434C128.656 79.6798 128.58 79.6293 128.497 79.5949C128.414 79.5605 128.325 79.5428 128.235 79.5428H125.926C125.836 79.5428 125.747 79.5605 125.664 79.5949C125.581 79.6293 125.506 79.6798 125.442 79.7434C125.379 79.8069 125.328 79.8824 125.294 79.9655C125.259 80.0486 125.242 80.1376 125.242 80.2275C125.242 80.3174 125.259 80.4064 125.294 80.4895C125.328 80.5726 125.379 80.6481 125.442 80.7116C125.506 80.7752 125.581 80.8256 125.664 80.8601C125.747 80.8945 125.836 80.9122 125.926 80.9122H128.235Z" fill="#BEBEBE"/>
<path d="M142.817 89.7757C142.993 89.7677 143.16 89.6919 143.282 89.5643C143.404 89.4366 143.472 89.2669 143.472 89.0903C143.472 88.9138 143.404 88.7441 143.282 88.6164C143.16 88.4888 142.993 88.413 142.817 88.405H140.507C140.414 88.4007 140.321 88.4153 140.235 88.4478C140.148 88.4804 140.068 88.5302 140.001 88.5942C139.934 88.6583 139.881 88.7353 139.844 88.8206C139.808 88.9058 139.789 88.9976 139.789 89.0903C139.789 89.1831 139.808 89.2749 139.844 89.3601C139.881 89.4454 139.934 89.5224 140.001 89.5865C140.068 89.6505 140.148 89.7003 140.235 89.7329C140.321 89.7654 140.414 89.78 140.507 89.7757H142.817Z" fill="#BEBEBE"/>
<path d="M135.432 89.7757C135.525 89.78 135.617 89.7654 135.704 89.7329C135.791 89.7003 135.87 89.6505 135.937 89.5865C136.004 89.5224 136.058 89.4454 136.094 89.3601C136.131 89.2749 136.149 89.1831 136.149 89.0903C136.149 88.9976 136.131 88.9058 136.094 88.8206C136.058 88.7353 136.004 88.6583 135.937 88.5942C135.87 88.5302 135.791 88.4804 135.704 88.4478C135.617 88.4153 135.525 88.4007 135.432 88.405H133.123C133.03 88.4007 132.938 88.4153 132.851 88.4478C132.764 88.4804 132.685 88.5302 132.618 88.5942C132.551 88.6583 132.497 88.7353 132.461 88.8206C132.424 88.9058 132.406 88.9976 132.406 89.0903C132.406 89.1831 132.424 89.2749 132.461 89.3601C132.497 89.4454 132.551 89.5224 132.618 89.5865C132.685 89.6505 132.764 89.7003 132.851 89.7329C132.938 89.7654 133.03 89.78 133.123 89.7757H135.432Z" fill="#BEBEBE"/>
<path d="M128.23 89.7757C128.323 89.78 128.415 89.7654 128.502 89.7329C128.589 89.7003 128.668 89.6505 128.735 89.5865C128.802 89.5224 128.856 89.4454 128.892 89.3601C128.928 89.2749 128.947 89.1831 128.947 89.0903C128.947 88.9976 128.928 88.9058 128.892 88.8206C128.856 88.7353 128.802 88.6583 128.735 88.5942C128.668 88.5302 128.589 88.4804 128.502 88.4478C128.415 88.4153 128.323 88.4007 128.23 88.405H125.921C125.828 88.4007 125.736 88.4153 125.649 88.4478C125.562 88.4804 125.483 88.5302 125.416 88.5942C125.349 88.6583 125.295 88.7353 125.259 88.8206C125.222 88.9058 125.203 88.9976 125.203 89.0903C125.203 89.1831 125.222 89.2749 125.259 89.3601C125.295 89.4454 125.349 89.5224 125.416 89.5865C125.483 89.6505 125.562 89.7003 125.649 89.7329C125.736 89.7654 125.828 89.78 125.921 89.7757H128.23Z" fill="#BEBEBE"/>
</g>
</g>
<defs>
<clipPath id="clip0_403_5">
<rect width="326" height="136" fill="white"/>
</clipPath>
</defs>
</svg>
