<svg width="446" height="92" viewBox="0 0 446 92" fill="none" xmlns="http://www.w3.org/2000/svg">
<g clip-path="url(#clip0_284_615)">
<path d="M445.643 85.9666H329.953C329.611 85.9675 329.272 85.9 328.957 85.7682C328.641 85.6365 328.355 85.443 328.115 85.1991C327.874 84.9565 327.684 84.6681 327.555 84.3509C327.427 84.0337 327.363 83.6941 327.367 83.3519L327.58 67.5367C327.593 66.8577 327.87 66.2104 328.353 65.7331C328.836 65.2558 329.487 64.9862 330.166 64.9821H333.275V8.11988C333.275 8.06965 333.286 8.02002 333.306 7.97413C333.327 7.92824 333.357 7.88707 333.394 7.85321C333.431 7.82013 333.475 7.79511 333.523 7.77972C333.57 7.76434 333.62 7.75891 333.67 7.76376L375.426 12.107C382.241 12.8294 388.791 15.1387 394.552 18.8499C400.312 22.5611 405.123 27.5707 408.598 33.4769C413.332 41.5552 417.652 49.3881 418.208 50.3995L427.431 54.2744C436.78 58.2014 443.463 66.8391 444.876 76.8167C445.822 83.5031 445.994 85.5585 445.996 85.5796C446 85.6288 445.994 85.6784 445.978 85.7251C445.962 85.7718 445.937 85.8148 445.903 85.8512C445.87 85.8871 445.83 85.9159 445.785 85.9358C445.741 85.9556 445.692 85.9661 445.643 85.9666ZM330.166 65.6976C329.674 65.6988 329.202 65.8933 328.852 66.2392C328.503 66.5851 328.303 67.0546 328.296 67.5464L328.083 83.3616C328.08 83.6088 328.126 83.854 328.219 84.083C328.312 84.312 328.45 84.52 328.624 84.695C328.797 84.8719 329.004 85.0123 329.232 85.1078C329.46 85.2033 329.705 85.252 329.953 85.2511H445.25C445.16 84.3942 444.89 81.999 444.17 76.9159C442.793 67.1871 436.274 58.764 427.158 54.933L417.819 51.0109C417.745 50.9781 417.683 50.9208 417.646 50.8483C417.598 50.7653 413.027 42.4398 407.983 33.8346C404.564 28.0244 399.831 23.0967 394.162 19.4471C388.494 15.7974 382.049 13.5274 375.345 12.8192L333.99 8.52152V65.3447C333.99 65.4396 333.953 65.5306 333.886 65.5977C333.819 65.6648 333.728 65.7025 333.633 65.7025L330.166 65.6976Z" fill="#BEBEBE"/>
<path d="M439.902 84.752C439.817 84.7522 439.734 84.7215 439.669 84.6657C439.604 84.6099 439.562 84.5326 439.549 84.448C439 80.7724 438.145 77.1489 436.995 73.615C436.277 71.4175 434.882 69.5038 433.01 68.1485C431.137 66.7933 428.883 66.0662 426.572 66.0717H336.498C336.404 66.0712 336.313 66.0334 336.246 65.9664C336.179 65.8994 336.141 65.8087 336.141 65.7139C336.141 65.6191 336.178 65.5281 336.245 65.461C336.312 65.3939 336.403 65.3562 336.498 65.3562H426.568C429.031 65.3508 431.431 66.1255 433.426 67.5692C435.421 69.013 436.907 71.0515 437.671 73.3923C438.834 76.9642 439.698 80.6269 440.253 84.3423C440.267 84.4361 440.243 84.5316 440.187 84.6078C440.131 84.684 440.046 84.7347 439.953 84.7488L439.902 84.752Z" fill="#BEBEBE"/>
<path d="M432.55 64.3301C432.484 64.3303 432.419 64.3123 432.363 64.2781C430.628 63.2054 428.629 62.6378 426.59 62.639H380.881C380.786 62.6386 380.696 62.6007 380.629 62.5337C380.562 62.4667 380.524 62.376 380.523 62.2813C380.523 62.1864 380.561 62.0954 380.628 62.0283C380.695 61.9612 380.786 61.9235 380.881 61.9235H426.59C428.763 61.9219 430.893 62.5261 432.742 63.6683C432.821 63.718 432.878 63.797 432.9 63.8883C432.922 63.9795 432.907 64.0757 432.859 64.1561C432.827 64.2094 432.781 64.2534 432.727 64.2839C432.673 64.3144 432.612 64.3303 432.55 64.3301Z" fill="#BEBEBE"/>
<path d="M438.713 78.7079H436.273C434.99 78.7022 433.742 78.2844 432.713 77.5159C431.685 76.7475 430.93 75.669 430.561 74.4395L428.624 67.8831C428.611 67.8382 428.606 67.791 428.611 67.7443C428.616 67.6976 428.63 67.6524 428.652 67.6111C428.675 67.5699 428.705 67.5334 428.742 67.5039C428.778 67.4744 428.82 67.4524 428.865 67.4392C428.956 67.4124 429.054 67.4229 429.138 67.4683C429.221 67.5137 429.283 67.5904 429.311 67.6815L431.247 74.2362C431.572 75.3182 432.236 76.2673 433.141 76.9435C434.046 77.6198 435.144 77.9875 436.273 77.9924H438.713C438.76 77.9922 438.806 78.0013 438.85 78.0192C438.893 78.0371 438.933 78.0635 438.966 78.0967C438.999 78.13 439.026 78.1695 439.043 78.213C439.061 78.2565 439.07 78.3031 439.07 78.3502C439.07 78.3972 439.061 78.4438 439.043 78.4873C439.026 78.5308 438.999 78.5703 438.966 78.6036C438.933 78.6369 438.893 78.6632 438.85 78.6811C438.806 78.699 438.76 78.7081 438.713 78.7079Z" fill="#BEBEBE"/>
<path d="M405.157 29.9516L333.628 29.3906C333.533 29.3898 333.443 29.3515 333.376 29.2841C333.31 29.2168 333.273 29.1259 333.273 29.0313C333.274 28.9367 333.312 28.8461 333.379 28.7794C333.446 28.7126 333.537 28.6752 333.631 28.6752L405.159 29.2362C405.206 29.2364 405.253 29.2459 405.296 29.2642C405.339 29.2825 405.379 29.3092 405.411 29.3428C405.444 29.3763 405.47 29.4161 405.488 29.4598C405.505 29.5034 405.514 29.5501 405.513 29.5972C405.513 29.6913 405.475 29.7815 405.409 29.8479C405.342 29.9143 405.252 29.9516 405.157 29.9516Z" fill="#BEBEBE"/>
<path d="M413.625 50.6809H380.883V31.2314H395.927C397.988 31.2314 400.012 31.7805 401.79 32.8222C403.568 33.864 405.037 35.3607 406.045 37.1584L413.625 50.6809Z" stroke="#BEBEBE" stroke-width="0.325215" stroke-miterlimit="10"/>
<path d="M372.061 63.7479C372.014 63.7481 371.967 63.739 371.924 63.7211C371.88 63.7032 371.841 63.6769 371.807 63.6436C371.774 63.6104 371.748 63.5708 371.73 63.5273C371.712 63.4838 371.703 63.4372 371.703 63.3902V30.8378C371.703 30.7908 371.712 30.7441 371.73 30.7006C371.748 30.6571 371.774 30.6176 371.807 30.5844C371.841 30.5511 371.88 30.5247 371.924 30.5068C371.967 30.4889 372.014 30.4798 372.061 30.4801C372.108 30.4801 372.154 30.4893 372.198 30.5073C372.241 30.5253 372.281 30.5516 372.314 30.5848C372.347 30.618 372.373 30.6575 372.391 30.7009C372.409 30.7443 372.419 30.7908 372.419 30.8378V63.3902C372.419 63.4372 372.409 63.4837 372.391 63.5271C372.373 63.5705 372.347 63.6099 372.314 63.6432C372.281 63.6764 372.241 63.7027 372.198 63.7207C372.154 63.7387 372.108 63.7479 372.061 63.7479Z" fill="#BEBEBE"/>
<path d="M341.303 63.7479C341.256 63.7481 341.209 63.739 341.166 63.7211C341.122 63.7032 341.083 63.6769 341.05 63.6436C341.016 63.6104 340.99 63.5708 340.972 63.5273C340.954 63.4838 340.945 63.4372 340.945 63.3902V30.8378C340.945 30.7908 340.954 30.7441 340.972 30.7006C340.99 30.6571 341.016 30.6176 341.05 30.5844C341.083 30.5511 341.122 30.5247 341.166 30.5068C341.209 30.4889 341.256 30.4798 341.303 30.4801C341.35 30.4801 341.396 30.4893 341.44 30.5073C341.483 30.5253 341.522 30.5517 341.555 30.5849C341.589 30.6182 341.615 30.6576 341.633 30.701C341.65 30.7444 341.659 30.7909 341.659 30.8378V63.3902C341.659 63.4371 341.65 63.4836 341.633 63.527C341.615 63.5704 341.589 63.6098 341.555 63.6431C341.522 63.6763 341.483 63.7027 341.44 63.7207C341.396 63.7387 341.35 63.7479 341.303 63.7479Z" fill="#BEBEBE"/>
<path d="M409.949 91.214C407.421 91.211 404.997 90.2052 403.21 88.4172C401.422 86.6293 400.417 84.2053 400.414 81.677C400.417 79.1491 401.423 76.7255 403.21 74.9379C404.998 73.1503 407.421 72.1448 409.949 72.1417C412.478 72.1443 414.902 73.1497 416.69 74.9373C418.477 76.7249 419.483 79.1488 419.486 81.677C419.483 84.2055 418.478 86.6295 416.69 88.4173C414.902 90.2052 412.478 91.211 409.949 91.214ZM409.949 72.8572C407.611 72.8598 405.369 73.7899 403.716 75.4433C402.062 77.0968 401.132 79.3387 401.13 81.677C401.132 84.0157 402.062 86.258 403.715 87.9118C405.369 89.5656 407.611 90.4959 409.949 90.4985C412.288 90.4959 414.53 89.5657 416.184 87.9119C417.838 86.2581 418.768 84.0159 418.771 81.677C418.768 79.3385 417.837 77.0967 416.184 75.4432C414.53 73.7898 412.288 72.8598 409.949 72.8572Z" fill="#BEBEBE"/>
<path d="M409.951 88.0675C408.257 88.0653 406.633 87.3913 405.436 86.1933C404.238 84.9953 403.564 83.3711 403.562 81.677C403.564 79.9831 404.238 78.3591 405.436 77.1613C406.633 75.9636 408.257 75.2899 409.951 75.2882C411.645 75.2899 413.27 75.9635 414.468 77.1612C415.666 78.359 416.34 79.983 416.342 81.677C416.34 83.3714 415.666 84.9958 414.468 86.1939C413.27 87.392 411.646 88.0658 409.951 88.0675ZM409.951 76.0037C408.447 76.0054 407.005 76.6036 405.941 77.6671C404.877 78.7307 404.279 80.1727 404.276 81.677C404.278 83.1816 404.877 84.6241 405.94 85.688C407.004 86.7519 408.447 87.3503 409.951 87.352C411.456 87.3508 412.899 86.7524 413.963 85.6884C415.027 84.6244 415.625 83.1817 415.626 81.677C415.625 80.1726 415.026 78.7303 413.962 77.6667C412.898 76.603 411.456 76.0049 409.951 76.0037Z" fill="#BEBEBE"/>
<path d="M314.623 91.214C312.094 91.211 309.67 90.2052 307.883 88.4173C306.095 86.6295 305.089 84.2055 305.086 81.677C305.089 79.1488 306.095 76.7249 307.883 74.9373C309.671 73.1497 312.095 72.1443 314.623 72.1417C317.151 72.1448 319.574 73.1503 321.362 74.9379C323.15 76.7255 324.155 79.1491 324.158 81.677C324.156 84.2053 323.15 86.6293 321.363 88.4172C319.575 90.2052 317.151 91.211 314.623 91.214ZM314.623 72.8572C312.284 72.8598 310.042 73.7898 308.389 75.4432C306.735 77.0967 305.804 79.3385 305.801 81.677C305.804 84.0159 306.734 86.2581 308.388 87.9119C310.042 89.5657 312.284 90.4959 314.623 90.4985C316.962 90.4959 319.204 89.5656 320.857 87.9118C322.511 86.258 323.441 84.0157 323.443 81.677C323.44 79.3387 322.51 77.0968 320.857 75.4433C319.203 73.7899 316.961 72.8598 314.623 72.8572Z" fill="#BEBEBE"/>
<path d="M314.625 88.0675C312.931 88.0658 311.306 87.392 310.108 86.1939C308.91 84.9958 308.236 83.3714 308.234 81.677C308.237 79.983 308.911 78.359 310.109 77.1612C311.307 75.9635 312.931 75.2899 314.625 75.2882C316.319 75.2899 317.943 75.9635 319.141 77.1612C320.339 78.359 321.013 79.983 321.015 81.677C321.014 83.3714 320.34 84.9958 319.142 86.1939C317.944 87.392 316.319 88.0658 314.625 88.0675ZM314.625 76.0037C313.12 76.0049 311.678 76.603 310.614 77.6667C309.55 78.7303 308.952 80.1726 308.95 81.677C308.951 83.1817 309.549 84.6244 310.613 85.6884C311.677 86.7524 313.12 87.3508 314.625 87.352C316.129 87.3503 317.572 86.7519 318.636 85.688C319.7 84.6241 320.298 83.1816 320.3 81.677C320.298 80.1727 319.699 78.7307 318.635 77.6671C317.571 76.6036 316.129 76.0054 314.625 76.0037Z" fill="#BEBEBE"/>
<path d="M295.209 91.214C292.68 91.211 290.256 90.2052 288.468 88.4173C286.681 86.6295 285.675 84.2055 285.672 81.677C285.675 79.1488 286.681 76.7249 288.469 74.9373C290.257 73.1497 292.681 72.1443 295.209 72.1417C297.737 72.1448 300.16 73.1503 301.948 74.9379C303.736 76.7255 304.741 79.1491 304.744 81.677C304.742 84.2053 303.736 86.6293 301.949 88.4172C300.161 90.2052 297.737 91.211 295.209 91.214ZM295.209 72.8572C292.87 72.8598 290.628 73.7898 288.975 75.4432C287.321 77.0967 286.39 79.3385 286.387 81.677C286.39 84.0159 287.32 86.2581 288.974 87.9119C290.628 89.5657 292.87 90.4959 295.209 90.4985C297.547 90.4959 299.79 89.5656 301.443 87.9118C303.097 86.258 304.026 84.0157 304.029 81.677C304.026 79.3387 303.096 77.0968 301.443 75.4433C299.789 73.7899 297.547 72.8598 295.209 72.8572Z" fill="#BEBEBE"/>
<path d="M295.203 88.0675C293.509 88.0658 291.884 87.392 290.686 86.1939C289.488 84.9958 288.814 83.3714 288.812 81.677C288.815 79.983 289.489 78.359 290.687 77.1612C291.885 75.9635 293.509 75.2899 295.203 75.2882C296.897 75.2899 298.521 75.9636 299.719 77.1613C300.916 78.3591 301.59 79.9831 301.592 81.677C301.59 83.3711 300.917 84.9953 299.719 86.1933C298.521 87.3913 296.897 88.0653 295.203 88.0675ZM295.203 76.0037C293.699 76.0049 292.256 76.603 291.192 77.6667C290.128 78.7303 289.53 80.1726 289.528 81.677C289.529 83.1817 290.128 84.6244 291.192 85.6884C292.256 86.7524 293.698 87.3508 295.203 87.352C296.708 87.3503 298.15 86.7519 299.214 85.688C300.278 84.6241 300.876 83.1816 300.878 81.677C300.876 80.1727 300.277 78.7307 299.213 77.6671C298.149 76.6036 296.707 76.0054 295.203 76.0037Z" fill="#BEBEBE"/>
<path d="M239.217 91.5912C234.058 91.5912 229.859 87.2285 229.859 81.8673C229.859 76.5061 234.058 72.1417 239.217 72.1417C244.377 72.1417 248.577 76.5045 248.577 81.8673C248.577 87.2301 244.379 91.5912 239.217 91.5912ZM239.217 72.8718C234.445 72.8718 230.562 76.9061 230.562 81.8673C230.562 86.8285 234.445 90.8627 239.217 90.8627C243.99 90.8627 247.875 86.8268 247.875 81.8673C247.875 76.9078 243.992 72.8718 239.217 72.8718Z" fill="#BEBEBE"/>
<path d="M239.215 88.383C235.758 88.383 232.945 85.4561 232.945 81.8674C232.945 78.2786 235.758 75.35 239.215 75.35C242.672 75.35 245.487 78.277 245.487 81.8674C245.487 85.4577 242.674 88.383 239.215 88.383ZM239.215 76.0801C236.145 76.0801 233.646 78.6819 233.646 81.8674C233.646 85.0528 236.145 87.6546 239.215 87.6546C242.285 87.6546 244.785 85.0528 244.785 81.8674C244.785 78.6819 242.287 76.0801 239.215 76.0801Z" fill="#BEBEBE"/>
<path d="M220.163 91.5912C215.003 91.5912 210.805 87.2285 210.805 81.8673C210.805 76.5061 215.003 72.1417 220.163 72.1417C225.322 72.1417 229.522 76.5045 229.522 81.8673C229.522 87.2301 225.324 91.5912 220.163 91.5912ZM220.163 72.8718C215.39 72.8718 211.506 76.9061 211.506 81.8673C211.506 86.8285 215.39 90.8627 220.163 90.8627C224.935 90.8627 228.82 86.8268 228.82 81.8673C228.82 76.9078 224.934 72.8718 220.163 72.8718Z" fill="#BEBEBE"/>
<path d="M220.162 88.383C216.704 88.383 213.891 85.4561 213.891 81.8674C213.891 78.2786 216.704 75.35 220.162 75.35C223.621 75.35 226.434 78.277 226.434 81.8674C226.434 85.4577 223.621 88.383 220.162 88.383ZM220.162 76.0801C217.091 76.0801 214.593 78.6819 214.593 81.8674C214.593 85.0528 217.091 87.6546 220.162 87.6546C223.234 87.6546 225.732 85.0528 225.732 81.8674C225.732 78.6819 223.234 76.0801 220.162 76.0801Z" fill="#BEBEBE"/>
<path d="M163.459 91.214C160.93 91.211 158.506 90.2052 156.719 88.4173C154.931 86.6295 153.925 84.2055 153.922 81.677C153.925 79.1488 154.931 76.7249 156.719 74.9373C158.507 73.1497 160.931 72.1443 163.459 72.1417C165.987 72.1448 168.41 73.1503 170.198 74.9379C171.986 76.7255 172.991 79.1491 172.994 81.677C172.992 84.2053 171.986 86.6293 170.199 88.4172C168.411 90.2052 165.987 91.211 163.459 91.214ZM163.459 72.8572C161.12 72.8598 158.878 73.7898 157.225 75.4432C155.571 77.0967 154.64 79.3385 154.637 81.677C154.64 84.0159 155.57 86.2581 157.224 87.9119C158.878 89.5657 161.12 90.4959 163.459 90.4985C165.797 90.4959 168.04 89.5656 169.693 87.9118C171.347 86.258 172.276 84.0157 172.279 81.677C172.276 79.3387 171.346 77.0968 169.693 75.4433C168.039 73.7899 165.797 72.8598 163.459 72.8572Z" fill="#BEBEBE"/>
<path d="M163.453 88.0675C161.759 88.0658 160.134 87.392 158.936 86.1939C157.738 84.9958 157.064 83.3714 157.062 81.677C157.065 79.983 157.739 78.359 158.937 77.1612C160.135 75.9635 161.759 75.2899 163.453 75.2882C165.147 75.2899 166.771 75.9635 167.969 77.1612C169.167 78.359 169.841 79.983 169.843 81.677C169.842 83.3714 169.168 84.9958 167.97 86.1939C166.772 87.392 165.147 88.0658 163.453 88.0675ZM163.453 76.0037C161.949 76.0054 160.506 76.6036 159.443 77.6671C158.379 78.7307 157.78 80.1727 157.778 81.677C157.78 83.1816 158.378 84.6241 159.442 85.688C160.506 86.7519 161.948 87.3503 163.453 87.352C164.958 87.3503 166.4 86.7519 167.464 85.688C168.528 84.6241 169.126 83.1816 169.128 81.677C169.126 80.1727 168.527 78.7307 167.463 77.6671C166.399 76.6036 164.957 76.0054 163.453 76.0037Z" fill="#BEBEBE"/>
<path d="M144.045 91.214C141.516 91.211 139.092 90.2052 137.304 88.4173C135.517 86.6295 134.511 84.2055 134.508 81.677C134.511 79.1488 135.517 76.7249 137.305 74.9373C139.092 73.1497 141.516 72.1443 144.045 72.1417C146.573 72.1448 148.996 73.1503 150.784 74.9379C152.571 76.7255 153.577 79.1491 153.58 81.677C153.577 84.2053 152.572 86.6293 150.784 88.4172C148.997 90.2052 146.573 91.211 144.045 91.214ZM144.045 72.8572C141.706 72.8598 139.464 73.7898 137.81 75.4432C136.157 77.0967 135.226 79.3385 135.223 81.677C135.226 84.0159 136.156 86.2581 137.81 87.9119C139.464 89.5657 141.706 90.4959 144.045 90.4985C146.383 90.4959 148.626 89.5656 150.279 87.9118C151.933 86.258 152.862 84.0157 152.865 81.677C152.862 79.3387 151.932 77.0968 150.278 75.4433C148.625 73.7899 146.383 72.8598 144.045 72.8572Z" fill="#BEBEBE"/>
<path d="M144.039 88.0675C142.345 88.0658 140.72 87.392 139.522 86.1939C138.324 84.9958 137.65 83.3714 137.648 81.677C137.651 79.983 138.325 78.359 139.523 77.1612C140.721 75.9635 142.345 75.2899 144.039 75.2882C145.733 75.2899 147.357 75.9635 148.555 77.1612C149.753 78.359 150.427 79.983 150.429 81.677C150.428 83.3714 149.754 84.9958 148.556 86.1939C147.358 87.392 145.733 88.0658 144.039 88.0675ZM144.039 76.0037C142.534 76.0049 141.092 76.603 140.028 77.6667C138.964 78.7303 138.366 80.1726 138.364 81.677C138.365 83.1817 138.964 84.6244 140.028 85.6884C141.092 86.7524 142.534 87.3508 144.039 87.352C145.543 87.3503 146.986 86.7519 148.05 85.688C149.114 84.6241 149.712 83.1816 149.714 81.677C149.712 80.1727 149.113 78.7307 148.049 77.6671C146.985 76.6036 145.543 76.0054 144.039 76.0037Z" fill="#BEBEBE"/>
<path d="M323.802 0.670891H124.641V65.7139H323.802V0.670891Z" stroke="#BEBEBE" stroke-width="0.162608" stroke-miterlimit="10"/>
<path d="M323.801 66.0716H124.639C124.544 66.0716 124.453 66.0339 124.386 65.9668C124.319 65.8997 124.281 65.8087 124.281 65.7139V0.670833C124.281 0.62393 124.291 0.5775 124.309 0.534188C124.327 0.490877 124.353 0.451535 124.386 0.418445C124.419 0.385356 124.459 0.35917 124.502 0.34137C124.546 0.323569 124.592 0.314517 124.639 0.314731H323.801C323.848 0.314517 323.894 0.323569 323.937 0.34137C323.981 0.35917 324.02 0.385356 324.054 0.418445C324.087 0.451535 324.113 0.490877 324.131 0.534188C324.149 0.5775 324.158 0.62393 324.158 0.670833V65.7139C324.158 65.8087 324.121 65.8997 324.054 65.9668C323.987 66.0339 323.896 66.0716 323.801 66.0716ZM124.997 65.3561H323.443V1.02695H124.997V65.3561Z" stroke="#BEBEBE" stroke-width="0.162608" stroke-miterlimit="10"/>
<path d="M323.801 69.7205H124.639C124.592 69.7207 124.545 69.7116 124.502 69.6937C124.458 69.6758 124.419 69.6495 124.386 69.6162C124.352 69.583 124.326 69.5434 124.308 69.4999C124.29 69.4564 124.281 69.4098 124.281 69.3628C124.281 69.2679 124.319 69.1769 124.386 69.1098C124.453 69.0427 124.544 69.005 124.639 69.005H323.801C323.896 69.005 323.987 69.0427 324.054 69.1098C324.121 69.1769 324.158 69.2679 324.158 69.3628C324.159 69.4098 324.15 69.4564 324.132 69.4999C324.114 69.5434 324.087 69.583 324.054 69.6162C324.021 69.6495 323.981 69.6758 323.938 69.6937C323.894 69.7116 323.848 69.7207 323.801 69.7205Z" fill="#BEBEBE"/>
<path d="M164.95 25.1449H145.296C144.562 25.1449 143.859 24.8537 143.341 24.3353C142.823 23.8169 142.531 23.1137 142.531 22.3806C142.531 21.6474 142.823 20.9443 143.341 20.4259C143.859 19.9075 144.562 19.6163 145.296 19.6163H164.95C165.045 19.6167 165.135 19.6545 165.202 19.7215C165.269 19.7885 165.307 19.8793 165.308 19.974V24.7823C165.308 24.8297 165.3 24.8767 165.282 24.9207C165.264 24.9647 165.238 25.0047 165.205 25.0384C165.171 25.0722 165.132 25.0989 165.088 25.1172C165.044 25.1355 164.997 25.1449 164.95 25.1449ZM145.296 20.322C144.751 20.3228 144.23 20.5395 143.845 20.9245C143.46 21.3096 143.244 21.8314 143.243 22.3757C143.243 22.9201 143.46 23.4422 143.844 23.8273C144.229 24.2124 144.751 24.429 145.296 24.4294H164.592V20.322H145.296Z" fill="#BEBEBE"/>
<path d="M164.653 41.4707H144.999C144.266 41.4707 143.562 41.1795 143.044 40.6611C142.526 40.1427 142.234 39.4396 142.234 38.7064C142.234 37.9733 142.526 37.2701 143.044 36.7517C143.562 36.2333 144.266 35.9421 144.999 35.9421H164.653C164.748 35.9421 164.838 35.9796 164.905 36.0463C164.973 36.113 165.01 36.2036 165.011 36.2982V41.1228C165.008 41.2158 164.969 41.3041 164.902 41.369C164.835 41.4339 164.746 41.4704 164.653 41.4707ZM144.999 36.6527C144.454 36.6535 143.932 36.8705 143.547 37.2558C143.163 37.6412 142.947 38.1635 142.947 38.708C142.947 39.2523 143.163 39.7742 143.548 40.1592C143.933 40.5442 144.454 40.7609 144.999 40.7618H164.295V36.6527H144.999Z" fill="#BEBEBE"/>
<path d="M186.761 46.3701H172.817C172.77 46.3701 172.724 46.3608 172.68 46.3428C172.637 46.3248 172.598 46.2985 172.565 46.2652C172.532 46.232 172.505 46.1925 172.488 46.1491C172.47 46.1057 172.461 46.0593 172.461 46.0124V15.0649C172.461 15.018 172.47 14.9715 172.488 14.9281C172.505 14.8847 172.532 14.8453 172.565 14.812C172.598 14.7788 172.637 14.7524 172.68 14.7344C172.724 14.7164 172.77 14.7072 172.817 14.7072H186.761C190.957 14.7128 194.98 16.3827 197.947 19.3507C200.913 22.3186 202.582 26.3422 202.586 30.5386C202.582 34.7351 200.913 38.7586 197.947 41.7266C194.98 44.6945 190.957 46.3645 186.761 46.3701ZM173.175 45.6546H186.761C190.769 45.6512 194.612 44.0564 197.445 41.2207C200.279 38.3851 201.87 34.5406 201.87 30.5321C201.87 26.5236 200.279 22.6791 197.445 19.8435C194.612 17.0078 190.769 15.4131 186.761 15.4096H173.175V45.6546Z" fill="#BEBEBE"/>
<path d="M168.334 51.4939C168.239 51.4939 168.148 51.4562 168.081 51.3891C168.014 51.322 167.977 51.231 167.977 51.1361V9.94112C167.977 9.84624 168.014 9.75525 168.081 9.68816C168.148 9.62107 168.239 9.58339 168.334 9.58339C168.381 9.58318 168.428 9.59229 168.471 9.61019C168.515 9.62809 168.554 9.65442 168.588 9.68768C168.621 9.72094 168.647 9.76046 168.665 9.80396C168.683 9.84746 168.692 9.89408 168.692 9.94112V51.1361C168.692 51.1832 168.683 51.2298 168.665 51.2733C168.647 51.3168 168.621 51.3563 168.588 51.3896C168.554 51.4228 168.515 51.4492 168.471 51.4671C168.428 51.485 168.381 51.4941 168.334 51.4939Z" fill="#BEBEBE"/>
<path d="M311.51 56.7786H132.248C132.153 56.7786 132.062 56.7409 131.995 56.6738C131.928 56.6067 131.891 56.5158 131.891 56.4209C131.89 56.3738 131.9 56.3272 131.917 56.2837C131.935 56.2402 131.962 56.2007 131.995 56.1674C132.028 56.1342 132.068 56.1078 132.111 56.0899C132.155 56.072 132.201 56.0629 132.248 56.0631H311.149V30.8964H208.25C208.155 30.8959 208.064 30.8581 207.997 30.7911C207.93 30.7241 207.892 30.6334 207.892 30.5386C207.892 30.4917 207.901 30.4451 207.919 30.4017C207.937 30.3583 207.963 30.3189 207.997 30.2857C208.03 30.2525 208.069 30.2261 208.113 30.2081C208.156 30.1901 208.203 30.1809 208.25 30.1809H311.505C311.6 30.1809 311.691 30.2186 311.758 30.2857C311.825 30.3528 311.863 30.4438 311.863 30.5386V56.4209C311.863 56.5148 311.825 56.6048 311.76 56.6717C311.694 56.7385 311.604 56.7769 311.51 56.7786Z" fill="#BEBEBE"/>
<path d="M144.041 91.214H0.357732C0.310694 91.2142 0.264072 91.2051 0.220572 91.1872C0.177072 91.1693 0.137555 91.1429 0.104293 91.1097C0.0710314 91.0764 0.0447023 91.0369 0.0268006 90.9934C0.00889893 90.9499 -0.000211556 90.9033 3.72818e-06 90.8562C-0.000211556 90.8092 0.00889893 90.7626 0.0268006 90.7191C0.0447023 90.6756 0.0710314 90.6361 0.104293 90.6028C0.137555 90.5695 0.177072 90.5432 0.220572 90.5253C0.264072 90.5074 0.310694 90.4983 0.357732 90.4985H144.041C144.136 90.4985 144.227 90.5362 144.294 90.6033C144.361 90.6704 144.399 90.7614 144.399 90.8562C144.399 90.9511 144.361 91.0421 144.294 91.1092C144.227 91.1763 144.136 91.214 144.041 91.214Z" fill="#BEBEBE"/>
<path d="M14.1484 27.1889C14.1484 27.1889 55.2881 86.6447 91.7529 74.1109C91.7578 74.1109 110.495 14.4779 14.1484 27.1889Z" stroke="#BEBEBE" stroke-width="0.325215" stroke-miterlimit="10"/>
<path d="M99.5911 91.2141C99.5138 91.214 99.4387 91.189 99.3768 91.1427C99.315 91.0963 99.2698 91.0313 99.248 90.9571C99.2285 90.8921 97.2479 84.3048 91.3811 75.9371C85.9662 68.2165 76.0407 57.3559 59.4954 49.4581C59.411 49.4161 59.3465 49.3425 59.316 49.2533C59.2856 49.1641 59.2916 49.0664 59.3328 48.9816C59.3747 48.8972 59.4483 48.8328 59.5375 48.8023C59.6267 48.7719 59.7244 48.7779 59.8092 48.819C76.509 56.7868 86.5272 67.7595 91.9908 75.5598C97.9179 84.0154 99.9212 90.6953 99.9407 90.762C99.9542 90.8071 99.9586 90.8543 99.9536 90.9011C99.9487 90.9478 99.9346 90.9932 99.9121 91.0344C99.8895 91.0757 99.8591 91.1121 99.8224 91.1415C99.7857 91.171 99.7436 91.1929 99.6985 91.2059C99.6633 91.214 99.6271 91.2167 99.5911 91.2141Z" fill="#BEBEBE"/>
</g>
<defs>
<clipPath id="clip0_284_615">
<rect width="446" height="91.361" fill="white" transform="translate(0 0.23175)"/>
</clipPath>
</defs>
</svg>
