<svg width="278" height="137" viewBox="0 0 278 137" fill="none" xmlns="http://www.w3.org/2000/svg">
<g clip-path="url(#clip0_284_691)">
<path d="M217.43 112.184H112.594V113.157H217.43V112.184Z" fill="#BEBEBE"/>
<path d="M275.874 92.7391C275.874 85.0603 274.756 79.474 272.635 76.1942C268.638 69.9168 259.225 65.7125 249.295 61.2648C243.663 58.8997 238.192 56.1655 232.918 53.08C229.602 51.0167 225.002 47.3671 219.673 43.1433C204.181 30.8611 180.773 12.3016 162.295 12.3016C123.395 12.3016 90.7773 12.6228 84.7866 16.5157C79.4281 19.9999 68.6917 36.6032 61.2423 55.7758L60.3281 55.4157C67.8553 36.0776 78.8057 19.27 84.2518 15.7079C90.4855 11.6496 121.888 11.3284 162.295 11.3284C181.065 11.3284 204.638 30.0144 220.237 42.3841C225.605 46.5496 230.137 50.1895 233.385 52.2527C238.618 55.3136 244.046 58.0251 249.636 60.3694C259.74 64.8852 269.28 69.1285 273.433 75.6686C275.66 79.1528 276.798 84.9046 276.827 92.778L275.874 92.7391Z" fill="#BEBEBE"/>
<path d="M52.9069 88.5639C52.8927 85.4557 53.1236 82.3512 53.5974 79.2793C53.8405 77.6735 54.1517 76.0093 54.5699 74.3159L55.5424 74.5202C55.1825 76.1942 54.8811 77.8487 54.6282 79.435C54.1654 82.4557 53.941 85.5081 53.9572 88.5639H52.9069Z" fill="#BEBEBE"/>
<path d="M274.751 113.362L264.812 113.245V112.272L274.741 112.389C274.902 112.382 275.056 112.321 275.179 112.217C275.302 112.114 275.387 111.972 275.422 111.814C276.361 106.094 276.9 100.315 277.036 94.5201C277.037 94.4294 277.019 94.3395 276.984 94.2558C276.949 94.1722 276.897 94.0966 276.832 94.0335C276.769 93.9674 276.694 93.915 276.61 93.8798C276.527 93.8446 276.436 93.8274 276.346 93.8291H259.93V92.8559H276.346C276.566 92.8556 276.785 92.8994 276.989 92.9846C277.192 93.0698 277.377 93.1948 277.532 93.3522C277.841 93.6698 278.012 94.0964 278.009 94.5395C277.871 100.38 277.328 106.204 276.384 111.97C276.322 112.359 276.123 112.712 275.824 112.967C275.524 113.222 275.144 113.362 274.751 113.362Z" fill="#BEBEBE"/>
<path d="M65.7342 113.08C62.0387 112.797 59.6366 111.707 57.6916 109.43C53.2278 104.223 52.0219 96.2427 51.7982 90.4715C51.7892 90.2499 51.825 90.0287 51.9035 89.8213C51.9821 89.6139 52.1017 89.4246 52.2553 89.2647C52.4112 89.1052 52.5973 88.9784 52.8026 88.8915C53.008 88.8046 53.2285 88.7594 53.4515 88.7586H84.3674V89.7318H53.4709C53.3788 89.7311 53.2875 89.7487 53.2023 89.7838C53.1171 89.8189 53.0398 89.8707 52.9749 89.9362C52.9121 90.0021 52.8634 90.08 52.8316 90.1654C52.7998 90.2507 52.7857 90.3416 52.7902 90.4325C53.0041 96.0578 54.1711 103.805 58.4501 108.797C60.2104 110.861 62.418 111.853 65.8217 112.106L65.7342 113.08Z" fill="#BEBEBE"/>
<path d="M267.632 112.671H266.66C266.66 99.9312 258.753 86.2087 241.375 86.2087C224.784 86.2087 216.09 99.5225 216.09 112.671H215.117C215.117 99.0456 224.132 85.2355 241.375 85.2355C258.617 85.2355 267.632 99.0359 267.632 112.671Z" fill="#BEBEBE"/>
<path d="M89.1776 136.593C84.4498 136.593 79.8282 135.19 75.8972 132.561C71.9661 129.933 68.9023 126.197 67.093 121.825C65.2838 117.454 64.8104 112.644 65.7328 108.004C66.6551 103.363 68.9317 99.101 72.2748 95.7554C75.6178 92.4099 79.8772 90.1315 84.5141 89.2085C89.1511 88.2855 93.9574 88.7592 98.3253 90.5698C102.693 92.3804 106.427 95.4465 109.053 99.3805C111.68 103.314 113.082 107.939 113.082 112.671C113.077 119.014 110.556 125.095 106.075 129.581C101.593 134.066 95.5158 136.588 89.1776 136.593ZM89.1776 89.7318C84.6417 89.7318 80.2077 91.078 76.4364 93.6001C72.6651 96.1221 69.7259 99.7068 67.9906 103.901C66.2552 108.095 65.8017 112.709 66.6873 117.161C67.5729 121.613 69.7579 125.702 72.9659 128.911C76.174 132.12 80.2609 134.305 84.7098 135.19C89.1588 136.074 93.7699 135.618 97.9599 133.88C102.15 132.141 105.731 129.198 108.249 125.423C110.768 121.648 112.111 117.21 112.109 112.671C112.104 106.587 109.686 100.754 105.386 96.4527C101.087 92.1517 95.2569 89.7344 89.1776 89.7318Z" fill="#BEBEBE"/>
<path d="M89.1795 129.566C85.8405 129.566 82.5764 128.575 79.8001 126.719C77.0237 124.862 74.8598 122.224 73.582 119.136C72.3042 116.049 71.9698 112.652 72.6213 109.375C73.2727 106.097 74.8806 103.087 77.2417 100.724C79.6028 98.3612 82.611 96.7521 85.8859 96.1002C89.1609 95.4483 92.5554 95.7829 95.6403 97.0616C98.7252 98.3404 101.362 100.506 103.217 103.284C105.072 106.063 106.062 109.329 106.062 112.671C106.057 117.15 104.277 121.445 101.112 124.612C97.9467 127.779 93.6555 129.561 89.1795 129.566ZM89.1795 96.7585C86.0324 96.7585 82.956 97.6926 80.3393 99.4425C77.7227 101.193 75.6835 103.68 74.4796 106.59C73.2756 109.5 72.9612 112.702 73.5758 115.79C74.1905 118.879 75.7068 121.716 77.9328 123.943C80.1589 126.169 82.9947 127.685 86.0816 128.298C89.1686 128.911 92.3678 128.594 95.2748 127.388C98.1819 126.181 100.666 124.139 102.413 121.519C104.16 118.9 105.092 115.82 105.09 112.671C105.082 108.451 103.403 104.407 100.421 101.424C97.4383 98.4415 93.3959 96.7637 89.1795 96.7585Z" fill="#BEBEBE"/>
<path d="M241.388 136.593C236.661 136.593 232.039 135.19 228.108 132.561C224.177 129.933 221.113 126.197 219.304 121.825C217.495 117.454 217.021 112.644 217.944 108.004C218.866 103.363 221.143 99.101 224.486 95.7554C227.829 92.4099 232.088 90.1315 236.725 89.2085C241.362 88.2855 246.168 88.7592 250.536 90.5698C254.904 92.3804 258.637 95.4465 261.264 99.3805C263.891 103.314 265.293 107.939 265.293 112.671C265.285 119.013 262.764 125.093 258.283 129.578C253.802 134.062 247.726 136.585 241.388 136.593ZM241.388 89.7318C236.853 89.7318 232.419 91.078 228.647 93.6001C224.876 96.1221 221.937 99.7068 220.202 103.901C218.466 108.095 218.013 112.709 218.898 117.161C219.784 121.613 221.969 125.702 225.177 128.911C228.385 132.12 232.472 134.305 236.921 135.19C241.37 136.074 245.981 135.618 250.171 133.88C254.361 132.141 257.942 129.198 260.46 125.423C262.979 121.648 264.322 117.21 264.32 112.671C264.312 106.588 261.894 100.756 257.595 96.4556C253.295 92.1551 247.467 89.737 241.388 89.7318Z" fill="#BEBEBE"/>
<path d="M241.383 129.566C238.044 129.566 234.78 128.575 232.003 126.719C229.227 124.862 227.063 122.224 225.785 119.136C224.507 116.049 224.173 112.652 224.824 109.375C225.476 106.097 227.084 103.087 229.445 100.724C231.806 98.3612 234.814 96.7521 238.089 96.1002C241.364 95.4483 244.759 95.7829 247.843 97.0616C250.928 98.3404 253.565 100.506 255.42 103.284C257.275 106.063 258.265 109.329 258.265 112.671C258.263 117.151 256.483 121.447 253.318 124.615C250.152 127.783 245.859 129.564 241.383 129.566ZM241.383 96.7585C238.236 96.7585 235.159 97.6926 232.542 99.4425C229.926 101.193 227.887 103.68 226.683 106.59C225.479 109.5 225.164 112.702 225.779 115.79C226.394 118.879 227.91 121.716 230.136 123.943C232.362 126.169 235.198 127.685 238.285 128.298C241.372 128.911 244.571 128.594 247.478 127.388C250.385 126.181 252.869 124.139 254.616 121.519C256.363 118.9 257.295 115.82 257.293 112.671C257.288 108.451 255.609 104.405 252.627 101.421C249.644 98.4381 245.6 96.7611 241.383 96.7585Z" fill="#BEBEBE"/>
<path d="M232.722 56.2332L226.576 55.5617C192.762 51.8732 137.699 49.3525 115.594 48.4474L113.766 48.3598L114.028 46.5399C115.001 39.7273 117.189 26.7541 120.602 16.253L120.962 15.1337H122.139C135.754 14.832 151.129 14.832 162.332 14.832C179.838 14.832 202.866 33.0509 218.086 45.119C221.607 47.9121 224.894 50.5496 227.743 52.5934L232.722 56.2332ZM114.855 47.4742H115.613C137.728 48.389 192.821 50.9097 226.664 54.5982L229.212 54.8707L227.14 53.3622C224.32 51.299 220.984 48.6615 217.415 45.8586C202.302 33.8782 179.487 15.7858 162.264 15.7858C151.071 15.7858 135.734 15.7858 122.1 16.0875H121.614L121.458 16.5547C118.074 26.9877 115.915 39.9122 114.923 46.6761L114.855 47.4742Z" fill="#BEBEBE"/>
<path d="M197.208 109.673H128.355C126.718 109.635 125.106 109.259 123.621 108.567C122.137 107.875 120.811 106.883 119.729 105.654C110.169 95.795 107.261 70.8122 107.679 57.3719H108.652C108.243 70.6468 111.073 95.3278 120.429 104.953C121.419 106.093 122.635 107.014 123.999 107.659C125.363 108.304 126.846 108.658 128.355 108.7H197.208C204.735 108.7 211.27 88.7294 215.151 53.9072L216.123 54.0142C213.799 74.7732 208.265 109.673 197.208 109.673ZM109.226 50.3841L108.253 50.2284C110.014 38.7286 112.601 27.3708 115.994 16.2432L116.967 16.5352C115.275 21.6641 112.085 32.8951 109.226 50.3549V50.3841Z" fill="#BEBEBE"/>
<path d="M97.7865 47.7564H96.7459C85.2801 47.3476 75.6426 47.0946 70.2938 47.0362H67.6875L68.8253 44.681C75.6328 30.5983 82.703 20.9341 86.1748 18.6763C87.7989 17.6154 92.0098 16.3016 110.653 15.5327L113.249 15.4257L112.277 17.8295C108.26 27.4743 101.793 40.2138 98.3019 46.8902L97.7865 47.7564ZM96.814 46.7831H97.2322L97.4364 46.4036C100.928 39.7077 107.375 27.0266 111.382 17.4111L111.791 16.4378H110.721C96.7848 17.012 88.9367 17.9853 86.7389 19.4159C83.374 21.6057 76.4497 31.0947 69.7297 45.041L69.263 46.0143H70.3424C75.6912 46.0727 85.3384 46.3354 96.8043 46.7345L96.814 46.7831Z" fill="#BEBEBE"/>
<path d="M58.7701 64.8268C56.5625 64.8268 56.5625 62.7149 56.5625 61.4497C56.5625 60.1845 56.5625 58.0726 58.7701 58.0726C60.083 58.0726 66.8321 59.2502 66.8321 61.4497C66.8321 63.6492 60.083 64.8268 58.7701 64.8268ZM58.7701 59.0459C57.7976 59.0459 57.535 59.5617 57.535 61.4497C57.535 63.3378 57.7879 63.8536 58.7701 63.8536C60.8318 63.8536 65.8596 62.4035 65.8596 61.4497C65.8596 60.496 60.8318 59.0653 58.7701 59.0653V59.0459Z" fill="#BEBEBE"/>
<path d="M56.3854 71.8633C54.1875 71.8633 54.1875 69.7417 54.1875 68.4765C54.1875 67.2113 54.1875 65.0994 56.3854 65.0994C57.6982 65.0994 64.4474 66.277 64.4474 68.4765C64.4474 70.676 57.7371 71.8633 56.3854 71.8633ZM56.3854 66.0726C55.4129 66.0726 55.16 66.5884 55.16 68.4765C55.16 70.3645 55.4226 70.8901 56.3854 70.8901C58.4471 70.8901 63.4749 69.44 63.4749 68.4765C63.4749 67.513 58.486 66.0726 56.3854 66.0726Z" fill="#BEBEBE"/>
<path d="M122.909 61.0896C119.087 61.0896 115.984 59.5519 115.984 57.6736C115.984 55.7953 119.087 54.2576 122.909 54.2576C126.731 54.2576 129.833 55.7855 129.833 57.6736C129.833 59.5617 126.731 61.0896 122.909 61.0896ZM122.909 55.2503C119.271 55.2503 116.957 56.6906 116.957 57.6931C116.957 58.6955 119.271 60.1359 122.909 60.1359C126.546 60.1359 128.86 58.6858 128.86 57.6931C128.86 56.7004 126.546 55.2308 122.909 55.2308V55.2503Z" fill="#BEBEBE"/>
<path d="M272.419 78.5299C267.624 78.5299 261.001 74.0336 258.395 71.6686C256.042 69.5275 255.186 68.0774 255.614 66.9582C256.042 65.839 257.559 65.3913 260.301 65.3913V66.3645C257.218 66.3645 256.635 67.0263 256.518 67.3378C256.343 67.7952 256.645 68.7976 259.047 70.9776C262.178 73.8195 269.744 78.6078 273.877 77.3912L274.15 78.3644C273.583 78.4959 273.001 78.5516 272.419 78.5299Z" fill="#BEBEBE"/>
<path d="M79.1112 69.7709C78.0875 69.7708 77.0869 69.4669 76.2358 68.8976C75.3848 68.3282 74.7217 67.519 74.3304 66.5724C73.9391 65.6257 73.8372 64.5842 74.0376 63.5796C74.238 62.575 74.7318 61.6524 75.4563 60.9287C76.1808 60.205 77.1036 59.7127 78.1078 59.514C79.1121 59.3153 80.1527 59.4192 81.0979 59.8126C82.0431 60.206 82.8504 60.8711 83.4177 61.7239C83.9851 62.5766 84.2869 63.5786 84.2849 64.603C84.2849 65.2825 84.1511 65.9553 83.8909 66.5829C83.6308 67.2105 83.2496 67.7807 82.769 68.2607C82.2885 68.7407 81.718 69.1211 81.0903 69.3803C80.4627 69.6394 79.7902 69.7721 79.1112 69.7709ZM79.1112 60.3986C78.2803 60.3986 77.468 60.6452 76.7771 61.1072C76.0862 61.5692 75.5478 62.2258 75.2298 62.9941C74.9118 63.7623 74.8286 64.6076 74.9907 65.4232C75.1528 66.2388 75.553 66.9879 76.1405 67.5759C76.7281 68.1639 77.4767 68.5644 78.2916 68.7266C79.1066 68.8888 79.9513 68.8055 80.719 68.4873C81.4866 68.1691 82.1428 67.6302 82.6044 66.9388C83.0661 66.2474 83.3124 65.4345 83.3124 64.603C83.3163 64.0484 83.2105 63.4986 83.001 62.9851C82.7916 62.4716 82.4828 62.0047 82.0923 61.6112C81.7018 61.2177 81.2373 60.9054 80.7257 60.6923C80.2141 60.4791 79.6654 60.3694 79.1112 60.3694V60.3986Z" fill="#BEBEBE"/>
<path d="M203.874 52.2527C203.494 52.2527 203.125 52.2527 202.755 52.2527C201.17 52.1846 195.948 51.7953 195.423 49.5082C195.341 48.9583 195.386 48.397 195.554 47.8673C195.723 47.3375 196.01 46.8535 196.395 46.4523C198.985 43.5945 202.592 41.8682 206.441 41.6445C207.434 41.6299 208.417 41.8517 209.308 42.2917C210.199 42.7316 210.973 43.3771 211.566 44.1749C212.111 44.9454 212.463 45.8352 212.593 46.7699C212.723 47.7046 212.628 48.6569 212.315 49.5471C211.673 51.4741 207.686 52.2527 203.874 52.2527ZM206.412 42.5886C202.862 42.8105 199.536 44.4013 197.134 47.0265C196.852 47.3198 196.637 47.6712 196.504 48.0561C196.372 48.4409 196.325 48.8501 196.366 49.2552C196.609 50.2284 199.283 51.1043 202.794 51.2503C207.17 51.4352 210.944 50.5398 211.381 49.2162C211.654 48.472 211.74 47.6725 211.633 46.8872C211.527 46.1019 211.23 45.3546 210.769 44.7102C210.263 44.041 209.606 43.5003 208.853 43.1318C208.099 42.7632 207.27 42.5772 206.431 42.5886H206.412Z" fill="#BEBEBE"/>
<path d="M247.649 67.0264C247.649 67.6492 246.511 68.1553 245.101 68.1553C243.691 68.1553 242.562 67.6492 242.562 67.0264C242.562 66.4035 243.7 65.9072 245.101 65.9072C246.501 65.9072 247.649 66.4035 247.649 67.0264Z" fill="#BEBEBE"/>
<path d="M30.9809 128.301H5.8125V25.5083C5.8125 24.6565 6.15062 23.8396 6.75248 23.2373C7.35433 22.635 8.1706 22.2967 9.02175 22.2967H10.3346V23.2699H9.02175C8.42853 23.2699 7.8596 23.5057 7.44013 23.9255C7.02065 24.3453 6.785 24.9146 6.785 25.5083V127.328H30.0279V25.5083C30.0279 24.9146 29.7922 24.3453 29.3727 23.9255C28.9532 23.5057 28.3843 23.2699 27.7911 23.2699H26.4782V22.2967H27.7911C28.6422 22.2967 29.4585 22.635 30.0604 23.2373C30.6623 23.8396 31.0004 24.6565 31.0004 25.5083L30.9809 128.301Z" fill="#BEBEBE"/>
<path d="M26.952 43.4937H9.83594V19.6009H26.952V43.4937ZM10.8084 42.5204H25.9795V20.5741H10.8084V42.5204Z" fill="#BEBEBE"/>
<path d="M26.952 50.1992H9.83594V45.1871H26.952V50.1992ZM10.8084 49.226H25.9795V46.1603H10.8084V49.226Z" fill="#BEBEBE"/>
<path d="M15.1149 76.7878C16.1457 82.6272 24.3439 83.3376 20.3955 88.5639C19.8801 87.9313 19.2869 87.25 18.7229 86.559C17.9225 85.6187 17.2218 84.5978 16.632 83.5128C16.4379 83.1532 16.272 82.779 16.136 82.3936L15.9804 81.9459C15.9804 81.9459 15.9804 82.1114 16.0776 82.4034C16.1692 82.8072 16.2894 83.204 16.4375 83.5907C16.9001 84.7671 17.4835 85.8924 18.1782 86.9483C18.6742 87.7366 19.1507 88.4958 19.6078 89.177C12.8295 90.9094 14.6772 82.5299 15.1149 76.7878Z" fill="#BEBEBE"/>
<path d="M19.9866 89.07L20.395 88.5639C20.6576 88.8753 20.9007 89.1868 21.1146 89.469C21.3286 89.7512 21.4161 89.868 21.5328 90.0627C21.6495 90.2573 21.776 90.4325 21.8538 90.5688L22.0774 90.9775V91.0554C22.1105 91.1378 22.1269 91.2259 22.1257 91.3147C22.1245 91.4034 22.1057 91.4911 22.0704 91.5725C22.0351 91.654 21.9841 91.7276 21.9202 91.7892C21.8563 91.8508 21.7808 91.8991 21.6982 91.9313C21.5315 91.9928 21.3475 91.9878 21.1845 91.9171C21.0215 91.8464 20.892 91.7155 20.8229 91.5517L20.6576 91.1235C20.5992 90.9873 20.5311 90.851 20.4533 90.6855C20.3755 90.5201 20.2491 90.3157 20.1421 90.1016C20.0352 89.8875 19.7824 89.508 19.5781 89.1868L19.9866 89.07Z" fill="#BEBEBE"/>
<path d="M17.6632 111.065C17.8412 111.065 18.0119 110.994 18.1377 110.868C18.2636 110.742 18.3342 110.572 18.3342 110.393C18.3342 108.243 19.6082 105.819 20.8433 103.484C22.4869 100.359 24.1887 97.1283 23.1773 94.0821C23.1509 93.9977 23.1079 93.9194 23.0508 93.8519C22.9936 93.7845 22.9235 93.7291 22.8447 93.6892C22.7658 93.6493 22.6797 93.6256 22.5915 93.6195C22.5033 93.6134 22.4148 93.6251 22.3312 93.6539C22.1624 93.7095 22.0225 93.8299 21.9423 93.9887C21.862 94.1474 21.848 94.3315 21.9033 94.5006C22.7299 97.0018 21.2323 99.8436 19.6471 102.861C18.3439 105.342 16.9922 107.912 16.9922 110.393C16.9922 110.482 17.0095 110.569 17.0433 110.65C17.077 110.732 17.1264 110.806 17.1887 110.868C17.2511 110.931 17.325 110.98 17.4064 111.014C17.4879 111.048 17.5751 111.065 17.6632 111.065Z" fill="#BEBEBE"/>
<path d="M14.9688 113.897H20.405C20.405 111.951 19.1991 110.393 17.7112 110.393C16.2233 110.393 14.9688 111.96 14.9688 113.897Z" fill="#BEBEBE"/>
<path d="M19.0089 116.583C19.1869 116.583 19.3575 116.512 19.4834 116.386C19.6092 116.261 19.6799 116.09 19.6799 115.912V113.897H18.3281V115.912C18.3281 116.001 18.3458 116.089 18.3801 116.171C18.4145 116.253 18.4648 116.327 18.5281 116.39C18.5914 116.452 18.6665 116.502 18.7491 116.535C18.8316 116.568 18.92 116.584 19.0089 116.583Z" fill="#BEBEBE"/>
<path d="M16.3195 116.583C16.4974 116.583 16.6681 116.512 16.794 116.386C16.9198 116.261 16.9905 116.09 16.9905 115.912V113.897H15.6484V115.912C15.6484 116.09 15.7192 116.261 15.845 116.386C15.9708 116.512 16.1415 116.583 16.3195 116.583Z" fill="#BEBEBE"/>
<path d="M18.39 34.4329C17.6206 34.4329 16.8686 34.2045 16.2288 33.7768C15.5891 33.349 15.0905 32.741 14.7961 32.0297C14.5017 31.3184 14.4246 30.5356 14.5747 29.7805C14.7248 29.0253 15.0953 28.3317 15.6393 27.7872C16.1834 27.2428 16.8765 26.872 17.6311 26.7218C18.3857 26.5716 19.1679 26.6487 19.8787 26.9433C20.5895 27.238 21.197 27.737 21.6244 28.3771C22.0519 29.0173 22.28 29.77 22.28 30.5399C22.28 31.0512 22.1794 31.5574 21.9839 32.0297C21.7884 32.502 21.5019 32.9312 21.1407 33.2926C20.7794 33.6541 20.3506 33.9409 19.8787 34.1365C19.4067 34.3322 18.9008 34.4329 18.39 34.4329ZM18.39 27.6981C17.813 27.6981 17.2489 27.8694 16.7691 28.1902C16.2893 28.511 15.9154 28.967 15.6946 29.5005C15.4738 30.034 15.416 30.621 15.5286 31.1874C15.6411 31.7538 15.919 32.274 16.327 32.6823C16.735 33.0907 17.2549 33.3687 17.8208 33.4814C18.3868 33.594 18.9734 33.5362 19.5065 33.3152C20.0396 33.0942 20.4953 32.72 20.8159 32.2399C21.1364 31.7597 21.3075 31.1952 21.3075 30.6178C21.3075 29.8434 21.0002 29.1008 20.453 28.5533C19.9059 28.0057 19.1638 27.6981 18.39 27.6981Z" fill="#BEBEBE"/>
<path d="M43.0518 110.987C42.4148 110.986 41.7795 110.921 41.1555 110.793C20.4898 106.51 18.1266 33.3915 18.0391 30.2869H19.0116C19.0116 31.0363 21.4331 105.741 41.3792 109.868C51.1042 111.892 63.6106 96.7196 78.5191 64.7977L79.404 65.2064C65.1374 95.6004 52.9714 110.987 43.0518 110.987Z" fill="#BEBEBE"/>
<path d="M185.917 41.4729L182.562 50.5248L183.474 50.8633L186.829 41.8114L185.917 41.4729Z" fill="#BEBEBE"/>
<path d="M36.7742 136.593H-0.015625V127.328H36.7547L36.7742 136.593ZM0.976318 135.62H35.8017V128.301H0.956879L0.976318 135.62Z" fill="#BEBEBE"/>
<path d="M102.454 13.3722C102.372 13.3729 102.292 13.3528 102.22 13.3136C102.149 13.2744 102.088 13.2175 102.045 13.1483L93.9831 0.749388C93.9136 0.640929 93.89 0.509329 93.9174 0.383447C93.9447 0.257565 94.0208 0.147671 94.129 0.0778575C94.1822 0.0421328 94.2422 0.0175273 94.3051 0.00552166C94.3681 -0.00648399 94.4328 -0.00564339 94.4955 0.00798681C94.5581 0.021617 94.6174 0.0477621 94.6698 0.084852C94.7221 0.121942 94.7664 0.169208 94.8 0.223836L102.862 12.6228C102.931 12.7312 102.955 12.8628 102.928 12.9887C102.9 13.1146 102.824 13.2245 102.716 13.2943C102.639 13.3477 102.547 13.375 102.454 13.3722Z" fill="#BEBEBE"/>
</g>
<defs>
<clipPath id="clip0_284_691">
<rect width="278" height="136.593" fill="white"/>
</clipPath>
</defs>
</svg>
