<svg width="363" height="120" viewBox="0 0 363 120" fill="none" xmlns="http://www.w3.org/2000/svg">
<path d="M7.24842 8.01042C4.02019 11.4002 1.95251 15.7281 1.3438 20.3694C0.735088 25.0107 1.61682 29.7254 3.86175 33.8331L22.0354 67.0916C22.1536 67.3088 22.3281 67.49 22.5406 67.6163C22.7531 67.7426 22.9958 67.8093 23.243 67.8093C23.4902 67.8093 23.7328 67.7426 23.9453 67.6163C24.1578 67.49 24.3324 67.3088 24.4505 67.0916L42.6217 33.83C44.8659 29.7227 45.7472 25.0086 45.1385 20.368C44.5298 15.7273 42.4626 11.4 39.235 8.01042C30.5315 -1.12968 15.9513 -1.12968 7.24842 8.01042Z" stroke="#BEBEBE" stroke-width="0.459971" stroke-miterlimit="10"/>
<path d="M23.2398 67.9592C22.9647 67.9613 22.6942 67.8883 22.4576 67.7479C22.221 67.6076 22.0273 67.4053 21.8972 67.1629L3.72354 33.9043C1.46353 29.7683 0.575953 25.0212 1.18888 20.348C1.80182 15.6749 3.88356 11.3172 7.13374 7.90393C10.8556 3.99494 15.8727 1.57291 21.2484 1.08943C26.6242 0.605947 31.9923 2.09401 36.352 5.27618C40.7116 8.45834 43.7651 13.1174 44.9433 18.3847C46.1215 23.652 45.3438 29.168 42.7554 33.9043L24.5823 67.1629C24.4523 67.4053 24.2585 67.6076 24.0219 67.7479C23.7853 67.8883 23.5148 67.9613 23.2398 67.9592ZM7.35853 8.11943C4.1441 11.4794 2.08485 15.7769 1.48003 20.3873C0.87522 24.9977 1.75636 29.6809 3.9954 33.7563L22.1685 67.0149C22.2735 67.2071 22.4284 67.3675 22.6169 67.4793C22.8053 67.591 23.0204 67.65 23.2395 67.65C23.4585 67.65 23.6736 67.591 23.862 67.4793C24.0505 67.3675 24.2054 67.2071 24.3104 67.0149L42.4835 33.7563C44.7226 29.681 45.6039 24.9978 44.9992 20.3874C44.3945 15.777 42.3353 11.4795 39.121 8.11943C34.9411 3.72773 29.301 1.30771 23.2398 1.30771C17.1786 1.30771 11.5403 3.72773 7.35853 8.11943Z" fill="#BEBEBE"/>
<path d="M23.2479 35.201C16.7786 35.201 11.5156 29.9374 11.5156 23.4687C11.5156 17.0001 16.7799 11.7358 23.2479 11.7358C29.7159 11.7358 34.9808 16.9995 34.9808 23.4687C34.9808 29.938 29.719 35.201 23.2479 35.201ZM23.2479 12.0455C16.9495 12.0455 11.8252 17.1697 11.8252 23.4687C11.8252 29.7677 16.9508 34.8914 23.2479 34.8914C29.545 34.8914 34.6712 29.7671 34.6712 23.4687C34.6712 17.1704 29.5481 12.0455 23.2479 12.0455Z" fill="#BEBEBE"/>
<path d="M314.794 119.593H314.658C311.896 119.586 309.163 119.034 306.616 117.968C304.069 116.901 301.758 115.342 299.816 113.379C297.874 111.416 296.339 109.088 295.3 106.53C294.26 103.972 293.737 101.233 293.76 98.4721C293.77 95.6865 294.334 92.9307 295.417 90.3644C296.5 87.7982 298.082 85.4724 300.071 83.5219C303.956 79.6782 309.204 77.5274 314.669 77.539H314.861C317.616 77.5507 320.34 78.116 322.872 79.2012C325.404 80.2864 327.692 81.8694 329.6 83.8561C333.473 87.8765 335.579 93.2527 335.532 98.9953C335.487 104.48 333.276 109.658 329.306 113.576C325.369 117.457 320.22 119.593 314.794 119.593ZM314.669 78.2601C309.397 78.2484 304.333 80.3234 300.585 84.032C298.665 85.9158 297.138 88.162 296.092 90.6405C295.046 93.119 294.502 95.7805 294.493 98.4706C294.47 101.136 294.975 103.779 295.978 106.248C296.981 108.717 298.463 110.963 300.337 112.857C302.212 114.752 304.443 116.256 306.901 117.285C309.359 118.314 311.997 118.847 314.662 118.853H314.79C325.561 118.853 334.71 109.78 334.799 98.9778C334.893 87.4618 326.133 78.3627 314.854 78.2601H314.669ZM159.677 119.593H159.541C156.791 119.585 154.069 119.035 151.532 117.973C148.995 116.912 146.692 115.36 144.756 113.406C142.82 111.452 141.289 109.136 140.25 106.589C139.212 104.043 138.686 101.316 138.703 98.5659C138.7 95.7709 139.252 93.0031 140.326 90.423C141.401 87.8428 142.977 85.5016 144.963 83.5351C146.882 81.6234 149.159 80.1087 151.664 79.0775C154.168 78.0464 156.852 77.5191 159.56 77.5258H159.677C162.423 77.5323 165.139 78.0852 167.668 79.1525C170.198 80.2197 172.489 81.7798 174.409 83.7418C176.344 85.7058 177.873 88.0319 178.908 90.5871C179.943 93.1423 180.464 95.8765 180.442 98.6333C180.444 101.417 179.893 104.174 178.82 106.743C177.748 109.312 176.176 111.643 174.195 113.6C172.287 115.503 170.023 117.012 167.532 118.04C165.041 119.069 162.372 119.596 159.677 119.593ZM159.563 78.2601C156.95 78.2535 154.361 78.762 151.945 79.7564C149.529 80.7508 147.332 82.2117 145.481 84.0555C143.563 85.9538 142.041 88.2139 141.004 90.7048C139.966 93.1956 139.433 95.8676 139.436 98.5659C139.386 109.68 148.406 118.781 159.543 118.854C162.164 118.875 164.763 118.376 167.19 117.386C169.617 116.395 171.823 114.933 173.681 113.084C175.592 111.194 177.11 108.944 178.144 106.464C179.179 103.984 179.711 101.322 179.709 98.6348C179.753 87.4617 170.768 78.3231 159.674 78.2615L159.563 78.2601ZM130.615 97.6909C128.511 97.6909 126.388 97.4813 124.348 96.4186C120.222 94.2714 117.988 90.7376 117.887 86.1983C117.795 82.0562 117.818 77.8438 117.839 73.7721C117.847 72.4041 117.853 71.0361 117.858 69.6681C117.846 69.226 117.975 68.7917 118.227 68.4282C119.526 66.769 120.866 65.0937 122.148 63.4741C122.981 62.4286 123.811 61.3825 124.64 60.336C125.461 59.2969 125.464 58.7912 124.653 57.7623C123.747 56.6112 122.838 55.4636 121.927 54.3193C120.716 52.795 119.464 51.2208 118.246 49.6613C117.991 49.3009 117.854 48.8693 117.857 48.4272C117.857 45.8535 117.853 43.2792 117.846 40.7044C117.833 31.5379 117.818 22.0607 117.88 12.7374C117.884 11.2153 118.193 9.7094 118.787 8.30818C119.382 6.90697 120.25 5.63869 121.342 4.57786C123.548 2.42643 126.512 1.22923 129.594 1.24486C157.024 1.24486 184.411 1.24486 211.333 1.24486C240.715 1.24486 269.545 1.24486 297.31 1.24486C300.555 1.24486 303.319 2.35439 305.538 4.54121C308.663 7.62798 311.82 10.7866 314.873 13.8411L317.148 16.1173L329.423 28.3926C338.988 37.9592 348.879 47.8527 358.618 57.5717C361.128 60.0751 362.362 62.7368 362.5 65.9482C362.502 65.9974 362.494 66.0466 362.477 66.0927C362.459 66.1388 362.433 66.1809 362.398 66.2164C362.364 66.2521 362.323 66.2804 362.277 66.2998C362.232 66.3192 362.183 66.3292 362.133 66.3293H356.377C354.912 66.3293 353.387 66.3293 351.892 66.341C350.73 66.3513 349.987 66.8804 349.664 67.9122C349.362 68.8957 349.664 69.7238 350.572 70.3702L352.061 71.4358C354.929 73.4878 357.896 75.6145 360.826 77.6841C361.118 77.87 361.43 78.0238 361.755 78.1428C361.948 78.2234 362.167 78.3143 362.398 78.4213C362.464 78.4517 362.52 78.5009 362.557 78.5627C362.595 78.6246 362.614 78.6963 362.611 78.7687C362.573 79.7448 362.564 80.7547 362.555 81.7309C362.535 83.9646 362.514 86.2745 362.157 88.5185C361.365 93.4843 356.679 97.4739 351.491 97.6059C348.369 97.6835 345.188 97.6645 342.125 97.6469C340.851 97.6381 339.535 97.6308 338.241 97.6293C338.104 97.6258 337.968 97.6061 337.836 97.5707C337.795 97.5619 337.756 97.5516 337.717 97.5458C337.638 97.5313 337.566 97.4912 337.512 97.4316C337.457 97.372 337.424 97.2963 337.417 97.216C336.211 83.22 324.846 75.7347 314.68 75.7347H314.464C302.577 75.8593 292.902 85.0829 291.96 97.1896C291.952 97.2817 291.911 97.3678 291.843 97.4305C291.775 97.4932 291.686 97.5281 291.593 97.5282H182.638C182.546 97.5285 182.457 97.4943 182.39 97.4324C182.322 97.3705 182.28 97.2854 182.273 97.194C181.629 89.8552 178.368 84.0261 172.578 79.8709C168.546 76.9761 163.919 75.591 158.824 75.7523C147.062 76.126 137.819 85.2002 136.848 97.3274C136.844 97.3753 136.831 97.4221 136.809 97.4648C136.787 97.5076 136.757 97.5456 136.72 97.5765C136.646 97.6395 136.55 97.6705 136.453 97.663C135.198 97.5873 133.94 97.5819 132.684 97.6469C131.999 97.6747 131.307 97.6982 130.615 97.6982V97.6909ZM211.335 1.98064C184.41 1.98064 157.029 1.98064 129.595 1.98064C123.478 1.98064 118.655 6.71045 118.614 12.7447C118.553 22.0651 118.567 31.5423 118.581 40.7059C118.581 43.2816 118.584 45.8559 118.591 48.4287C118.589 48.7076 118.671 48.9807 118.825 49.2128C120.042 50.7694 121.292 52.3436 122.501 53.8664C123.413 55.0126 124.323 56.1612 125.231 57.3123C126.257 58.6094 126.248 59.4874 125.216 60.7933C124.388 61.8418 123.558 62.8883 122.724 63.9328C121.436 65.5451 120.103 67.2248 118.808 68.8825C118.659 69.1187 118.585 69.3938 118.594 69.6725C118.594 71.0405 118.587 72.4085 118.575 73.7765C118.554 77.8453 118.531 82.0518 118.623 86.1837C118.72 90.5001 120.76 93.7247 124.69 95.7708C127.23 97.0899 129.868 97.0064 132.662 96.914C133.806 96.8774 134.986 96.8378 136.151 96.914C136.717 90.9164 139.328 85.4317 143.528 81.4362C147.66 77.4948 153.098 75.2136 158.805 75.0282C164.063 74.8597 168.842 76.2916 173.009 79.2787C178.891 83.5014 182.243 89.3921 182.976 96.7982H291.265C291.815 90.7669 294.479 85.2603 298.788 81.2618C303.051 77.2958 308.642 75.0648 314.464 75.0062H314.705C320.401 75.0183 325.896 77.1147 330.153 80.8998C334.697 84.9129 337.521 90.5822 338.129 96.8891C338.169 96.8975 338.209 96.9019 338.25 96.9023C339.545 96.9023 340.863 96.9111 342.137 96.9199C345.2 96.9375 348.369 96.9566 351.479 96.8803C356.327 96.7601 360.703 93.0417 361.446 88.413C361.795 86.2232 361.815 83.9411 361.836 81.7338C361.844 80.8339 361.852 79.9061 361.882 78.9973C361.746 78.9387 361.616 78.883 361.487 78.8302C361.111 78.6915 360.752 78.5116 360.415 78.2938C357.484 76.2227 354.516 74.0975 351.648 72.0426L350.158 70.977C349.003 70.1504 348.584 68.9895 348.977 67.7085C349.386 66.3732 350.424 65.6316 351.898 65.6184C353.396 65.6052 354.92 65.6052 356.39 65.6067H361.758C361.55 62.7603 360.385 60.3653 358.114 58.1008C348.375 48.3818 338.484 38.4883 328.917 28.9217L316.639 16.6435L314.363 14.3687C311.311 11.3142 308.156 8.1571 305.031 5.0718C302.96 3.01982 300.364 1.99383 297.318 1.99383C269.549 1.98503 240.716 1.97624 211.335 1.97624V1.98064ZM362.076 76.3122C361.999 76.3123 361.924 76.2882 361.862 76.2433L351.565 68.8781C351.503 68.8325 351.456 68.7683 351.432 68.6947C351.408 68.621 351.407 68.5416 351.431 68.4677C351.454 68.3936 351.5 68.3289 351.563 68.283C351.626 68.2372 351.702 68.2125 351.779 68.2127H362.076C362.173 68.2127 362.266 68.2513 362.335 68.32C362.404 68.3887 362.442 68.4819 362.442 68.5791V75.9457C362.442 76.0131 362.424 76.079 362.388 76.1364C362.353 76.1938 362.303 76.2404 362.243 76.2711C362.192 76.2983 362.134 76.3123 362.076 76.3122ZM352.921 68.9456L361.715 75.2334V68.9456H352.921ZM118.285 65.3194C118.244 65.319 118.204 65.3121 118.166 65.2989C118.094 65.274 118.031 65.2273 117.987 65.1654C117.943 65.1034 117.919 65.0292 117.918 64.953V53.1131C117.918 53.0368 117.942 52.9624 117.986 52.9002C118.03 52.8381 118.093 52.7913 118.165 52.7665C118.237 52.7416 118.315 52.7399 118.389 52.7616C118.462 52.7833 118.526 52.8272 118.573 52.8873L123.196 58.8073C123.246 58.872 123.273 58.9513 123.273 59.033C123.273 59.1147 123.246 59.1941 123.196 59.2587L118.573 65.1787C118.539 65.2225 118.495 65.2579 118.445 65.2822C118.395 65.3066 118.34 65.3193 118.285 65.3194ZM118.651 54.1801V63.8889L122.443 59.0345L118.651 54.1801Z" fill="#BEBEBE"/>
<path d="M130.615 97.6982C128.511 97.6982 126.388 97.4886 124.348 96.426C120.222 94.2787 117.988 90.7449 117.887 86.2057C117.795 82.0636 117.818 77.8512 117.839 73.7794C117.847 72.4115 117.853 71.0435 117.858 69.6755C117.846 69.2334 117.975 68.799 118.227 68.4355C119.526 66.7763 120.866 65.101 122.148 63.4814C122.981 62.4359 123.811 61.3899 124.64 60.3434C125.461 59.3042 125.464 58.7985 124.653 57.7696C123.747 56.6185 122.838 55.4709 121.927 54.3267C120.716 52.8024 119.464 51.2282 118.246 49.6687C117.991 49.3082 117.854 48.8766 117.857 48.4346C117.857 45.8608 117.853 43.2865 117.846 40.7118C117.833 31.5453 117.818 22.0681 117.88 12.7448C117.884 11.2226 118.193 9.71674 118.787 8.31553C119.382 6.91431 120.25 5.64603 121.342 4.5852C123.548 2.43377 126.512 1.23657 129.594 1.2522C186.961 1.24341 244.105 1.2522 297.31 1.2522C300.555 1.2522 303.319 2.36173 305.538 4.54856C308.663 7.63532 311.82 10.7939 314.873 13.8484L317.148 16.1247L329.423 28.3999C338.988 37.9665 348.879 47.86 358.618 57.5791C361.128 60.0825 362.362 62.7442 362.5 65.9555C362.502 66.0048 362.494 66.0539 362.477 66.1C362.459 66.1461 362.433 66.1882 362.398 66.2238C362.364 66.2594 362.323 66.2878 362.277 66.3072C362.232 66.3265 362.183 66.3366 362.133 66.3366H356.377C354.912 66.3366 353.386 66.3366 351.892 66.3483C350.73 66.3586 349.987 66.8877 349.664 67.9196C349.362 68.9031 349.664 69.7312 350.572 70.3776L352.061 71.4431C354.929 73.4951 357.896 75.6218 360.826 77.6914C361.118 77.8773 361.43 78.0311 361.755 78.1502C361.948 78.2308 362.167 78.3216 362.398 78.4286C362.464 78.459 362.52 78.5083 362.557 78.5701C362.595 78.6319 362.614 78.7036 362.611 78.776C362.573 79.7522 362.564 80.762 362.555 81.7382C362.535 83.9719 362.514 86.2819 362.157 88.5259C361.365 93.4916 356.679 97.4813 351.491 97.6132C348.369 97.6909 345.188 97.6718 342.125 97.6542C340.851 97.6454 339.535 97.6381 338.241 97.6367C338.104 97.6331 337.968 97.6135 337.836 97.578C337.795 97.5692 337.756 97.559 337.717 97.5531C337.638 97.5386 337.566 97.4985 337.512 97.4389C337.457 97.3794 337.424 97.3036 337.417 97.2233C336.211 83.2273 324.846 75.742 314.68 75.742H314.464C302.577 75.8666 292.902 85.0903 291.96 97.1969C291.952 97.2891 291.911 97.3751 291.843 97.4378C291.775 97.5006 291.686 97.5354 291.593 97.5355H182.638C182.546 97.5358 182.457 97.5016 182.39 97.4397C182.322 97.3778 182.28 97.2927 182.273 97.2013C181.629 89.8626 178.368 84.0335 172.578 79.8782C168.546 76.9835 163.919 75.5969 158.824 75.7596C147.062 76.1334 137.819 85.2075 136.848 97.3347C136.844 97.3826 136.831 97.4294 136.809 97.4722C136.787 97.515 136.757 97.553 136.72 97.5839C136.646 97.6468 136.55 97.6779 136.453 97.6704C135.198 97.5946 133.94 97.5893 132.684 97.6542C131.999 97.6748 131.307 97.6982 130.615 97.6982ZM211.535 1.98798C184.544 1.98798 157.099 1.98798 129.595 1.98798C123.478 1.98798 118.655 6.7178 118.614 12.7521C118.553 22.0725 118.567 31.5497 118.581 40.7133C118.581 43.289 118.584 45.8632 118.591 48.436C118.589 48.7149 118.671 48.988 118.825 49.2202C120.042 50.7767 121.292 52.3509 122.501 53.8738C123.413 55.0199 124.323 56.1686 125.231 57.3196C126.257 58.6168 126.248 59.4947 125.216 60.8007C124.388 61.8491 123.558 62.8956 122.724 63.9402C121.436 65.5525 120.103 67.2322 118.808 68.8899C118.659 69.126 118.585 69.4011 118.594 69.6799C118.594 71.0479 118.587 72.4159 118.575 73.7839C118.554 77.8526 118.531 82.0592 118.623 86.191C118.72 90.5075 120.76 93.732 124.69 95.7781C127.23 97.0973 129.869 97.0137 132.662 96.9214C133.806 96.8848 134.986 96.8452 136.151 96.9214C136.717 90.9223 139.328 85.4376 143.528 81.4421C147.66 77.5007 153.098 75.2194 158.805 75.0341C164.063 74.8655 168.842 76.2975 173.009 79.2846C178.891 83.5073 182.243 89.3979 182.976 96.8041H291.265C291.815 90.7728 294.479 85.2661 298.788 81.2677C303.051 77.3017 308.642 75.0707 314.464 75.0121H314.705C320.401 75.0242 325.896 77.1206 330.153 80.9057C334.697 84.9188 337.521 90.5881 338.129 96.895C338.169 96.9033 338.209 96.9078 338.25 96.9082C339.545 96.9082 340.863 96.917 342.137 96.9258C345.2 96.9434 348.369 96.9624 351.479 96.8862C356.327 96.766 360.703 93.0475 361.446 88.4189C361.795 86.2291 361.815 83.947 361.836 81.7411C361.844 80.8397 361.852 79.9119 361.882 79.0032C361.746 78.9446 361.616 78.8889 361.487 78.8361C361.111 78.6974 360.752 78.5175 360.415 78.2997C357.484 76.2286 354.516 74.1034 351.648 72.0484L350.158 70.9829C349.003 70.1562 348.584 68.9954 348.977 67.7144C349.386 66.3791 350.424 65.6375 351.898 65.6243C353.396 65.6111 354.92 65.6111 356.39 65.6126H361.758C361.55 62.7662 360.385 60.3712 358.114 58.1067C348.375 48.3876 338.484 38.4942 328.917 28.9276L316.639 16.6435L314.363 14.3687C311.311 11.3142 308.156 8.15711 305.031 5.07181C302.96 3.01983 300.364 1.99384 297.318 1.99384C269.614 1.98505 240.842 1.97626 211.535 1.97626V1.98798ZM265.747 53.1732C264.575 53.1732 263.402 53.1526 262.23 53.1101C261.819 53.0955 261.525 52.7481 261.237 52.411C261.146 52.2956 261.048 52.1855 260.944 52.0812C260.905 52.0448 260.874 52.0003 260.854 51.9506C260.833 51.901 260.824 51.8476 260.827 51.794C260.83 51.7405 260.844 51.6882 260.869 51.6408C260.894 51.5935 260.929 51.5522 260.972 51.5199C261.074 51.4371 261.172 51.349 261.265 51.256C261.532 51.0039 261.835 50.7181 262.218 50.6859C263.075 50.6126 263.946 50.6258 264.787 50.6375C265.113 50.6375 265.439 50.6478 265.765 50.6478C266.09 50.6478 266.394 50.6478 266.709 50.636C267.536 50.6054 268.364 50.6216 269.189 50.6844C269.587 50.7225 269.921 51.0025 270.204 51.2487C270.322 51.3469 270.432 51.4407 270.539 51.514C270.584 51.5451 270.622 51.5861 270.649 51.6339C270.677 51.6817 270.693 51.735 270.697 51.7899C270.701 51.8448 270.692 51.9 270.672 51.9511C270.652 52.0023 270.62 52.0483 270.58 52.0856C270.476 52.1901 270.379 52.2996 270.286 52.4139C269.993 52.7496 269.7 53.094 269.299 53.1087C268.114 53.1468 266.93 53.1673 265.747 53.1673V53.1732ZM261.715 51.8394L261.799 51.9361C261.926 52.0827 262.162 52.3641 262.26 52.3758C264.578 52.4608 266.934 52.4594 269.265 52.3758C269.362 52.3612 269.596 52.0827 269.722 51.9361L269.791 51.8555L269.731 51.8042C269.513 51.6181 269.291 51.4275 269.118 51.4114C268.321 51.3508 267.521 51.3356 266.722 51.366C266.402 51.366 266.084 51.3777 265.765 51.3777C265.435 51.3777 265.105 51.3777 264.775 51.3674C263.953 51.3557 263.102 51.3425 262.284 51.4129C262.155 51.4231 261.942 51.6254 261.771 51.7866L261.715 51.8394ZM249.128 53.1688C247.58 53.1688 246.031 53.1497 244.489 53.1116C244.064 53.1013 243.735 52.7657 243.419 52.4403C243.31 52.325 243.195 52.2154 243.074 52.112C243.03 52.0763 242.994 52.0308 242.971 51.979C242.947 51.9272 242.936 51.8706 242.938 51.8137C242.94 51.7568 242.955 51.7012 242.982 51.6512C243.01 51.6012 243.048 51.5582 243.095 51.5257C243.21 51.4408 243.322 51.3498 243.428 51.2531C243.721 50.9966 244.05 50.7079 244.453 50.6844C245.626 50.617 246.809 50.6287 247.955 50.639C248.794 50.6468 249.633 50.6468 250.472 50.639C251.558 50.6287 252.68 50.617 253.787 50.6844C254.189 50.7079 254.52 50.9864 254.813 51.2311C254.933 51.3293 255.045 51.4231 255.153 51.4949C255.201 51.526 255.241 51.568 255.27 51.6174C255.299 51.6667 255.315 51.7222 255.319 51.7792C255.322 51.8362 255.312 51.8933 255.289 51.9457C255.267 51.9982 255.232 52.0446 255.188 52.0812C255.071 52.1882 254.959 52.3012 254.853 52.4198C254.542 52.7554 254.219 53.1028 253.794 53.1131C252.252 53.1439 250.692 53.1629 249.128 53.1629V53.1688ZM243.861 51.8496L243.942 51.9317C244.116 52.1091 244.382 52.3714 244.508 52.3817C247.596 52.4594 250.716 52.4594 253.781 52.3817C253.898 52.3817 254.162 52.0886 254.321 51.9229L254.4 51.8379L254.351 51.7983C254.142 51.6254 253.912 51.429 253.743 51.4187C252.663 51.3528 251.545 51.3645 250.479 51.3748C250.067 51.3748 249.657 51.3835 249.245 51.3835C248.805 51.3835 248.38 51.3835 247.949 51.3835C246.813 51.3733 245.639 51.3616 244.495 51.4275C244.348 51.4363 244.113 51.6386 243.908 51.8159L243.861 51.8496ZM277.691 46.5731H264.371C261.085 46.5731 259.553 45.0385 259.553 41.7466C259.553 33.3432 259.553 24.9399 259.553 16.5365C259.553 13.5274 261.186 11.8697 264.148 11.8668C269.31 11.8609 274.472 11.8609 279.633 11.8668C286.211 11.8668 293.014 11.8668 299.703 11.8565H299.713C300.409 11.84 301.1 11.9697 301.743 12.2373C302.385 12.505 302.964 12.9046 303.442 13.4102C312.655 22.6529 321.113 31.1085 329.296 39.2637C330.698 40.662 331.081 42.2566 330.433 44.0023C329.825 45.6424 328.309 46.5834 326.276 46.5834C318.534 46.5834 310.793 46.5834 303.051 46.5834H277.694L277.691 46.5731ZM299.713 12.5689H299.703C293.014 12.5791 286.219 12.5791 279.633 12.5791C274.472 12.5791 269.311 12.5791 264.15 12.5791C261.586 12.5791 260.287 13.8983 260.286 16.516C260.286 24.9194 260.286 33.3227 260.286 41.726C260.286 44.5959 261.508 45.8198 264.371 45.8198H303.051C310.793 45.8198 318.534 45.8198 326.276 45.8198C328.01 45.8198 329.243 45.0722 329.746 43.7165C330.301 42.2229 329.993 40.9624 328.778 39.7591C320.595 31.6039 312.137 23.1468 302.923 13.9041C302.512 13.4682 302.014 13.1235 301.461 12.8925C300.908 12.6614 300.312 12.5492 299.713 12.563V12.5689ZM225.366 46.3166H199.204C195.64 46.3166 194.12 44.782 194.118 41.1867V38.1644C194.118 31.0157 194.118 23.868 194.118 16.7212C194.118 13.2446 195.679 11.6938 199.175 11.6938H251.625C255.092 11.6938 256.639 13.2548 256.641 16.752C256.641 25.363 256.641 33.3628 256.641 41.2116C256.641 44.785 255.109 46.3093 251.525 46.3093L225.366 46.3166ZM210.728 12.4252H199.178C196.066 12.4252 194.854 13.63 194.853 16.7197C194.853 23.8675 194.853 31.0152 194.853 38.1629V41.1793C194.853 44.3423 196.074 45.5764 199.206 45.5764H251.531C254.683 45.5764 255.911 44.3526 255.914 41.2116C255.914 33.3628 255.914 25.363 255.914 16.752C255.914 13.6403 254.712 12.4267 251.631 12.4267H210.738L210.728 12.4252ZM159.305 46.3108C150.731 46.3108 141.882 46.3108 132.647 46.3108C129.6 46.3108 127.92 44.6369 127.916 41.6C127.905 33.1883 127.905 24.7019 127.916 16.3768C127.916 13.3222 129.563 11.707 132.667 11.7041C139.155 11.7041 145.75 11.7041 152.129 11.7041H186.265C189.704 11.7041 191.238 13.2328 191.238 16.6552V19.4782C191.238 26.8184 191.238 34.1586 191.238 41.4989C191.238 44.6926 189.642 46.3122 186.495 46.3137C177.664 46.3078 168.647 46.3108 159.305 46.3108ZM144.648 12.4267C140.664 12.4267 136.647 12.4267 132.67 12.4267C129.971 12.4267 128.656 13.718 128.651 16.3665C128.641 24.6917 128.641 33.1766 128.651 41.5883C128.651 44.2265 130 45.5677 132.65 45.5677C151.949 45.5677 169.562 45.5677 186.498 45.5677C189.233 45.5677 190.507 44.269 190.508 41.4857C190.508 34.1455 190.508 26.8052 190.508 19.465V16.6465C190.508 13.652 189.279 12.4296 186.267 12.4282H144.641L144.648 12.4267Z" fill="#BEBEBE"/>
<path d="M225.364 46.3108H199.203C195.639 46.3108 194.119 44.7762 194.117 41.1809V38.1645C194.117 31.0158 194.117 23.868 194.117 16.7213C194.117 13.2446 195.678 11.6939 199.174 11.6939H251.624C255.09 11.6939 256.638 13.2549 256.64 16.7521C256.64 25.363 256.64 33.3628 256.64 41.2117C256.64 44.785 255.108 46.3094 251.524 46.3094L225.364 46.3108ZM210.404 12.4253H199.177C196.065 12.4253 194.853 13.6301 194.852 16.7198C194.852 23.8675 194.852 31.0153 194.852 38.163V41.1794C194.852 44.3424 196.072 45.5765 199.205 45.5765H251.53C254.681 45.5765 255.91 44.3526 255.913 41.2117C255.913 33.3628 255.913 25.363 255.913 16.7521C255.913 13.6404 254.711 12.4268 251.63 12.4268H210.404V12.4253Z" fill="#BEBEBE"/>
<path d="M159.29 46.3108C150.719 46.3108 141.876 46.3108 132.645 46.3108C129.598 46.3108 127.918 44.6369 127.914 41.6C127.904 33.1883 127.904 24.7019 127.914 16.3768C127.914 13.3222 129.561 11.707 132.666 11.7041C139.153 11.7041 145.749 11.7041 152.127 11.7041H186.263C189.702 11.7041 191.237 13.2328 191.237 16.6552V19.4782C191.237 26.8184 191.237 34.1586 191.237 41.4989C191.237 44.6926 189.64 46.3122 186.494 46.3137C177.66 46.3078 168.637 46.3108 159.29 46.3108ZM144.633 12.4267C140.652 12.4267 136.639 12.4267 132.664 12.4267C129.964 12.4267 128.65 13.718 128.645 16.3665C128.635 24.6917 128.635 33.1766 128.645 41.5883C128.645 44.2265 129.994 45.5677 132.644 45.5677C151.943 45.5677 169.556 45.5677 186.492 45.5677C189.227 45.5677 190.501 44.269 190.502 41.4857C190.502 34.1455 190.502 26.8052 190.502 19.465V16.6465C190.502 13.652 189.273 12.4296 186.261 12.4282H144.635L144.633 12.4267Z" fill="#BEBEBE"/>
<path d="M310.703 46.5601H295.136H264.372C261.086 46.5601 259.555 45.0255 259.555 41.7336C259.555 33.3302 259.555 24.9269 259.555 16.5235C259.555 13.5144 261.187 11.8567 264.15 11.8538C269.312 11.8479 274.474 11.8479 279.635 11.8538C286.213 11.8538 293.015 11.8538 299.705 11.8435H299.715C300.411 11.827 301.102 11.9567 301.744 12.2243C302.387 12.492 302.966 12.8915 303.444 13.3972C312.657 22.6399 321.114 31.0955 329.297 39.2507C330.7 40.6489 331.082 42.2436 330.434 43.9893C329.826 45.6294 328.311 46.5689 326.278 46.5704L310.703 46.5601ZM295.136 45.8273H303.441C311.052 45.8273 318.664 45.8273 326.278 45.8273C328.012 45.8273 329.244 45.0797 329.747 43.724C330.303 42.2304 329.995 40.9699 328.78 39.7666C320.597 31.6114 312.138 23.1543 302.925 13.9116C302.513 13.4762 302.015 13.1321 301.462 12.9016C300.909 12.671 300.314 12.5593 299.715 12.5735H299.705C293.015 12.5837 286.22 12.5837 279.635 12.5837C274.474 12.5837 269.312 12.5837 264.151 12.5837C261.588 12.5837 260.289 13.9028 260.288 16.5206C260.288 24.9239 260.288 33.3273 260.288 41.7306C260.288 44.6005 261.51 45.8243 264.372 45.8243H295.136V45.8273Z" fill="#BEBEBE"/>
<path d="M314.51 115.989H314.491C312.202 115.986 309.936 115.531 307.823 114.649C305.71 113.768 303.791 112.478 302.178 110.853C300.566 109.228 299.289 107.301 298.424 105.181C297.558 103.062 297.119 100.792 297.133 98.503C297.126 96.2303 297.569 93.9787 298.438 91.8786C299.307 89.7786 300.584 87.8718 302.196 86.2688C305.492 82.9901 309.929 81.1873 314.694 81.1873H314.754C317.023 81.1933 319.269 81.6533 321.358 82.5401C323.447 83.4269 325.338 84.7226 326.919 86.3509C330.161 89.6423 331.965 94.0854 331.935 98.7053C331.908 108.24 324.089 115.989 314.51 115.989ZM297.866 98.5045C297.852 100.698 298.272 102.872 299.102 104.902C299.931 106.933 301.153 108.779 302.698 110.336C304.243 111.892 306.08 113.128 308.105 113.973C310.129 114.817 312.3 115.253 314.493 115.256H314.51C323.687 115.256 331.177 107.834 331.209 98.7038C331.238 94.2766 329.509 90.0188 326.403 86.8639C324.889 85.3039 323.078 84.0628 321.077 83.2137C319.076 82.3646 316.925 81.9248 314.751 81.9201H314.694C310.124 81.9201 305.87 83.6467 302.713 86.7892C301.17 88.3241 299.947 90.15 299.115 92.161C298.283 94.172 297.859 96.3282 297.866 98.5045ZM314.508 113.462C310.565 113.453 306.788 111.878 304.007 109.085C301.225 106.292 299.666 102.508 299.673 98.5661C299.668 96.6139 300.049 94.68 300.795 92.8757C301.54 91.0714 302.635 89.4323 304.016 88.0529C305.398 86.6734 307.038 85.5808 308.843 84.838C310.649 84.0951 312.583 83.7166 314.535 83.7244C318.454 83.7664 322.198 85.3535 324.953 88.1406C327.708 90.9277 329.252 94.6895 329.248 98.6084C329.245 102.527 327.695 106.287 324.935 109.069C322.176 111.852 318.429 113.432 314.51 113.468L314.508 113.462ZM300.406 98.5661C300.401 100.427 300.763 102.27 301.473 103.99C302.183 105.71 303.225 107.273 304.541 108.589C305.844 109.907 307.396 110.952 309.107 111.664C310.818 112.376 312.654 112.741 314.508 112.736C318.261 112.733 321.861 111.241 324.517 108.589C327.174 105.937 328.671 102.34 328.681 98.5866C328.672 94.8388 327.178 91.2474 324.526 88.5993C321.874 85.9511 318.28 84.4622 314.532 84.4587C312.677 84.451 310.838 84.8104 309.121 85.5163C307.405 86.2223 305.845 87.2608 304.532 88.572C303.219 89.8833 302.178 91.4414 301.469 93.1566C300.761 94.8718 300.398 96.7102 300.403 98.5661H300.406Z" fill="#BEBEBE"/>
<path d="M314.506 113.462C310.564 113.453 306.787 111.878 304.005 109.085C301.224 106.292 299.665 102.508 299.672 98.5661C299.667 96.614 300.048 94.68 300.793 92.8758C301.539 91.0715 302.634 89.4324 304.015 88.053C305.396 86.6735 307.037 85.5809 308.842 84.838C310.648 84.0952 312.582 83.7167 314.534 83.7245C318.453 83.7665 322.197 85.3536 324.952 88.1406C327.707 90.9277 329.25 94.6896 329.247 98.6085C329.244 102.527 327.694 106.287 324.934 109.069C322.174 111.852 318.428 113.432 314.509 113.468L314.506 113.462ZM300.405 98.5661C300.4 100.427 300.762 102.27 301.472 103.99C302.181 105.71 303.224 107.273 304.54 108.589C305.843 109.907 307.395 110.952 309.106 111.664C310.817 112.376 312.653 112.741 314.506 112.737C318.26 112.733 321.859 111.241 324.516 108.589C327.172 105.937 328.67 102.34 328.68 98.5867C328.671 94.8389 327.177 91.2475 324.525 88.5993C321.873 85.9512 318.279 84.4622 314.531 84.4588C312.675 84.451 310.836 84.8105 309.12 85.5164C307.404 86.2224 305.844 87.2609 304.531 88.5721C303.217 89.8834 302.177 91.4414 301.468 93.1567C300.759 94.8719 300.397 96.7103 300.402 98.5661H300.405Z" fill="#BEBEBE"/>
<path d="M159.713 113.462C157.762 113.464 155.831 113.079 154.03 112.328C152.229 111.578 150.596 110.477 149.224 109.09C147.824 107.694 146.714 106.034 145.961 104.205C145.208 102.377 144.825 100.417 144.836 98.4399C144.837 96.4942 145.227 94.5684 145.984 92.7761C146.741 90.9837 147.849 89.3611 149.244 88.0041C152.071 85.229 155.883 83.687 159.845 83.7154C167.978 83.7345 174.588 90.4005 174.58 98.5732C174.571 106.781 167.905 113.459 159.719 113.462H159.713ZM159.808 84.441C151.976 84.441 145.591 90.7112 145.569 98.434C145.559 100.315 145.922 102.179 146.639 103.919C147.356 105.658 148.411 107.237 149.743 108.565C151.047 109.883 152.599 110.929 154.31 111.643C156.021 112.357 157.856 112.723 159.71 112.722C167.491 112.722 173.829 106.368 173.838 98.5644C173.847 90.7962 167.565 84.46 159.835 84.441H159.808Z" fill="#BEBEBE"/>
<path d="M159.713 113.462C157.762 113.464 155.831 113.079 154.03 112.328C152.229 111.578 150.596 110.477 149.224 109.09C147.824 107.694 146.714 106.034 145.961 104.205C145.208 102.377 144.825 100.417 144.836 98.4399C144.837 96.4942 145.227 94.5684 145.984 92.7761C146.741 90.9837 147.849 89.3611 149.244 88.0041C152.071 85.229 155.883 83.687 159.845 83.7154C167.978 83.7345 174.588 90.4005 174.58 98.5732C174.571 106.781 167.905 113.459 159.719 113.462H159.713ZM159.808 84.441C151.976 84.441 145.591 90.7112 145.569 98.434C145.559 100.315 145.922 102.179 146.639 103.919C147.356 105.658 148.411 107.237 149.743 108.565C151.047 109.883 152.599 110.929 154.31 111.643C156.021 112.357 157.856 112.723 159.71 112.722C167.491 112.722 173.829 106.368 173.838 98.5644C173.847 90.7962 167.565 84.46 159.835 84.441H159.808Z" fill="#BEBEBE"/>
<path d="M249.245 51.0071C250.751 51.0071 252.263 50.9514 253.765 51.0423C254.175 51.0672 254.561 51.5318 254.957 51.7927C254.568 52.1225 254.187 52.7278 253.784 52.7381C250.686 52.8172 247.589 52.8172 244.491 52.7381C244.085 52.7278 243.694 52.1401 243.297 51.8191C243.685 51.5479 244.063 51.0657 244.469 51.0437C246.06 50.9543 247.653 51.0071 249.245 51.0071Z" fill="#BEBEBE"/>
<path d="M265.766 51.0069C266.897 51.0069 268.035 50.9366 269.155 51.0436C269.568 51.0831 269.942 51.5434 270.327 51.8116C269.977 52.134 269.635 52.7247 269.273 52.7379C266.928 52.8219 264.583 52.8219 262.238 52.7379C261.874 52.7247 261.531 52.1311 261.18 51.8072C261.533 51.5404 261.869 51.0743 262.242 51.045C263.415 50.9454 264.593 51.0084 265.766 51.0069Z" fill="#BEBEBE"/>
<path d="M136.594 116.633H41.1587C31.0977 116.633 22.9141 108.448 22.9141 98.3886V69.0942H23.5664V98.3886C23.5664 108.088 31.4578 115.981 41.1587 115.981H136.594V116.633Z" fill="#BEBEBE"/>
</svg>
